<svg width="98" height="98" viewBox="0 0 98 98" fill="none" xmlns="http://www.w3.org/2000/svg">
<path fill-rule="evenodd" clip-rule="evenodd" d="M38.9191 51.1115C47.2927 51.1115 54.0809 44.3233 54.0809 35.9497C54.0809 27.576 47.2927 20.7878 38.9191 20.7878C30.5454 20.7878 23.7572 27.576 23.7572 35.9497C23.7572 44.3233 30.5454 51.1115 38.9191 51.1115ZM49.4816 77.2344C54.7859 77.2344 59.873 75.1272 63.6237 71.3765L84.8335 50.1666C87.2273 47.7729 87.2273 43.8918 84.8335 41.4981C82.4398 39.1043 78.5587 39.1043 76.165 41.4981L58.7409 58.9221C54.9901 62.6729 49.9031 64.78 44.5987 64.78H19.5905C16.1513 64.78 13.3633 67.568 13.3633 71.0072C13.3633 74.4464 16.1513 77.2344 19.5905 77.2344L49.4816 77.2344Z" fill="#12BFA2"/>
</svg>
