<svg width="91" height="91" viewBox="0 0 91 91" fill="none" xmlns="http://www.w3.org/2000/svg">
<path d="M21.8772 48L23.4172 40.322H24.3082L22.9332 47.208H26.0902L25.9362 48H21.8772ZM29.2002 48.132C28.8996 48.132 28.6246 48.0843 28.3752 47.989C28.1259 47.8863 27.9096 47.7397 27.7262 47.549C27.5502 47.351 27.4109 47.109 27.3082 46.823C27.2056 46.5297 27.1542 46.1887 27.1542 45.8C27.1542 45.3233 27.2239 44.8687 27.3632 44.436C27.5099 43.996 27.7116 43.611 27.9682 43.281C28.2249 42.951 28.5329 42.687 28.8922 42.489C29.2516 42.291 29.6476 42.192 30.0802 42.192C30.3736 42.192 30.6449 42.2433 30.8942 42.346C31.1509 42.4413 31.3672 42.588 31.5432 42.786C31.7266 42.9767 31.8696 43.2187 31.9722 43.512C32.0749 43.8053 32.1262 44.1427 32.1262 44.524C32.1262 45.0007 32.0529 45.459 31.9062 45.899C31.7669 46.3317 31.5689 46.713 31.3122 47.043C31.0556 47.373 30.7476 47.637 30.3882 47.835C30.0289 48.033 29.6329 48.132 29.2002 48.132ZM29.3102 47.373C29.7209 47.373 30.0876 47.2227 30.4102 46.922C30.7329 46.6213 30.9529 46.1813 31.0702 45.602L31.2352 44.777C31.2719 44.5937 31.2902 44.4287 31.2902 44.282C31.2902 43.886 31.1766 43.567 30.9492 43.325C30.7292 43.0757 30.4029 42.951 29.9702 42.951C29.5596 42.951 29.1929 43.1013 28.8702 43.402C28.5476 43.7027 28.3276 44.1427 28.2102 44.722L28.0452 45.547C28.0086 45.7303 27.9902 45.8953 27.9902 46.042C27.9902 46.438 28.1002 46.7607 28.3202 47.01C28.5476 47.252 28.8776 47.373 29.3102 47.373ZM37.4701 48C37.2208 48 37.0338 47.9377 36.9091 47.813C36.7918 47.6883 36.7331 47.5233 36.7331 47.318C36.7331 47.23 36.7441 47.131 36.7661 47.021L36.8211 46.768H36.7881C36.5534 47.2447 36.2931 47.593 36.0071 47.813C35.7211 48.0257 35.3691 48.132 34.9511 48.132C34.4304 48.132 34.0124 47.9413 33.6971 47.56C33.3818 47.1713 33.2241 46.6397 33.2241 45.965C33.2241 45.547 33.2791 45.118 33.3891 44.678C33.5064 44.2307 33.6788 43.8237 33.9061 43.457C34.1334 43.083 34.4194 42.7787 34.7641 42.544C35.1161 42.3093 35.5268 42.192 35.9961 42.192C36.1648 42.192 36.3298 42.214 36.4911 42.258C36.6524 42.302 36.7991 42.368 36.9311 42.456C37.0631 42.544 37.1768 42.654 37.2721 42.786C37.3674 42.918 37.4371 43.072 37.4811 43.248H37.5251L37.7121 42.324H38.5591L37.5691 47.252H38.3721L38.2291 48H37.4701ZM35.1821 47.362C35.4314 47.362 35.6478 47.3107 35.8311 47.208C36.0218 47.1053 36.2014 46.9697 36.3701 46.801C36.5534 46.6177 36.7038 46.416 36.8211 46.196C36.9384 45.976 37.0264 45.723 37.0851 45.437L37.3161 44.282C37.3528 44.106 37.3564 43.941 37.3271 43.787C37.2978 43.6257 37.2318 43.4863 37.1291 43.369C37.0264 43.2443 36.8871 43.1453 36.7111 43.072C36.5351 42.9987 36.3224 42.962 36.0731 42.962C35.6111 42.962 35.2298 43.1123 34.9291 43.413C34.6284 43.7137 34.4231 44.139 34.3131 44.689L34.1481 45.514C34.1114 45.7193 34.0931 45.9063 34.0931 46.075C34.0931 46.449 34.1774 46.757 34.3461 46.999C34.5221 47.241 34.8008 47.362 35.1821 47.362ZM43.8832 48C43.6338 48 43.4468 47.9377 43.3222 47.813C43.2048 47.6883 43.1462 47.5233 43.1462 47.318C43.1462 47.23 43.1572 47.131 43.1792 47.021L43.2342 46.768H43.2012C42.9665 47.2447 42.7062 47.593 42.4202 47.813C42.1342 48.0257 41.7822 48.132 41.3642 48.132C40.8435 48.132 40.4255 47.9413 40.1102 47.56C39.7948 47.1713 39.6372 46.6397 39.6372 45.965C39.6372 45.547 39.6922 45.118 39.8022 44.678C39.9195 44.2307 40.0918 43.8237 40.3192 43.457C40.5465 43.083 40.8325 42.7787 41.1772 42.544C41.5292 42.3093 41.9398 42.192 42.4092 42.192C42.5778 42.192 42.7428 42.214 42.9042 42.258C43.0655 42.302 43.2122 42.368 43.3442 42.456C43.4762 42.544 43.5898 42.654 43.6852 42.786C43.7805 42.918 43.8502 43.072 43.8942 43.248H43.9382L44.6202 39.86H45.4672L43.9822 47.252H44.7852L44.6422 48H43.8832ZM41.5952 47.362C41.8445 47.362 42.0608 47.3107 42.2442 47.208C42.4348 47.1053 42.6145 46.9697 42.7832 46.801C42.9665 46.6177 43.1168 46.416 43.2342 46.196C43.3515 45.976 43.4395 45.723 43.4982 45.437L43.7292 44.282C43.7658 44.106 43.7695 43.941 43.7402 43.787C43.7108 43.6257 43.6448 43.4863 43.5422 43.369C43.4395 43.2443 43.3002 43.1453 43.1242 43.072C42.9482 42.9987 42.7355 42.962 42.4862 42.962C42.0242 42.962 41.6428 43.1123 41.3422 43.413C41.0415 43.7137 40.8362 44.139 40.7262 44.689L40.5612 45.514C40.5245 45.7193 40.5062 45.9063 40.5062 46.075C40.5062 46.449 40.5905 46.757 40.7592 46.999C40.9352 47.241 41.2138 47.362 41.5952 47.362ZM47.7553 40.993C47.5866 40.993 47.4656 40.9563 47.3923 40.883C47.3263 40.8023 47.2933 40.7107 47.2933 40.608C47.2933 40.586 47.2933 40.5567 47.2933 40.52C47.3006 40.476 47.3153 40.4027 47.3373 40.3C47.3666 40.1607 47.4253 40.0543 47.5133 39.981C47.6086 39.9003 47.7479 39.86 47.9313 39.86C48.0999 39.86 48.2173 39.9003 48.2833 39.981C48.3566 40.0543 48.3933 40.1423 48.3933 40.245C48.3933 40.267 48.3896 40.3 48.3823 40.344C48.3823 40.3807 48.3713 40.4503 48.3493 40.553C48.3199 40.6923 48.2576 40.8023 48.1623 40.883C48.0743 40.9563 47.9386 40.993 47.7553 40.993ZM46.8203 48C46.5636 48 46.3693 47.9377 46.2373 47.813C46.1126 47.681 46.0503 47.5123 46.0503 47.307C46.0503 47.241 46.0613 47.153 46.0833 47.043L47.0293 42.324H47.8763L46.8863 47.252H47.6893L47.5463 48H46.8203ZM48.7856 48L49.9296 42.324H50.7766L50.5456 43.446H50.6006C50.7986 43.0207 51.0333 42.7053 51.3046 42.5C51.5833 42.2947 51.928 42.192 52.3386 42.192C52.83 42.192 53.1966 42.3313 53.4386 42.61C53.6806 42.8887 53.8016 43.2737 53.8016 43.765C53.8016 43.8677 53.7943 43.9813 53.7796 44.106C53.7723 44.2307 53.754 44.3627 53.7246 44.502L53.1746 47.252H53.9776L53.8346 48H53.0316C52.819 48 52.6466 47.9487 52.5146 47.846C52.39 47.7433 52.3276 47.582 52.3276 47.362C52.3276 47.3253 52.3276 47.2923 52.3276 47.263C52.3276 47.2337 52.335 47.1897 52.3496 47.131L52.8776 44.502C52.8996 44.392 52.9143 44.2857 52.9216 44.183C52.929 44.073 52.9326 43.985 52.9326 43.919C52.9326 43.5963 52.863 43.358 52.7236 43.204C52.5916 43.0427 52.3716 42.962 52.0636 42.962C51.6676 42.962 51.3193 43.1123 51.0186 43.413C50.828 43.6037 50.6666 43.831 50.5346 44.095C50.4026 44.359 50.3146 44.6047 50.2706 44.832L49.6326 48H48.7856ZM59.6914 48.407C59.6914 48.6563 59.6437 48.8947 59.5484 49.122C59.453 49.3567 59.2917 49.562 59.0644 49.738C58.837 49.9213 58.5327 50.0643 58.1514 50.167C57.7774 50.277 57.3044 50.332 56.7324 50.332C55.207 50.332 54.4444 49.914 54.4444 49.078C54.4444 48.7847 54.536 48.528 54.7194 48.308C54.91 48.0953 55.1924 47.934 55.5664 47.824L55.5884 47.736C55.2804 47.5967 55.1264 47.3657 55.1264 47.043C55.1264 46.7717 55.218 46.5443 55.4014 46.361C55.592 46.1777 55.8817 46.0457 56.2704 45.965L56.2814 45.888C55.768 45.6167 55.5114 45.14 55.5114 44.458C55.5114 44.1353 55.57 43.8347 55.6874 43.556C55.8047 43.2773 55.9697 43.039 56.1824 42.841C56.395 42.6357 56.648 42.478 56.9414 42.368C57.2347 42.2507 57.5574 42.192 57.9094 42.192C58.3274 42.192 58.6794 42.2727 58.9654 42.434L58.9874 42.302C59.024 42.0747 59.1047 41.895 59.2294 41.763C59.354 41.6237 59.5337 41.554 59.7684 41.554H60.5714L60.4284 42.313H59.4494L59.3614 42.764C59.596 43.0573 59.7134 43.4203 59.7134 43.853C59.7134 44.1757 59.651 44.4727 59.5264 44.744C59.409 45.0153 59.2404 45.2537 59.0204 45.459C58.8077 45.657 58.551 45.8147 58.2504 45.932C57.9497 46.042 57.6197 46.097 57.2604 46.097C57.1797 46.097 57.1064 46.097 57.0404 46.097C56.9817 46.0897 56.912 46.0787 56.8314 46.064C56.5674 46.1153 56.351 46.1923 56.1824 46.295C56.0137 46.3903 55.9294 46.5333 55.9294 46.724C55.9294 46.9953 56.1787 47.131 56.6774 47.131H57.9424C58.573 47.131 59.0204 47.241 59.2844 47.461C59.5557 47.681 59.6914 47.9963 59.6914 48.407ZM58.8114 48.583C58.8114 48.385 58.7454 48.2273 58.6134 48.11C58.4887 47.9927 58.2504 47.934 57.8984 47.934H55.9514C55.5114 48.1247 55.2914 48.4217 55.2914 48.825C55.2914 48.9423 55.3097 49.0487 55.3464 49.144C55.3904 49.2467 55.4564 49.3347 55.5444 49.408C55.6397 49.4813 55.7607 49.5363 55.9074 49.573C56.0614 49.617 56.252 49.639 56.4794 49.639H56.9964C57.6344 49.639 58.0964 49.54 58.3824 49.342C58.6684 49.1513 58.8114 48.8983 58.8114 48.583ZM57.3924 45.426C57.7957 45.426 58.1037 45.3307 58.3164 45.14C58.5364 44.9493 58.6794 44.689 58.7454 44.359C58.782 44.161 58.8077 44.0253 58.8224 43.952C58.837 43.8787 58.8444 43.809 58.8444 43.743C58.8444 43.479 58.76 43.27 58.5914 43.116C58.4227 42.9547 58.1624 42.874 57.8104 42.874C57.407 42.874 57.0954 42.973 56.8754 43.171C56.6627 43.3617 56.5234 43.622 56.4574 43.952C56.4207 44.15 56.395 44.2857 56.3804 44.359C56.3657 44.4323 56.3584 44.502 56.3584 44.568C56.3584 44.832 56.4427 45.041 56.6114 45.195C56.78 45.349 57.0404 45.426 57.3924 45.426ZM61.4743 48.132C61.2983 48.132 61.159 48.0953 61.0563 48.022C60.961 47.9487 60.9133 47.8387 60.9133 47.692C60.9133 47.6407 60.917 47.582 60.9243 47.516C60.9317 47.4427 60.9427 47.3767 60.9573 47.318C60.9867 47.1713 61.049 47.0357 61.1443 46.911C61.247 46.779 61.423 46.713 61.6723 46.713C61.8483 46.713 61.984 46.7497 62.0793 46.823C62.182 46.8963 62.2333 47.0063 62.2333 47.153C62.2333 47.2043 62.2297 47.2667 62.2223 47.34C62.215 47.406 62.204 47.4683 62.1893 47.527C62.1747 47.6003 62.1527 47.6737 62.1233 47.747C62.094 47.8203 62.05 47.8863 61.9913 47.945C61.94 47.9963 61.8703 48.0403 61.7823 48.077C61.7017 48.1137 61.599 48.132 61.4743 48.132ZM64.4821 48.132C64.3061 48.132 64.1668 48.0953 64.0641 48.022C63.9688 47.9487 63.9211 47.8387 63.9211 47.692C63.9211 47.6407 63.9248 47.582 63.9321 47.516C63.9395 47.4427 63.9505 47.3767 63.9651 47.318C63.9945 47.1713 64.0568 47.0357 64.1521 46.911C64.2548 46.779 64.4308 46.713 64.6801 46.713C64.8561 46.713 64.9918 46.7497 65.0871 46.823C65.1898 46.8963 65.2411 47.0063 65.2411 47.153C65.2411 47.2043 65.2375 47.2667 65.2301 47.34C65.2228 47.406 65.2118 47.4683 65.1971 47.527C65.1825 47.6003 65.1605 47.6737 65.1311 47.747C65.1018 47.8203 65.0578 47.8863 64.9991 47.945C64.9478 47.9963 64.8781 48.0403 64.7901 48.077C64.7095 48.1137 64.6068 48.132 64.4821 48.132ZM67.4899 48.132C67.3139 48.132 67.1746 48.0953 67.0719 48.022C66.9766 47.9487 66.9289 47.8387 66.9289 47.692C66.9289 47.6407 66.9326 47.582 66.9399 47.516C66.9473 47.4427 66.9583 47.3767 66.9729 47.318C67.0023 47.1713 67.0646 47.0357 67.1599 46.911C67.2626 46.779 67.4386 46.713 67.6879 46.713C67.8639 46.713 67.9996 46.7497 68.0949 46.823C68.1976 46.8963 68.2489 47.0063 68.2489 47.153C68.2489 47.2043 68.2453 47.2667 68.2379 47.34C68.2306 47.406 68.2196 47.4683 68.2049 47.527C68.1903 47.6003 68.1683 47.6737 68.1389 47.747C68.1096 47.8203 68.0656 47.8863 68.0069 47.945C67.9556 47.9963 67.8859 48.0403 67.7979 48.077C67.7173 48.1137 67.6146 48.132 67.4899 48.132Z" fill="#344E41"/>
<circle cx="45.5" cy="45.5" r="43.5" stroke="url(#paint0_angular_106_343)" stroke-width="4" stroke-linecap="round" stroke-linejoin="round" stroke-dasharray="10 10"/>
<defs>
<radialGradient id="paint0_angular_106_343" cx="0" cy="0" r="1" gradientUnits="userSpaceOnUse" gradientTransform="translate(45.5 45.5) rotate(90) scale(41.5)">
<stop offset="0.451154" stop-color="#344E41" stop-opacity="0"/>
<stop offset="0.497244" stop-color="#344E41"/>
</radialGradient>
</defs>
</svg>
