<svg width="206" height="176" viewBox="0 0 206 176" fill="none" xmlns="http://www.w3.org/2000/svg">
<path d="M100.768 176C155.685 176 200.204 150.297 200.204 118.589C200.204 86.8824 155.685 61.1787 100.768 61.1787C45.8511 61.1787 1.33197 86.8824 1.33197 118.589C1.33197 150.297 45.8511 176 100.768 176Z" fill="#F5F5F5"/>
<path d="M17.9017 139.486L24.526 143.285C24.872 143.462 25.255 143.554 25.6435 143.554C26.032 143.554 26.415 143.462 26.761 143.285L78.9956 113.114C79.608 112.761 79.608 112.188 78.9956 111.84L72.2908 108.072C71.9444 107.896 71.5616 107.805 71.1734 107.805C70.7851 107.805 70.4023 107.896 70.0559 108.072L17.9017 138.207C17.2894 138.56 17.2894 139.133 17.9017 139.486Z" fill="#E0E0E0"/>
<path d="M183.054 139.486L176.429 143.285C176.083 143.461 175.7 143.553 175.312 143.553C174.923 143.553 174.541 143.461 174.194 143.285L121.96 113.114C121.347 112.761 121.352 112.188 121.96 111.84L128.665 108.072C129.011 107.896 129.394 107.805 129.782 107.805C130.17 107.805 130.553 107.896 130.899 108.072L183.054 138.198C183.666 138.56 183.666 139.133 183.054 139.486Z" fill="#E0E0E0"/>
<path d="M177.815 120.694C177.815 120.694 178.137 113.923 181.141 108.483C184.144 103.043 188.52 99.4894 192.784 98.8681C197.049 98.2468 200.772 101.961 196.36 104.974C191.949 107.987 183.983 111.281 180.904 121.66L177.815 120.694Z" fill="#0EA730"/>
<g opacity="0.2">
<path opacity="0.2" d="M177.815 120.694C177.815 120.694 178.137 113.923 181.141 108.483C184.144 103.043 188.52 99.4894 192.784 98.8681C197.049 98.2468 200.772 101.961 196.36 104.974C191.949 107.987 183.983 111.281 180.904 121.66L177.815 120.694Z" fill="black"/>
</g>
<path d="M178.959 118.866H178.91C178.882 118.857 178.855 118.842 178.833 118.822C178.81 118.802 178.791 118.778 178.778 118.751C178.765 118.724 178.757 118.694 178.755 118.664C178.753 118.634 178.757 118.604 178.767 118.576C182.557 107.137 190.862 101.921 194.724 100.759C194.784 100.741 194.848 100.748 194.902 100.777C194.957 100.806 194.997 100.856 195.015 100.915C195.033 100.975 195.026 101.038 194.997 101.093C194.968 101.147 194.918 101.188 194.859 101.206C191.073 102.346 182.933 107.464 179.214 118.732C179.192 118.779 179.155 118.818 179.109 118.842C179.063 118.867 179.011 118.875 178.959 118.866Z" fill="white"/>
<path d="M202.435 118.643C202.086 119.599 201.094 120.154 200.2 120.596C199.306 121.039 198.282 121.513 197.826 122.424C196.932 124.27 198.77 126.657 197.782 128.459C197.546 128.822 197.239 129.134 196.88 129.375C196.52 129.616 196.115 129.782 195.69 129.862C194.988 130.008 194.28 130.119 193.567 130.193C193.227 130.213 192.887 130.213 192.548 130.193C191.56 130.113 190.491 130.139 189.629 130.698C188.288 131.592 187.953 133.38 187.184 134.828C186.708 135.675 186.053 136.408 185.266 136.977C184.479 137.545 183.578 137.936 182.625 138.122C181.994 138.248 180.837 138.44 180.153 138.122C180.104 138.102 180.058 138.076 180.014 138.046C179.92 137.953 179.8 137.832 179.746 137.765C179.692 137.698 179.746 137.738 179.719 137.725C179.406 136.831 179.755 135.834 179.719 134.882C179.719 134.819 179.719 134.766 179.719 134.708C179.603 133.603 179.5 132.508 179.402 131.404C179.217 129.378 179.068 127.347 178.955 125.312C178.883 123.993 178.628 122.558 179.102 121.289C179.634 119.881 181.167 119.751 181.663 118.37C181.86 117.82 181.945 117.239 182.133 116.685C182.43 115.869 182.946 115.151 183.624 114.608C184.302 114.066 185.116 113.721 185.977 113.61C188.659 113.297 191.202 115.308 193.871 114.951C194.563 114.848 195.212 114.593 195.9 114.423C198.05 113.874 200.602 114.325 201.948 116.086C202.228 116.442 202.419 116.86 202.504 117.305C202.589 117.75 202.565 118.209 202.435 118.643Z" fill="#0EA730"/>
<path d="M179.192 133.492H179.169C179.11 133.48 179.058 133.445 179.024 133.395C178.991 133.344 178.979 133.283 178.991 133.224C181.784 119.063 196.316 116.086 199.762 116.109C199.822 116.111 199.88 116.136 199.922 116.179C199.965 116.223 199.989 116.28 199.99 116.341C199.99 116.371 199.984 116.401 199.972 116.429C199.96 116.457 199.943 116.483 199.922 116.504C199.9 116.525 199.874 116.542 199.846 116.553C199.818 116.564 199.788 116.57 199.757 116.569C196.387 116.547 182.173 119.456 179.442 133.313C179.43 133.369 179.398 133.418 179.352 133.451C179.305 133.484 179.248 133.499 179.192 133.492Z" fill="white"/>
<path d="M195.015 125.37C194.969 125.363 194.925 125.343 194.89 125.312C193.459 124.227 191.807 123.472 190.05 123.1C188.294 122.727 186.478 122.747 184.73 123.157C184.7 123.164 184.67 123.164 184.641 123.159C184.611 123.154 184.583 123.143 184.557 123.127C184.532 123.11 184.51 123.089 184.493 123.065C184.476 123.04 184.464 123.012 184.457 122.983C184.451 122.954 184.45 122.923 184.455 122.894C184.461 122.864 184.472 122.836 184.488 122.81C184.504 122.785 184.525 122.763 184.55 122.746C184.574 122.729 184.602 122.717 184.632 122.71C186.45 122.286 188.341 122.268 190.167 122.659C191.994 123.049 193.711 123.837 195.198 124.968C195.234 125.001 195.259 125.044 195.269 125.093C195.279 125.141 195.273 125.191 195.253 125.235C195.232 125.28 195.198 125.317 195.156 125.341C195.113 125.365 195.064 125.375 195.015 125.37Z" fill="white"/>
<path d="M22.5057 119.184C22.2673 116.269 21.5954 113.407 20.5121 110.691C18.7242 106.319 15.336 101.912 11.416 101.081C7.49591 100.249 5.82866 102.891 6.65558 105.484C7.37076 107.718 10.2851 109.569 12.4977 111.518C14.7102 113.467 18.8449 118.173 19.9936 122.724L22.2062 122.965L22.5057 119.184Z" fill="#0EA730"/>
<g opacity="0.15">
<path opacity="0.15" d="M22.5057 119.184C22.2673 116.269 21.5954 113.407 20.5121 110.691C18.7242 106.319 15.336 101.912 11.416 101.081C7.49591 100.249 5.82866 102.891 6.65558 105.484C7.37076 107.718 10.2851 109.569 12.4977 111.518C14.7102 113.467 18.8449 118.173 19.9936 122.724L22.2062 122.965L22.5057 119.184Z" fill="black"/>
</g>
<path d="M20.9948 121.235C20.9315 121.234 20.8709 121.209 20.8252 121.165C20.7796 121.121 20.7524 121.061 20.749 120.998C20.3377 109.56 9.15419 103.168 9.03797 103.119C8.9787 103.087 8.93457 103.032 8.91529 102.968C8.89601 102.903 8.90316 102.834 8.93517 102.774C8.96717 102.715 9.02142 102.671 9.08597 102.652C9.15051 102.632 9.22007 102.64 9.27935 102.672C9.39556 102.739 20.8205 109.269 21.2451 120.998C21.2463 121.064 21.2217 121.127 21.1766 121.175C21.1314 121.222 21.0694 121.25 21.0038 121.253L20.9948 121.235Z" fill="white"/>
<path d="M21.1245 136.866C21.1245 136.866 18.8359 138.31 15.2645 137.698C14.1102 137.546 13.0334 137.033 12.1893 136.231C11.2685 135.279 11.121 134.323 10.8483 133.049C10.7776 132.517 10.5947 132.007 10.3119 131.551C9.54313 130.497 8.01444 130.514 6.73606 130.242C4.94812 129.853 3.26746 128.552 2.74449 126.782C2.22151 125.012 3.07078 122.849 4.78274 122.151L2.68191 120.81C2.03165 120.428 1.43112 119.968 0.893969 119.438C0.355353 118.897 0.03677 118.176 0 117.413C0.0339242 116.854 0.225266 116.317 0.551924 115.862C0.878582 115.407 1.32723 115.054 1.84605 114.843C2.89342 114.441 4.02894 114.326 5.13585 114.508C6.25509 114.641 7.35568 114.901 8.41672 115.281C8.70612 115.413 9.01966 115.483 9.33751 115.487C9.75857 115.416 10.1525 115.232 10.4773 114.955C12.8821 113.368 16.7977 113.489 18.0761 116.479C18.2683 116.926 18.38 117.373 18.5812 117.82C19.3321 119.429 21.4329 118.947 22.7873 119.697C23.2161 119.966 23.5802 120.326 23.8537 120.752C24.1273 121.178 24.3034 121.659 24.3696 122.16C24.6378 123.756 24.1953 125.571 23.9226 127.149C23.65 128.727 23.2566 130.188 22.8275 131.681C22.4789 132.915 22.0945 134.135 21.6832 135.346C21.567 135.619 21.3748 136.705 21.1245 136.866Z" fill="#0EA730"/>
<path d="M22.5459 133.178C21.3453 129.881 19.3764 126.918 16.8021 124.534C16.7756 124.478 16.7295 124.433 16.6725 124.409C15.9307 123.712 15.1534 123.054 14.3437 122.437C14.0401 120.318 14.3135 118.157 15.1349 116.18C15.1487 116.15 15.1566 116.118 15.1581 116.086C15.1596 116.054 15.1547 116.021 15.1437 115.991C15.1327 115.96 15.1158 115.932 15.094 115.908C15.0721 115.884 15.0458 115.865 15.0164 115.851C14.9871 115.837 14.9553 115.829 14.9229 115.828C14.8905 115.826 14.8581 115.831 14.8276 115.842C14.7971 115.853 14.7691 115.87 14.7451 115.892C14.7211 115.914 14.7017 115.94 14.6879 115.97C13.8812 117.88 13.5736 119.964 13.7939 122.026C10.5014 119.653 6.84922 117.824 2.97691 116.609C2.94579 116.6 2.91324 116.598 2.88118 116.602C2.84912 116.606 2.81821 116.616 2.79028 116.633C2.76235 116.649 2.73797 116.67 2.71859 116.696C2.6992 116.722 2.6852 116.752 2.67743 116.783C2.66863 116.814 2.66605 116.846 2.66986 116.878C2.67366 116.91 2.68376 116.941 2.69957 116.968C2.71538 116.996 2.73659 117.021 2.76195 117.04C2.78731 117.06 2.81632 117.074 2.84728 117.083C2.95009 117.114 9.92752 119.09 15.6847 124.167C12.1535 123.546 7.93397 125.253 7.74177 125.334C7.6887 125.355 7.64477 125.395 7.61755 125.445C7.59032 125.495 7.58151 125.553 7.59263 125.61C7.60375 125.666 7.63411 125.716 7.67847 125.752C7.72283 125.789 7.77841 125.808 7.83563 125.808C7.8666 125.814 7.89853 125.814 7.9295 125.808C7.97867 125.785 12.9313 123.783 16.4222 124.869C18.9586 127.208 20.8989 130.12 22.081 133.362C22.0983 133.41 22.1298 133.451 22.1714 133.481C22.2129 133.51 22.2625 133.526 22.3135 133.527H22.3939C22.4285 133.517 22.4603 133.499 22.4873 133.475C22.5143 133.451 22.5357 133.421 22.5502 133.388C22.5646 133.355 22.5717 133.319 22.571 133.283C22.5702 133.247 22.5617 133.211 22.5459 133.178Z" fill="white"/>
<path d="M14.6253 47.7959C14.0106 48.4936 13.2158 49.0085 12.3278 49.2844L12.2339 49.3067H12.1624L12.006 49.3335H11.8272H11.711C11.6934 49.3381 11.6749 49.3381 11.6573 49.3335C11.3008 49.335 10.952 49.2298 10.6557 49.0314C10.3594 48.8331 10.1291 48.5507 9.99454 48.2206C9.86613 47.9267 9.78468 47.6145 9.75317 47.2953C9.89174 47.2327 10.0303 47.1567 10.1733 47.0763C11.2045 46.4038 12.0625 45.4976 12.6776 44.4312C13.2927 43.3649 13.6476 42.1685 13.7135 40.9392C13.7135 40.7693 13.7135 40.6084 13.7135 40.4609C14.1039 40.2749 14.5326 40.1831 14.965 40.1927H15.041H15.1036C15.1257 40.1884 15.1485 40.1884 15.1706 40.1927C15.4774 40.2389 15.7669 40.3642 16.0107 40.5562C16.2544 40.7482 16.444 41.0004 16.5608 41.2878C17.2893 42.9998 16.4311 45.8918 14.6253 47.7959Z" fill="#0EA730"/>
<path d="M21.1736 42.4231C21.1387 42.4063 21.1006 42.3972 21.0619 42.3963L19.551 42.3113C19.518 42.3125 19.4851 42.3071 19.4542 42.2953C19.4233 42.2834 19.3952 42.2655 19.3714 42.2426C19.3476 42.2196 19.3287 42.1921 19.3158 42.1617C19.3029 42.1313 19.2962 42.0985 19.2963 42.0655C19.3186 41.8241 19.3276 41.5872 19.332 41.3593C19.3339 41.1085 19.322 40.8578 19.2963 40.6083C19.301 40.4445 19.3608 40.287 19.4661 40.1613L21.1512 38.1142C21.2025 38.0585 21.2389 37.9908 21.2569 37.9173C21.2748 37.8438 21.2739 37.767 21.2541 37.694L20.454 35.906C20.4437 35.8834 20.4265 35.8646 20.4048 35.8524C20.3586 35.837 20.3087 35.8364 20.2622 35.8509C20.2157 35.8653 20.1749 35.894 20.1455 35.9329L18.3576 37.5778C18.3096 37.6323 18.2444 37.6686 18.1728 37.6808C18.1012 37.693 18.0276 37.6803 17.9642 37.6448C17.7325 37.4571 17.4732 37.3064 17.1954 37.1978C17.1334 37.1749 17.0813 37.1312 17.0479 37.0741C17.0145 37.0171 17.0019 36.9502 17.0122 36.8849L17.5664 34.3595C17.575 34.3255 17.5722 34.2896 17.5585 34.2573C17.5447 34.225 17.5209 34.1981 17.4904 34.1807C17.4388 34.1567 17.3816 34.1474 17.3251 34.1539L15.5371 34.3282C15.456 34.3381 15.3786 34.3678 15.3116 34.4145C15.2446 34.4613 15.19 34.5237 15.1527 34.5964L14.1962 37.1621C14.1132 37.3253 13.9778 37.4559 13.8118 37.5331C13.4279 37.7131 13.06 37.9254 12.7122 38.1678C12.5602 38.2661 12.3948 38.2751 12.3322 38.1678L11.4383 36.7866C11.3757 36.6883 11.2282 36.7106 11.112 36.8313L9.17653 38.8785C9.12085 38.9333 9.07827 38.9999 9.05195 39.0734C9.02564 39.147 9.01627 39.2255 9.02455 39.3031L9.5654 41.1268C9.58807 41.2828 9.55311 41.4417 9.46707 41.5738C9.1393 42.07 8.84081 42.5849 8.5731 43.1159C8.4785 43.2713 8.32825 43.3848 8.15293 43.4333L6.49462 43.8311C6.41187 43.8501 6.33476 43.8883 6.26953 43.9427C6.2043 43.9971 6.15278 44.066 6.11915 44.144L5.28329 46.951C5.27449 46.9817 5.27325 47.014 5.27971 47.0452C5.28616 47.0764 5.3001 47.1056 5.32033 47.1302C5.34056 47.1548 5.36648 47.1742 5.39584 47.1866C5.42521 47.199 5.45714 47.204 5.4889 47.2014L7.00418 47.2908C7.03737 47.2889 7.07058 47.2939 7.10174 47.3055C7.13289 47.3171 7.16132 47.335 7.18524 47.358C7.20916 47.3811 7.22805 47.4089 7.24074 47.4396C7.25343 47.4703 7.25963 47.5034 7.25896 47.5366C7.21654 48.0214 7.21654 48.509 7.25896 48.9938C7.25782 49.1567 7.20105 49.3144 7.09805 49.4407L5.40845 51.4879C5.35715 51.5435 5.32081 51.6113 5.30283 51.6848C5.28485 51.7582 5.28582 51.8351 5.30564 51.9081L6.10574 53.696C6.11725 53.7191 6.13411 53.739 6.15491 53.7541C6.17526 53.7607 6.19714 53.7607 6.21749 53.7541C6.29251 53.7487 6.36272 53.7152 6.41416 53.6603L8.2021 52.0109C8.25067 51.9571 8.31618 51.9216 8.38773 51.9102C8.45929 51.8988 8.53259 51.9123 8.59545 51.9483C8.8266 52.1369 9.08606 52.2877 9.36426 52.3953C9.42712 52.4184 9.4799 52.4628 9.51338 52.5208C9.54687 52.5788 9.55895 52.6467 9.54752 52.7127L8.98879 55.2381C8.98231 55.2708 8.98614 55.3047 8.99975 55.3352C9.01336 55.3656 9.03608 55.391 9.06478 55.408C9.11512 55.4359 9.17311 55.4469 9.23017 55.4393L11.0181 55.265C11.0992 55.255 11.1766 55.2254 11.2436 55.1786C11.3106 55.1319 11.3652 55.0694 11.4025 54.9968L12.3591 52.4311C12.4429 52.2674 12.5779 52.1356 12.7435 52.0556C12.9366 51.9679 13.1246 51.8694 13.3067 51.7606C13.481 51.6578 13.6598 51.546 13.8386 51.4254C14.0174 51.3047 14.1515 51.3181 14.214 51.4254L15.108 52.8021C15.1194 52.8189 15.1348 52.8327 15.1527 52.8423C15.2242 52.8915 15.3404 52.8423 15.4343 52.7574L17.3698 50.7146C17.4291 50.6579 17.4736 50.5875 17.4993 50.5096C17.525 50.4316 17.5312 50.3486 17.5173 50.2677L16.9809 48.4395C16.9542 48.2834 16.9895 48.123 17.0792 47.9925C17.4096 47.4964 17.7082 46.9799 17.9732 46.4459C18.023 46.3666 18.0883 46.298 18.165 46.2443C18.2418 46.1905 18.3285 46.1527 18.4202 46.1331L20.074 45.7352C20.1568 45.7162 20.2339 45.678 20.2991 45.6236C20.3643 45.5693 20.4159 45.5003 20.4495 45.4224L21.2853 42.6153C21.2889 42.5756 21.2801 42.5358 21.2601 42.5014C21.2401 42.467 21.2098 42.4396 21.1736 42.4231ZM12.3322 49.2843L12.2339 49.3067H12.1624L12.0059 49.3335H11.8227H11.6573C11.3002 49.3345 10.951 49.2287 10.6547 49.0295C10.3583 48.8303 10.1284 48.547 9.99451 48.216C9.8656 47.9223 9.78413 47.61 9.75314 47.2908C9.73506 47.12 9.7261 46.9484 9.72632 46.7767C9.83457 44.8981 10.6096 43.1197 11.9121 41.7615C12.3056 41.3393 12.7571 40.9751 13.253 40.6798C13.3974 40.5951 13.5466 40.5189 13.7 40.4519C14.0915 40.2693 14.5197 40.1791 14.9516 40.1882H15.0276H15.0901H15.1617C15.4677 40.2351 15.7562 40.3607 15.9991 40.5527C16.242 40.7446 16.4309 40.9964 16.5473 41.2833C17.2938 42.9371 16.4356 45.8246 14.6297 47.7333C14.024 48.455 13.2281 48.9923 12.3322 49.2843Z" fill="#F5F5F5"/>
<path d="M14.1783 37.1758C14.09 37.3301 13.9578 37.4546 13.7984 37.5334C13.4186 37.713 13.0552 37.9254 12.7122 38.1681C12.5602 38.2664 12.3948 38.2753 12.3323 38.1681L11.4383 36.7914C11.428 36.7736 11.4123 36.7595 11.3936 36.7511L9.69952 35.7722C9.8816 35.6634 10.0696 35.565 10.2627 35.4772L10.3253 35.4415C10.3921 35.3998 10.4536 35.3503 10.5086 35.294L10.5756 35.2224C10.5905 35.2068 10.6026 35.1886 10.6114 35.1688L10.6382 35.1196L14.1783 37.1758Z" fill="#EBEBEB"/>
<path d="M9.58332 41.194C9.5863 41.3299 9.54897 41.4637 9.47604 41.5784C9.14905 42.0751 8.85058 42.5899 8.58207 43.1205C8.55993 43.1648 8.53131 43.2054 8.49714 43.2412L4.92126 41.1806C4.94021 41.1635 4.95675 41.144 4.97043 41.1225C4.98821 41.1038 5.00326 41.0828 5.01513 41.0599C5.28012 40.526 5.57871 40.0094 5.9091 39.5133C5.92673 39.4881 5.94171 39.4612 5.9538 39.4329C5.9538 39.4329 5.9538 39.3971 5.9538 39.3793C5.95574 39.3689 5.95574 39.3583 5.9538 39.348C5.95538 39.3227 5.95538 39.2973 5.9538 39.272C5.9603 39.2335 5.9603 39.1942 5.9538 39.1558L9.58332 41.194Z" fill="#EBEBEB"/>
<path d="M9.67268 35.7675L7.82216 34.6947C7.79786 34.6801 7.77005 34.6724 7.74171 34.6724C7.70255 34.6752 7.66443 34.6863 7.62979 34.7047C7.59515 34.7232 7.56476 34.7487 7.54056 34.7796L6.38287 36.0044L5.60512 36.8224C5.54152 36.8915 5.49418 36.974 5.46655 37.0637L8.18869 38.6282L9.03349 39.1109C9.06225 39.028 9.10791 38.9519 9.16759 38.8874L9.19441 38.8606L11.103 36.8402C11.1341 36.8006 11.1759 36.7707 11.2234 36.7541C11.2709 36.7375 11.3222 36.7348 11.3712 36.7464L9.67268 35.7675Z" fill="#F5F5F5"/>
<path d="M17.4413 34.1762C17.3945 34.152 17.341 34.1442 17.2893 34.1538L15.5014 34.3281C15.3927 34.3408 15.2909 34.3878 15.2108 34.4622L11.6349 32.4061C11.7135 32.3286 11.8158 32.2798 11.9255 32.2675L13.7134 32.0932C13.7734 32.0836 13.8349 32.0946 13.8878 32.1245L14.3616 32.4016L14.5985 32.5357L16.1093 33.4297L16.4803 33.6443L16.7529 33.8007L17.4413 34.1762Z" fill="#F5F5F5"/>
<path d="M8.47476 43.2588C8.38248 43.3508 8.26883 43.4184 8.14399 43.4555L6.48568 43.8533C6.36471 43.8822 6.25645 43.9497 6.17726 44.0455L2.60138 41.9939C2.68262 41.8933 2.79378 41.8213 2.91874 41.7883L4.57705 41.3904C4.70092 41.3595 4.81288 41.2926 4.89888 41.1982L8.47476 43.2588Z" fill="#E6E6E6"/>
<path d="M7.2143 49.1992C7.18473 49.2876 7.14095 49.3707 7.08467 49.445L5.39507 51.4922C5.34635 51.5532 5.30992 51.623 5.28779 51.6978L1.71191 49.6372C1.73026 49.5596 1.76706 49.4875 1.81919 49.4272L3.50879 47.38C3.56504 47.3089 3.60887 47.2288 3.63842 47.1431L7.2143 49.1992Z" fill="#E6E6E6"/>
<path d="M2.64162 45.601L2.69079 45.6323L2.62821 45.592L2.50305 45.5205L2.64162 45.601Z" fill="#E0E0E0"/>
<path d="M14.6253 47.7959C14.0106 48.4936 13.2158 49.0085 12.3278 49.2844L12.2339 49.3067H12.1624L12.006 49.3335H11.8272H11.711C11.6934 49.3381 11.6749 49.3381 11.6573 49.3335C11.3008 49.335 10.952 49.2298 10.6557 49.0314C10.3594 48.8331 10.1291 48.5507 9.99454 48.2206C9.86613 47.9267 9.78468 47.6145 9.75317 47.2953C9.89174 47.2327 10.0303 47.1567 10.1733 47.0763C11.2045 46.4038 12.0625 45.4976 12.6776 44.4312C13.2927 43.3649 13.6476 42.1685 13.7135 40.9392C13.7135 40.7693 13.7135 40.6084 13.7135 40.4609C14.1039 40.2749 14.5326 40.1831 14.965 40.1927H15.041H15.1036C15.1257 40.1884 15.1485 40.1884 15.1706 40.1927C15.4774 40.2389 15.7669 40.3642 16.0107 40.5562C16.2544 40.7482 16.444 41.0004 16.5608 41.2878C17.2893 42.9998 16.4311 45.8918 14.6253 47.7959Z" fill="#E0E0E0"/>
<path d="M9.58329 41.1941L6.00741 39.138C6.01175 39.1158 6.01175 39.0931 6.00741 39.0709L5.46656 37.2472C5.4493 37.1874 5.4493 37.1238 5.46656 37.064L8.1887 38.6284L9.0335 39.1112C9.0145 39.1769 9.0145 39.2466 9.0335 39.3123L9.57435 41.136C9.57982 41.1549 9.58283 41.1744 9.58329 41.1941Z" fill="#E0E0E0"/>
<path d="M15.2332 34.4625C15.1927 34.4999 15.1607 34.5456 15.1394 34.5965L14.1828 37.1622L10.6069 35.1016L11.5769 32.5315C11.5956 32.4804 11.6281 32.4356 11.6708 32.4019L15.2332 34.4625Z" fill="#E0E0E0"/>
<path d="M20.3735 35.8477C20.3287 35.8379 20.282 35.8407 20.2387 35.8557C20.1953 35.8707 20.1569 35.8973 20.1277 35.9326L18.3397 37.582C18.2905 37.6361 18.2246 37.6722 18.1524 37.6843C18.0803 37.6965 18.0061 37.6841 17.9419 37.649C17.7102 37.4613 17.4508 37.3106 17.1731 37.202C17.1111 37.1791 17.059 37.1354 17.0256 37.0783C16.9921 37.0213 16.9795 36.9544 16.9898 36.8892L17.5441 34.3637C17.5534 34.3297 17.551 34.2935 17.5372 34.2611C17.5234 34.2286 17.4991 34.2018 17.4681 34.1849L16.7932 33.7916C16.8138 33.7869 16.8351 33.7869 16.8557 33.7916L16.896 33.8184L20.3735 35.8477Z" fill="#E0E0E0"/>
<path d="M21.1646 42.4184C21.1297 42.4016 21.0916 42.3925 21.0529 42.3916L19.5421 42.3066C19.509 42.3078 19.4761 42.3024 19.4452 42.2906C19.4144 42.2787 19.3862 42.2608 19.3624 42.2379C19.3386 42.2149 19.3197 42.1874 19.3068 42.157C19.2939 42.1266 19.2873 42.0939 19.2873 42.0608C19.3096 41.8194 19.3231 41.5825 19.3231 41.3501L21.1646 42.4184Z" fill="#E0E0E0"/>
<path d="M4.95668 41.1226C4.94309 41.1439 4.92666 41.1633 4.90784 41.1803C4.92637 41.1631 4.94277 41.1437 4.95668 41.1226Z" fill="#E0E0E0"/>
<path d="M2.60582 41.9761C2.58134 42.0088 2.56176 42.045 2.54771 42.0833L2.44491 42.432L1.89958 44.2646L1.71632 44.8904C1.7054 44.9238 1.7054 44.9598 1.71632 44.9932C1.72102 45.0135 1.72855 45.0331 1.73867 45.0513C1.75243 45.0673 1.76737 45.0823 1.78337 45.096H1.81019L2.09179 45.2614L2.16778 45.3016L2.39127 45.4268L2.50748 45.4983L2.64605 45.5788L2.69522 45.6101L2.84272 45.6905L3.6473 46.1375L5.34584 47.1209C5.31179 47.0991 5.28587 47.0667 5.27213 47.0287C5.25839 46.9907 5.25759 46.9493 5.26985 46.9108L6.00737 44.4926L6.11018 44.1439C6.12563 44.1016 6.14832 44.0623 6.17723 44.0277L2.60582 41.9761Z" fill="#E0E0E0"/>
<path d="M15.1572 52.847L13.3022 51.7519C13.4766 51.649 13.6554 51.5373 13.8342 51.4166C14.013 51.2959 14.147 51.3093 14.2096 51.4166L15.1036 52.7978C15.1162 52.8191 15.1349 52.8362 15.1572 52.847Z" fill="#E0E0E0"/>
<path d="M9.58331 52.7124L9.02458 55.2424C9.0181 55.275 9.02192 55.309 9.03554 55.3394C9.04915 55.3698 9.07187 55.3953 9.10057 55.4122L6.23987 53.7584C6.31425 53.7505 6.38368 53.7174 6.43654 53.6645L8.22448 52.0196C8.27238 51.9651 8.3373 51.9283 8.4087 51.9153C8.48011 51.9024 8.5538 51.9139 8.61783 51.9481C8.848 52.138 9.1077 52.289 9.38664 52.3951C9.45252 52.4148 9.5089 52.458 9.54513 52.5165C9.58136 52.5749 9.59495 52.6446 9.58331 52.7124Z" fill="#E0E0E0"/>
<path d="M7.24553 48.9981C7.25071 49.0667 7.24001 49.1355 7.21424 49.1993L3.63837 47.1432C3.66211 47.0773 3.67274 47.0075 3.66966 46.9375C3.66966 46.6917 3.63837 46.4414 3.63837 46.1821L5.33691 47.1655C5.37412 47.1853 5.41547 47.196 5.45759 47.1968L6.97287 47.2817C7.00628 47.2805 7.03959 47.2861 7.07076 47.2982C7.10192 47.3103 7.1303 47.3286 7.15415 47.352C7.17799 47.3755 7.19681 47.4035 7.20945 47.4345C7.22209 47.4654 7.22828 47.4986 7.22765 47.532C7.19066 48.0203 7.19664 48.5109 7.24553 48.9981Z" fill="#E0E0E0"/>
<path d="M6.13703 53.7362L5.41291 53.316L5.27435 53.2401L4.10771 52.5606L3.79036 52.3818L2.59244 51.6846C2.58168 51.6796 2.57243 51.6719 2.56562 51.6622C2.55512 51.6525 2.54741 51.6401 2.54327 51.6264L1.7387 49.8385C1.72268 49.7906 1.72268 49.7389 1.7387 49.691C1.7387 49.691 1.7387 49.6508 1.7387 49.6284L5.31457 51.689C5.2896 51.7568 5.2896 51.8313 5.31457 51.8991L6.11468 53.687C6.11883 53.7047 6.12642 53.7214 6.13703 53.7362Z" fill="#E0E0E0"/>
<path d="M26.2736 6.35583C26.1566 6.57157 25.9732 6.74395 25.7507 6.84751C25.2296 7.09689 24.7289 7.38684 24.2533 7.71466C24.0477 7.85323 23.8063 7.86664 23.7303 7.71466L22.4966 5.82392C22.4812 5.79772 22.4577 5.77731 22.4296 5.76581L21.2048 5.05063C21.4641 4.90313 21.7189 4.76456 21.9736 4.64835L22.063 4.59918C22.1549 4.54332 22.239 4.4757 22.3134 4.39803C22.3481 4.36709 22.3796 4.33264 22.4072 4.29523C22.4264 4.2751 22.443 4.25256 22.4564 4.22818L22.4921 4.16113L26.2736 6.35583Z" fill="#EBEBEB"/>
<path d="M19.931 11.8762C19.9353 12.0613 19.8839 12.2435 19.7835 12.3992C19.3343 13.0824 18.9253 13.7914 18.5587 14.5223C18.527 14.5818 18.4863 14.6361 18.4381 14.6832L14.6342 12.4886C14.6616 12.4651 14.6856 12.438 14.7057 12.4081C14.7271 12.3812 14.7465 12.3528 14.7638 12.3232C15.1233 11.5835 15.5309 10.8683 15.9841 10.1821C16.0087 10.1494 16.0283 10.1133 16.0422 10.0748C16.058 10.0504 16.0686 10.023 16.0735 9.99438C16.0759 9.98108 16.0759 9.96745 16.0735 9.95415C16.0735 9.91839 16.0735 9.88263 16.0735 9.85134C16.0843 9.79825 16.0843 9.74352 16.0735 9.69043L19.931 11.8762Z" fill="#EBEBEB"/>
<path d="M21.2049 5.05069L18.6615 3.58012C18.6292 3.56039 18.5922 3.5496 18.5543 3.54883C18.4991 3.55266 18.4452 3.56772 18.396 3.59308C18.3468 3.61844 18.3033 3.65358 18.2682 3.69633L16.6769 5.37699L15.6086 6.50339C15.5216 6.59961 15.4575 6.71419 15.4209 6.83863L18.0626 8.34944L19.2247 9.01545C19.262 8.90022 19.3246 8.79483 19.408 8.70703L19.4438 8.67127L22.0676 5.8955C22.1096 5.84084 22.1666 5.79952 22.2317 5.77652C22.2967 5.75352 22.367 5.74982 22.4341 5.76587L21.2049 5.05069Z" fill="#F5F5F5"/>
<path d="M30.7614 2.23468C30.6956 2.20496 30.6229 2.19412 30.5513 2.20339L28.1242 2.44476C27.9762 2.46443 27.8375 2.5283 27.7264 2.62802L23.9225 0.433331C24.0338 0.330429 24.1745 0.264802 24.3248 0.245595L26.752 0.00422605C26.8337 -0.00837472 26.9173 0.00739906 26.9889 0.0489238L27.6415 0.42886L27.9633 0.616593L28.9422 1.18427L29.4562 1.48374C29.5858 1.55079 29.711 1.62678 29.8272 1.69383L30.7614 2.23468Z" fill="#F5F5F5"/>
<path d="M18.4381 14.6879C18.3162 14.8162 18.1617 14.9089 17.9911 14.9561L15.7114 15.5058C15.5474 15.5476 15.4014 15.6418 15.2958 15.774L11.483 13.5838C11.5967 13.4431 11.7539 13.3441 11.93 13.3022L14.2051 12.7569C14.3751 12.7108 14.5295 12.6197 14.6521 12.4932L18.4381 14.6879Z" fill="#E6E6E6"/>
<path d="M16.7082 22.8763C16.6688 22.9986 16.6066 23.1124 16.525 23.2116L14.2096 26.0231C14.1415 26.1058 14.0913 26.2017 14.0621 26.3047L10.2627 24.11C10.2883 24.0051 10.3372 23.9074 10.4057 23.8239L12.7301 21.0124C12.808 20.9138 12.8671 20.8017 12.9044 20.6816L16.7082 22.8763Z" fill="#E6E6E6"/>
<path d="M11.5187 18.5633L11.5902 18.608L11.5008 18.5544L11.331 18.4561L11.5187 18.5633Z" fill="#E0E0E0"/>
<path d="M26.886 20.9499C26.0495 21.9042 24.9673 22.6107 23.7571 22.9926L23.623 23.0239C23.5919 23.028 23.5603 23.028 23.5291 23.0239L23.3146 23.0597C23.2317 23.073 23.1481 23.082 23.0643 23.0865H22.8318C22.3415 23.0911 21.8612 22.9472 21.4542 22.6735C21.0473 22.3998 20.7328 22.0093 20.5522 21.5533C20.3747 21.1488 20.2616 20.7189 20.217 20.2794C20.4047 20.1945 20.5969 20.0917 20.7936 19.9844C23.4755 18.4289 25.6613 14.6563 25.6613 11.5498C25.6613 11.3174 25.6613 11.1028 25.6344 10.8883C26.171 10.6369 26.7585 10.513 27.3509 10.5262H27.4581H27.5431C27.5742 10.5219 27.6058 10.5219 27.6369 10.5262C28.0586 10.5877 28.4568 10.7588 28.7917 11.0223C29.1267 11.2859 29.3866 11.6327 29.5456 12.0281C30.5513 14.3569 29.3712 18.3306 26.886 20.9499Z" fill="#E0E0E0"/>
<path d="M19.9309 11.8764L16.1271 9.68616C16.1316 9.65654 16.1316 9.62639 16.1271 9.59677L15.394 7.08918C15.3702 7.00745 15.3702 6.9206 15.394 6.83887L18.0357 8.34968L19.1979 9.01568C19.1636 9.10383 19.1543 9.19973 19.1711 9.29282L19.9131 11.7959C19.9238 11.8215 19.9298 11.8487 19.9309 11.8764Z" fill="#E0E0E0"/>
<path d="M27.7264 2.6281C27.6695 2.68008 27.6252 2.74426 27.5967 2.81583L26.2826 6.33808L22.4788 4.14338C22.4788 4.14338 22.4788 4.14338 22.4788 4.11656L23.7929 0.594322C23.8192 0.525298 23.8622 0.463869 23.9181 0.415527L27.7264 2.6281Z" fill="#E0E0E0"/>
<path d="M34.7887 4.53218C34.7258 4.51856 34.6603 4.52263 34.5996 4.54393C34.5388 4.56523 34.4851 4.60294 34.4445 4.65287L31.9727 6.91461C31.905 6.98849 31.8144 7.03746 31.7155 7.05367C31.6166 7.06989 31.5151 7.05239 31.4274 7.00401C31.1096 6.74412 30.7518 6.53733 30.368 6.39164C30.2808 6.35782 30.2082 6.29471 30.1625 6.21314C30.1168 6.13157 30.101 6.03663 30.1177 5.94465L30.882 2.48052C30.8947 2.43345 30.891 2.38346 30.8715 2.33877C30.852 2.29408 30.8179 2.25737 30.7748 2.23468L29.8271 1.68936C29.8581 1.68297 29.8901 1.68297 29.921 1.68936L29.9747 1.72065L34.7887 4.53218Z" fill="#E0E0E0"/>
<path d="M35.875 13.5613C35.8281 13.5369 35.7758 13.5246 35.723 13.5256L33.6445 13.4094C33.5988 13.4106 33.5533 13.4025 33.5107 13.3857C33.4682 13.3689 33.4294 13.3437 33.3969 13.3115C33.3643 13.2794 33.3386 13.241 33.3212 13.1987C33.3039 13.1563 33.2953 13.1109 33.2959 13.0652C33.3227 12.7389 33.3406 12.4126 33.3406 12.0952L35.875 13.5613Z" fill="#E0E0E0"/>
<path d="M14.7053 12.417C14.6853 12.4467 14.6614 12.4736 14.6342 12.4969L14.7053 12.417Z" fill="#E0E0E0"/>
<path d="M11.474 13.5835C11.4275 13.6334 11.3924 13.6929 11.3712 13.7578L11.2505 14.2048L10.5041 16.7213L10.2493 17.584C10.2336 17.6289 10.2336 17.6777 10.2493 17.7226C10.253 17.7502 10.2638 17.7764 10.2806 17.7986C10.2963 17.8225 10.3159 17.8437 10.3387 17.8611C10.3504 17.8724 10.364 17.8814 10.3789 17.888L10.7589 18.1115L10.8661 18.1696L11.1701 18.3439L11.3355 18.4422L11.5232 18.5495L11.5947 18.5942L11.7959 18.7059L12.9044 19.3451L14.1425 20.0603C14.0954 20.0303 14.0597 19.9854 14.0411 19.9327C14.0225 19.8801 14.022 19.8227 14.0397 19.7698L15.0454 16.3861L15.1885 15.9123C15.2056 15.8515 15.2379 15.7962 15.2823 15.7514L11.474 13.5835Z" fill="#E0E0E0"/>
<path d="M27.6192 27.8826L25.0714 26.403C25.3083 26.2645 25.5586 26.108 25.7999 25.9561C26.0413 25.8041 26.2469 25.8086 26.3184 25.9561L27.5566 27.8513C27.5757 27.8649 27.5968 27.8755 27.6192 27.8826Z" fill="#E0E0E0"/>
<path d="M19.931 27.7039L19.1667 31.1904C19.155 31.2357 19.1587 31.2836 19.1774 31.3265C19.196 31.3695 19.2284 31.4049 19.2695 31.4273C19.113 31.3424 16.7172 29.9523 15.336 29.1522C15.437 29.1421 15.5316 29.098 15.6042 29.027L18.076 26.7474C18.1429 26.6738 18.2324 26.6247 18.3303 26.6077C18.4283 26.5907 18.5291 26.6068 18.6169 26.6535C18.9345 26.9159 19.2922 27.1257 19.6762 27.2748C19.7623 27.3051 19.8349 27.3647 19.8815 27.4431C19.9281 27.5216 19.9456 27.6139 19.931 27.7039Z" fill="#E0E0E0"/>
<path d="M16.735 22.5994C16.7401 22.6939 16.7249 22.7884 16.6903 22.8765L12.8865 20.6818C12.9219 20.5923 12.9386 20.4964 12.9356 20.4002C12.9027 20.0571 12.8877 19.7124 12.8909 19.3677L14.1291 20.0829C14.18 20.1111 14.2364 20.1279 14.2945 20.132L16.3774 20.2482C16.4228 20.247 16.4679 20.2549 16.5102 20.2715C16.5524 20.288 16.5909 20.3129 16.6234 20.3445C16.6559 20.3762 16.6818 20.414 16.6994 20.4558C16.717 20.4977 16.7261 20.5426 16.7261 20.5879C16.6682 21.2573 16.6712 21.9305 16.735 22.5994Z" fill="#E0E0E0"/>
<path d="M15.2287 29.112L14.2319 28.5354L14.0441 28.4237L12.4395 27.4984C12.2875 27.409 12.1445 27.3241 11.9925 27.2481L11.4427 26.9218C11.4277 26.9136 11.4141 26.9031 11.4025 26.8905C11.389 26.8763 11.3783 26.8596 11.3712 26.8414L10.2671 24.4008C10.2462 24.3354 10.2462 24.2651 10.2671 24.1997C10.2653 24.1714 10.2653 24.143 10.2671 24.1147L14.0665 26.3094C14.0331 26.4049 14.0331 26.509 14.0665 26.6045L15.1661 29.0405C15.1812 29.0688 15.2026 29.0933 15.2287 29.112Z" fill="#E0E0E0"/>
<path d="M172.625 15.7068C173.236 16.4066 174.031 16.9221 174.919 17.1953H175.017H175.084L175.24 17.2221H175.424H175.535C175.553 17.2266 175.571 17.2266 175.589 17.2221C175.946 17.2235 176.294 17.1183 176.591 16.92C176.887 16.7217 177.117 16.4393 177.252 16.1091C177.381 15.8154 177.462 15.5031 177.493 15.1838C177.359 15.1213 177.216 15.0453 177.077 14.9648C176.045 14.2934 175.186 13.3875 174.57 12.321C173.954 11.2545 173.598 10.0576 173.533 8.82772C173.533 8.65787 173.533 8.50142 173.533 8.34945C173.142 8.16345 172.714 8.0716 172.281 8.08126H172.205H172.143H172.076C171.769 8.12748 171.479 8.25275 171.236 8.44476C170.992 8.63677 170.802 8.8889 170.686 9.17637C169.957 10.9107 170.815 13.8027 172.625 15.7068Z" fill="#0EA730"/>
<path d="M165.983 10.5577L166.819 13.3647C166.853 13.4427 166.904 13.5117 166.97 13.566C167.035 13.6204 167.112 13.6586 167.195 13.6776L168.853 14.0755C169.029 14.1207 169.179 14.2331 169.273 14.3883C169.54 14.9213 169.838 15.4378 170.167 15.9349C170.256 16.0658 170.291 16.2258 170.265 16.3819L169.729 18.2056C169.715 18.2865 169.721 18.3696 169.747 18.4475C169.773 18.5254 169.817 18.5959 169.877 18.6526L171.816 20.6953C171.91 20.7981 172.022 20.8294 172.094 20.7847C172.112 20.7751 172.127 20.7613 172.138 20.7445L173.032 19.3633C173.095 19.2649 173.265 19.2739 173.412 19.3633C173.56 19.4527 173.765 19.6002 173.944 19.703C174.123 19.8058 174.32 19.9086 174.503 19.998C174.669 20.0752 174.804 20.2058 174.887 20.369L175.844 22.9347C175.881 23.0079 175.937 23.0708 176.005 23.1175C176.072 23.1643 176.151 23.1936 176.233 23.2029L177.994 23.3772C178.051 23.3848 178.109 23.3738 178.159 23.3459C178.188 23.3293 178.211 23.3038 178.224 23.2731C178.237 23.2424 178.239 23.2083 178.231 23.1761L177.672 20.6506C177.661 20.5847 177.674 20.5172 177.707 20.4594C177.741 20.4016 177.793 20.357 177.855 20.3332C178.135 20.2257 178.396 20.0749 178.628 19.8863C178.692 19.8516 178.765 19.8393 178.837 19.8515C178.908 19.8636 178.973 19.8995 179.022 19.9533L180.81 21.5982C180.862 21.6524 180.932 21.6858 181.006 21.6921C181.027 21.6967 181.048 21.6967 181.069 21.6921C181.092 21.6794 181.109 21.6587 181.118 21.634L181.918 19.846C181.938 19.773 181.939 19.6962 181.921 19.6227C181.903 19.5492 181.867 19.4815 181.815 19.4259L180.13 17.3787C180.024 17.2537 179.966 17.0955 179.965 16.9317C180.01 16.447 180.01 15.9592 179.965 15.4745C179.965 15.4415 179.972 15.4087 179.984 15.3783C179.997 15.3479 180.016 15.3204 180.04 15.2974C180.064 15.2745 180.092 15.2566 180.123 15.2448C180.154 15.2329 180.187 15.2275 180.22 15.2287L181.735 15.1437C181.767 15.1456 181.799 15.1399 181.828 15.1269C181.858 15.114 181.883 15.0942 181.903 15.0693C181.924 15.0444 181.937 15.015 181.944 14.9836C181.95 14.9523 181.949 14.9198 181.941 14.889L181.105 12.0819C181.071 12.0039 181.02 11.935 180.954 11.8806C180.889 11.8263 180.812 11.788 180.729 11.769L179.075 11.3712C178.9 11.3255 178.749 11.2132 178.655 11.0583C178.389 10.5254 178.09 10.0089 177.761 9.51174C177.674 9.38016 177.639 9.22079 177.663 9.06475L178.204 7.23659C178.213 7.15887 178.204 7.08005 178.178 7.00636C178.151 6.93267 178.108 6.86611 178.052 6.81195L176.116 4.76476C176 4.64407 175.857 4.62619 175.79 4.72453L174.896 6.10124C174.834 6.19958 174.668 6.19064 174.521 6.10124C174.173 5.86084 173.807 5.64859 173.426 5.46652C173.26 5.38936 173.124 5.25873 173.041 5.09553L172.085 2.52983C172.048 2.45667 171.994 2.39382 171.926 2.34698C171.859 2.30015 171.782 2.27082 171.7 2.26164L169.939 2.08732C169.881 2.08113 169.822 2.09038 169.769 2.11414C169.739 2.13159 169.715 2.1585 169.701 2.19077C169.687 2.22305 169.685 2.25892 169.693 2.29293L170.27 4.8184C170.281 4.88375 170.269 4.95085 170.236 5.00857C170.204 5.06629 170.153 5.11117 170.091 5.13575C169.811 5.24224 169.55 5.39317 169.318 5.58274C169.254 5.61744 169.181 5.6297 169.109 5.61753C169.038 5.60537 168.973 5.56949 168.924 5.51569L167.136 3.87079C167.043 3.78586 166.944 3.75457 166.877 3.79033C166.858 3.80378 166.842 3.82234 166.833 3.84397L166.028 5.63191C166.008 5.70492 166.007 5.78177 166.025 5.85525C166.043 5.92874 166.079 5.99646 166.131 6.05207L167.816 8.06797C167.918 8.19506 167.976 8.35196 167.981 8.51496C167.956 8.76443 167.944 9.01512 167.946 9.26589C167.946 9.49386 167.946 9.71288 167.981 9.97213C167.981 10.0052 167.975 10.0379 167.962 10.0683C167.949 10.0987 167.93 10.1263 167.906 10.1492C167.882 10.1722 167.854 10.1901 167.823 10.2019C167.792 10.2137 167.76 10.2192 167.727 10.218L166.216 10.3029C166.177 10.3044 166.139 10.3135 166.104 10.3297C166.059 10.346 166.022 10.3783 166 10.4204C165.977 10.4626 165.972 10.5115 165.983 10.5577ZM172.621 15.7069C170.833 13.8028 169.939 10.9108 170.708 9.25696C170.822 8.96858 171.01 8.71544 171.254 8.52314C171.497 8.33085 171.787 8.20621 172.094 8.16184H172.161H172.223H172.286C172.716 8.15312 173.143 8.24334 173.533 8.42556C173.68 8.49261 173.832 8.5686 173.98 8.65353C174.477 8.94906 174.928 9.3149 175.321 9.7397C176.624 11.0956 177.399 12.8729 177.507 14.7504C177.511 14.9222 177.502 15.0941 177.48 15.2644C177.449 15.5837 177.367 15.896 177.238 16.1897C177.104 16.5207 176.875 16.804 176.578 17.0032C176.282 17.2023 175.933 17.3082 175.576 17.3072H175.415H175.231L175.075 17.2803H175.008L174.91 17.2535C174.018 16.9606 173.225 16.4251 172.621 15.7069Z" fill="#F5F5F5"/>
<path d="M173.072 5.08648C173.154 5.24447 173.286 5.37043 173.448 5.44407C173.829 5.62614 174.195 5.83839 174.543 6.07879C174.691 6.17712 174.856 6.18606 174.919 6.07879L175.812 4.70207C175.823 4.68302 175.838 4.66745 175.857 4.65737L177.551 3.67848C177.364 3.5712 177.176 3.4684 176.993 3.38347C176.969 3.37428 176.946 3.36227 176.925 3.34771C176.859 3.30605 176.797 3.25653 176.742 3.2002L176.675 3.12869C176.662 3.11188 176.65 3.09393 176.639 3.07505L176.613 3.02588L173.072 5.08648Z" fill="#EBEBEB"/>
<path d="M177.69 9.10473C177.684 9.23901 177.72 9.37187 177.793 9.48467C178.121 9.98185 178.42 10.4983 178.687 11.0312C178.708 11.0758 178.738 11.1154 178.776 11.1475L182.352 9.08686C182.332 9.07079 182.315 9.05107 182.303 9.02875C182.285 9.01163 182.27 8.99206 182.258 8.97064C181.993 8.43528 181.694 7.91723 181.364 7.4196C181.348 7.39576 181.334 7.37029 181.324 7.34361C181.313 7.32594 181.305 7.30618 181.301 7.2855C181.301 7.2855 181.301 7.2855 181.301 7.25422C181.301 7.22293 181.301 7.25422 181.301 7.25422C181.3 7.22892 181.3 7.20353 181.301 7.17823C181.291 7.14026 181.291 7.09998 181.301 7.06201L177.69 9.10473Z" fill="#EBEBEB"/>
<path d="M177.574 3.67861L179.424 2.60585C179.45 2.59883 179.478 2.59883 179.505 2.60585C179.544 2.60865 179.583 2.61962 179.619 2.63808C179.654 2.65654 179.685 2.68208 179.71 2.71312L180.868 3.92445L181.646 4.74243C181.71 4.81247 181.758 4.89666 181.784 4.98827L179.062 6.54825L178.217 7.03099C178.191 6.9469 178.145 6.87028 178.083 6.8075L178.061 6.78068L176.148 4.76031C176.117 4.72026 176.075 4.69004 176.028 4.67336C175.98 4.65669 175.928 4.65429 175.879 4.66645L177.574 3.67861Z" fill="#F5F5F5"/>
<path d="M169.805 2.08742C169.855 2.07528 169.907 2.07528 169.957 2.08742L171.723 2.26174C171.831 2.27345 171.933 2.32056 172.013 2.39584L175.589 0.339709C175.509 0.261322 175.405 0.212445 175.294 0.201141L173.528 0.0268172C173.468 0.0172054 173.407 0.0282368 173.354 0.058106L172.88 0.335238L172.648 0.469331L171.137 1.3633L170.762 1.58233L170.498 1.6896L169.805 2.08742Z" fill="#F5F5F5"/>
<path d="M178.776 11.1524C178.867 11.2461 178.981 11.3139 179.107 11.3491L180.765 11.7469C180.884 11.7786 180.99 11.8456 181.069 11.9391L184.645 9.88743C184.563 9.78736 184.452 9.71544 184.327 9.68182L182.674 9.284C182.549 9.25192 182.436 9.1853 182.347 9.0918L178.776 11.1524Z" fill="#E6E6E6"/>
<path d="M180.032 17.1108C180.061 17.2003 180.107 17.2836 180.166 17.3567L181.851 19.4038C181.901 19.4637 181.938 19.5339 181.958 19.6095L185.534 17.5489C185.515 17.4716 185.478 17.3997 185.427 17.3388L183.737 15.2916C183.681 15.2213 183.638 15.1409 183.612 15.0547L180.032 17.1108Z" fill="#E6E6E6"/>
<path d="M184.605 13.5125L184.555 13.5438L184.618 13.508L184.743 13.4365L184.605 13.5125Z" fill="#E0E0E0"/>
<path d="M172.625 15.7068C173.236 16.4066 174.031 16.9221 174.919 17.1953H175.017H175.084L175.24 17.2221H175.424H175.535C175.553 17.2266 175.571 17.2266 175.589 17.2221C175.946 17.2235 176.294 17.1183 176.591 16.92C176.887 16.7217 177.117 16.4393 177.252 16.1091C177.381 15.8154 177.462 15.5031 177.493 15.1838C177.359 15.1213 177.216 15.0453 177.077 14.9648C176.045 14.2934 175.186 13.3875 174.57 12.321C173.954 11.2545 173.598 10.0576 173.533 8.82772C173.533 8.65787 173.533 8.50142 173.533 8.34945C173.142 8.16345 172.714 8.0716 172.281 8.08126H172.205H172.143H172.076C171.769 8.12748 171.479 8.25275 171.236 8.44476C170.992 8.63677 170.802 8.8889 170.686 9.17637C169.957 10.9107 170.815 13.8027 172.625 15.7068Z" fill="#E0E0E0"/>
<path d="M177.69 9.10516L181.266 7.04903C181.261 7.02843 181.261 7.00706 181.266 6.98645L181.806 5.15829C181.824 5.09996 181.824 5.03782 181.806 4.97949L179.084 6.53947L178.24 7.02221C178.259 7.08791 178.259 7.15765 178.24 7.22335L177.703 9.04705C177.694 9.065 177.689 9.08497 177.69 9.10516Z" fill="#E0E0E0"/>
<path d="M172.013 2.37351C172.054 2.41056 172.086 2.45641 172.107 2.50761L173.063 5.0733L176.639 3.0127L175.683 0.447009C175.664 0.397064 175.634 0.352522 175.593 0.317383L172.013 2.37351Z" fill="#E0E0E0"/>
<path d="M166.873 3.75901C166.918 3.75078 166.965 3.75425 167.009 3.76911C167.053 3.78397 167.092 3.80972 167.123 3.84393L168.911 5.49331C168.959 5.5478 169.024 5.58418 169.096 5.59638C169.167 5.60859 169.241 5.59587 169.304 5.56036C169.536 5.37079 169.798 5.21986 170.078 5.11337C170.14 5.08949 170.191 5.04474 170.224 4.98683C170.257 4.92891 170.268 4.86144 170.256 4.79601L169.702 2.27055C169.694 2.23654 169.696 2.20066 169.71 2.16839C169.724 2.13612 169.748 2.10921 169.778 2.09176L170.498 1.68947C170.476 1.68489 170.453 1.68489 170.431 1.68947C170.417 1.68713 170.404 1.68713 170.391 1.68947L166.873 3.75901Z" fill="#E0E0E0"/>
<path d="M166.082 10.3295C166.116 10.3127 166.155 10.3035 166.193 10.3026L167.709 10.2177C167.741 10.2189 167.774 10.2134 167.805 10.2016C167.835 10.1897 167.863 10.1717 167.887 10.1487C167.91 10.1257 167.929 10.0981 167.941 10.0677C167.953 10.0373 167.959 10.0047 167.959 9.97186C167.959 9.73049 167.928 9.49359 167.928 9.26562L166.082 10.3295Z" fill="#E0E0E0"/>
<path d="M182.289 9.03369C182.302 9.05587 182.318 9.07546 182.338 9.09141L182.289 9.03369Z" fill="#E0E0E0"/>
<path d="M184.64 9.88721C184.668 9.91992 184.687 9.95801 184.699 9.99895L184.801 10.3431L185.347 12.1758L185.534 12.806C185.543 12.8397 185.543 12.8751 185.534 12.9088C185.531 12.9281 185.523 12.9464 185.512 12.9625C185.501 12.9794 185.487 12.9945 185.472 13.0072H185.441L185.163 13.1725L185.083 13.2128L184.864 13.3424L184.743 13.4139L184.605 13.4899L184.556 13.5212L184.408 13.6017L183.603 14.0486L181.905 15.032C181.94 15.01 181.966 14.9769 181.98 14.938C181.994 14.899 181.994 14.8565 181.981 14.8175L181.225 12.4171L181.123 12.073C181.109 12.0284 181.086 11.9873 181.056 11.9523L184.64 9.88721Z" fill="#E0E0E0"/>
<path d="M172.089 20.7578L173.944 19.6806C173.774 19.5778 173.591 19.466 173.417 19.3453C173.242 19.2246 173.104 19.238 173.041 19.3453L172.147 20.7265C172.131 20.7419 172.111 20.7528 172.089 20.7578Z" fill="#E0E0E0"/>
<path d="M177.69 20.6239L178.244 23.1538C178.252 23.1866 178.249 23.221 178.235 23.2518C178.221 23.2825 178.198 23.3078 178.168 23.3237C178.28 23.2611 180.028 22.2554 181.033 21.6698C180.958 21.6635 180.889 21.6302 180.837 21.576L179.049 19.9311C179.001 19.8759 178.936 19.839 178.864 19.8267C178.792 19.8145 178.718 19.8277 178.655 19.864C178.423 20.0527 178.162 20.2035 177.882 20.311C177.818 20.3315 177.763 20.3744 177.728 20.4318C177.693 20.4892 177.679 20.5574 177.69 20.6239Z" fill="#E0E0E0"/>
<path d="M180.001 16.9092C179.997 16.9777 180.007 17.0463 180.032 17.1103L183.608 15.0542C183.582 14.9888 183.57 14.9188 183.572 14.8486C183.596 14.599 183.606 14.3483 183.603 14.0977L181.905 15.081C181.868 15.1008 181.826 15.1115 181.784 15.1123L180.269 15.2017C180.236 15.2005 180.203 15.206 180.172 15.2178C180.141 15.2296 180.113 15.2475 180.089 15.2705C180.065 15.2934 180.046 15.3209 180.034 15.3514C180.021 15.3818 180.014 15.4145 180.014 15.4475C180.052 15.9342 180.048 16.4233 180.001 16.9092Z" fill="#E0E0E0"/>
<path d="M181.109 21.6475L181.833 21.2318L181.972 21.1513L183.143 20.4764L183.456 20.2931L184.658 19.5958C184.667 19.5985 184.676 19.5985 184.685 19.5958L184.712 19.56L185.512 17.7721C185.526 17.724 185.526 17.6727 185.512 17.6246V17.562L181.936 19.6226C181.961 19.692 181.961 19.7678 181.936 19.8372L181.136 21.6251C181.128 21.634 181.119 21.6415 181.109 21.6475Z" fill="#E0E0E0"/>
<path d="M179.576 34.0515L180.725 37.9089C180.769 38.0189 180.838 38.1168 180.928 38.1945C181.017 38.2722 181.124 38.3275 181.239 38.3559L183.514 38.9057C183.759 38.9725 183.968 39.1331 184.095 39.3527C184.458 40.0849 184.865 40.7939 185.315 41.4759C185.434 41.6531 185.484 41.868 185.454 42.0793L184.712 44.5869C184.699 44.693 184.711 44.8006 184.747 44.9014C184.783 45.0021 184.841 45.0933 184.918 45.168L187.577 47.9795C187.707 48.1181 187.863 48.1628 187.966 48.1002C187.99 48.0856 188.009 48.0657 188.024 48.0421L189.267 46.1469C189.352 46.0128 189.584 46.0217 189.785 46.1469C189.986 46.272 190.272 46.4687 190.514 46.5938C190.755 46.719 191.028 46.8799 191.283 46.9961C191.51 47.1063 191.697 47.2864 191.814 47.5102L193.129 51.0324C193.178 51.1344 193.253 51.2221 193.346 51.287C193.439 51.3519 193.548 51.392 193.661 51.4034L196.083 51.6448C196.161 51.654 196.241 51.64 196.311 51.6045C196.352 51.5821 196.385 51.5467 196.403 51.5038C196.422 51.4608 196.426 51.4129 196.414 51.3676L195.65 47.899C195.63 47.8069 195.645 47.7107 195.691 47.6285C195.737 47.5463 195.811 47.4836 195.9 47.4521C196.283 47.3027 196.64 47.0946 196.959 46.8352C197.047 46.788 197.147 46.7711 197.245 46.7873C197.343 46.8035 197.433 46.8518 197.5 46.9246L199.976 49.1908C200.048 49.2634 200.143 49.3092 200.245 49.3205C200.274 49.32 200.303 49.3123 200.33 49.2981C200.361 49.2821 200.385 49.255 200.397 49.2221L201.501 46.786C201.525 46.6855 201.525 46.5806 201.5 46.4801C201.475 46.3797 201.426 46.2868 201.358 46.2094L199.038 43.3979C198.895 43.2239 198.816 43.0062 198.814 42.7811C198.875 42.1149 198.875 41.4447 198.814 40.7786C198.814 40.7332 198.823 40.6883 198.841 40.6465C198.859 40.6047 198.884 40.5668 198.917 40.5351C198.949 40.5035 198.988 40.4786 199.03 40.4621C199.072 40.4456 199.118 40.4377 199.163 40.4389L201.241 40.3226C201.286 40.3266 201.33 40.3198 201.371 40.3026C201.412 40.2854 201.448 40.2584 201.477 40.2241C201.505 40.1897 201.524 40.1489 201.533 40.1053C201.542 40.0617 201.54 40.0167 201.527 39.974L200.392 36.1076C200.345 36.0016 200.275 35.908 200.185 35.8343C200.096 35.7605 199.991 35.7087 199.878 35.6829L197.603 35.1332C197.358 35.0659 197.15 34.9054 197.022 34.6862C196.658 33.9544 196.251 33.2454 195.802 32.563C195.681 32.3866 195.631 32.171 195.663 31.9596L196.405 29.452C196.418 29.3458 196.406 29.2381 196.37 29.1373C196.335 29.0365 196.276 28.9453 196.199 28.8709L193.54 26.0594C193.379 25.894 193.178 25.8627 193.093 25.9968L191.85 27.892C191.765 28.0261 191.537 28.0172 191.332 27.892C190.854 27.5637 190.352 27.2723 189.83 27.0204C189.602 26.9141 189.416 26.7348 189.302 26.5108L187.988 22.9886C187.939 22.8871 187.865 22.7999 187.772 22.735C187.68 22.6701 187.573 22.6297 187.461 22.6176L185.034 22.3762C184.956 22.3694 184.877 22.3832 184.806 22.4164C184.764 22.4403 184.73 22.4772 184.711 22.5215C184.692 22.5658 184.687 22.6152 184.698 22.6623L185.463 26.1309C185.482 26.2224 185.467 26.3177 185.422 26.3996C185.377 26.4815 185.304 26.5447 185.217 26.5779C184.832 26.7241 184.475 26.9325 184.158 27.1947C184.069 27.2426 183.968 27.2593 183.869 27.2423C183.77 27.2253 183.679 27.1754 183.612 27.1008L181.136 24.8391C181.095 24.7877 181.039 24.7499 180.976 24.7307C180.913 24.7116 180.846 24.712 180.783 24.7318C180.755 24.7517 180.732 24.7777 180.716 24.8078L179.616 27.2483C179.59 27.3484 179.589 27.4535 179.613 27.5541C179.637 27.6547 179.686 27.7478 179.755 27.825L182.075 30.632C182.22 30.8048 182.301 31.023 182.303 31.2489C182.271 31.5841 182.258 31.9283 182.258 32.2814C182.258 32.6345 182.28 32.9206 182.307 33.2514C182.308 33.2967 182.299 33.3417 182.282 33.3836C182.264 33.4255 182.238 33.4633 182.206 33.4947C182.173 33.5262 182.134 33.5506 182.092 33.5664C182.049 33.5822 182.004 33.589 181.958 33.5866L179.88 33.7073C179.827 33.7064 179.775 33.7186 179.728 33.743C179.669 33.767 179.622 33.8116 179.594 33.8684C179.566 33.9252 179.559 33.9904 179.576 34.0515ZM188.695 41.1272C186.214 38.5079 185.034 34.5387 186.062 32.2635C186.22 31.8679 186.479 31.5205 186.813 31.2562C187.147 30.9919 187.545 30.8198 187.966 30.7572H188.06H188.149H188.256C188.849 30.744 189.436 30.8679 189.973 31.1192C190.183 31.2119 190.387 31.3164 190.585 31.4321C191.264 31.8388 191.881 32.34 192.418 32.9206C194.282 34.8873 195.413 37.6095 195.426 39.8086C195.429 40.0447 195.415 40.2806 195.386 40.5149C195.343 40.9527 195.231 41.381 195.055 41.7843C194.874 42.2409 194.559 42.632 194.151 42.9057C193.743 43.1795 193.262 43.323 192.771 43.3174H192.543L192.293 43.2951L192.078 43.2593L191.98 43.237L191.846 43.2012C190.624 42.8132 189.534 42.0955 188.695 41.1272Z" fill="#F5F5F5"/>
<path d="M189.311 26.5327C189.427 26.7481 189.609 26.9205 189.83 27.0243C190.353 27.2743 190.855 27.5657 191.332 27.896C191.533 28.0345 191.779 28.0435 191.85 27.896L193.088 26.0007C193.105 25.9769 193.126 25.9571 193.151 25.9426H193.173L194.403 25.2275C194.143 25.0755 193.884 24.9414 193.634 24.8252L193.54 24.7715C193.449 24.7148 193.365 24.6472 193.29 24.5704C193.257 24.5398 193.228 24.5069 193.2 24.4721C193.18 24.4508 193.164 24.4267 193.151 24.4005L193.115 24.3335L189.311 26.5327Z" fill="#EBEBEB"/>
<path d="M195.654 32.0532C195.65 32.2397 195.702 32.4232 195.802 32.5806C196.25 33.2629 196.659 33.9703 197.026 34.6994C197.057 34.7596 197.098 34.814 197.147 34.8603L200.951 32.6656C200.924 32.6421 200.899 32.615 200.879 32.5851C200.857 32.5605 200.838 32.5336 200.821 32.5047C200.459 31.7709 200.051 31.0603 199.601 30.377C199.575 30.3432 199.556 30.3055 199.543 30.2653C199.526 30.2431 199.515 30.2169 199.512 30.1893C199.509 30.1745 199.509 30.1594 199.512 30.1446C199.512 30.1446 199.512 30.0731 199.489 30.0418C199.478 29.9887 199.478 29.934 199.489 29.8809L195.654 32.0532Z" fill="#EBEBEB"/>
<path d="M194.403 25.2324L196.946 23.7574C196.978 23.7376 197.015 23.7268 197.053 23.7261C197.108 23.7311 197.161 23.7471 197.21 23.7732C197.258 23.7993 197.301 23.835 197.335 23.878L198.926 25.5587L199.994 26.6851C200.081 26.7797 200.145 26.8928 200.182 27.0159L197.536 28.5312L196.378 29.1972C196.34 29.0822 196.278 28.977 196.195 28.8887L196.159 28.853L193.535 26.0772C193.495 26.0212 193.438 25.9788 193.372 25.9557C193.307 25.9326 193.236 25.9297 193.169 25.9476L194.403 25.2324Z" fill="#F5F5F5"/>
<path d="M184.824 22.4116C184.89 22.3844 184.962 22.3737 185.034 22.3803L187.456 22.6261C187.607 22.641 187.749 22.7054 187.859 22.8094L191.662 20.6147C191.553 20.5089 191.412 20.4414 191.26 20.4225L188.833 20.1811C188.751 20.1702 188.668 20.1859 188.596 20.2258L187.939 20.6057L187.622 20.7935L186.638 21.3656L186.129 21.6606C185.999 21.7321 185.874 21.8081 185.753 21.8707L184.824 22.4116Z" fill="#F5F5F5"/>
<path d="M197.147 34.8646C197.27 34.9927 197.424 35.0867 197.594 35.1373L199.869 35.6826C200.033 35.7272 200.18 35.8207 200.289 35.9508L204.102 33.7606C203.987 33.6223 203.83 33.525 203.655 33.4834L201.38 32.9336C201.21 32.8876 201.056 32.7964 200.933 32.6699L197.147 34.8646Z" fill="#E6E6E6"/>
<path d="M198.872 43.0536C198.914 43.1761 198.976 43.2909 199.056 43.3933L201.376 46.2048C201.444 46.2875 201.494 46.3834 201.523 46.4864L205.322 44.2917C205.296 44.1849 205.246 44.0855 205.175 44.0012L202.855 41.1897C202.776 41.0914 202.715 40.9792 202.676 40.8589L198.872 43.0536Z" fill="#E6E6E6"/>
<path d="M204.062 38.74L203.995 38.7847L204.084 38.7355L204.254 38.6372L204.062 38.74Z" fill="#E0E0E0"/>
<path d="M188.695 41.1269C189.538 42.087 190.63 42.7954 191.85 43.1741L191.98 43.2054L192.074 43.2278L192.293 43.2635L192.543 43.2859H192.7C192.723 43.2904 192.747 43.2904 192.771 43.2859C193.262 43.2915 193.743 43.1479 194.151 42.8741C194.559 42.6004 194.874 42.2094 195.055 41.7527C195.232 41.3495 195.345 40.9213 195.39 40.4833C195.203 40.3939 195.01 40.2956 194.814 40.1838C192.132 38.6283 189.946 34.8602 189.946 31.7537C189.946 31.5168 189.946 31.3067 189.973 31.0921C189.436 30.8375 188.846 30.712 188.252 30.7256H188.149H188.06H187.966C187.545 30.7883 187.147 30.9603 186.813 31.2247C186.479 31.489 186.22 31.8363 186.062 32.232C185.034 34.5384 186.214 38.5076 188.695 41.1269Z" fill="#E0E0E0"/>
<path d="M195.654 32.0531L199.453 29.8629C199.447 29.8335 199.447 29.8029 199.453 29.7735L200.195 27.2659C200.221 27.1845 200.221 27.097 200.195 27.0156L197.549 28.5309L196.392 29.1969C196.42 29.2856 196.42 29.3809 196.392 29.4696L195.654 31.9772C195.649 32.0022 195.649 32.0281 195.654 32.0531Z" fill="#E0E0E0"/>
<path d="M187.859 22.8093C187.915 22.86 187.959 22.9226 187.988 22.9926L189.302 26.5193L193.106 24.3246L191.792 20.7979C191.765 20.7304 191.722 20.6706 191.667 20.6235L187.859 22.8093Z" fill="#E0E0E0"/>
<path d="M180.778 24.7136C180.84 24.6994 180.905 24.7027 180.965 24.7232C181.025 24.7438 181.078 24.7807 181.118 24.8299L183.594 27.0916C183.662 27.1655 183.753 27.2145 183.852 27.2307C183.951 27.2469 184.052 27.2294 184.14 27.181C184.458 26.9237 184.814 26.7171 185.195 26.5686C185.283 26.5371 185.358 26.4744 185.404 26.3922C185.45 26.31 185.464 26.2138 185.445 26.1217L184.685 22.6531C184.672 22.6065 184.675 22.5569 184.694 22.5122C184.712 22.4676 184.746 22.4306 184.788 22.4072L185.718 21.8664C185.688 21.8597 185.658 21.8597 185.628 21.8664L185.575 21.9021L180.778 24.7136Z" fill="#E0E0E0"/>
<path d="M179.71 33.7381C179.758 33.7158 179.81 33.7036 179.862 33.7023L181.941 33.5861C182.032 33.5861 182.119 33.5506 182.184 33.4872C182.249 33.4237 182.287 33.3373 182.289 33.2464C182.262 32.9156 182.24 32.5893 182.24 32.272L179.71 33.7381Z" fill="#E0E0E0"/>
<path d="M200.893 32.5894C200.913 32.6191 200.937 32.6459 200.964 32.6693L200.893 32.5894Z" fill="#E0E0E0"/>
<path d="M204.111 33.7607C204.148 33.8053 204.175 33.8571 204.191 33.9127L204.335 34.391L205.081 36.9075L205.336 37.7702C205.351 37.8166 205.351 37.8668 205.336 37.9132C205.33 37.9388 205.319 37.9631 205.304 37.9847C205.291 38.0106 205.271 38.0323 205.246 38.0473L205.206 38.0741L204.822 38.2976L204.719 38.3602L204.411 38.539L204.25 38.6373L204.057 38.7402L203.99 38.7849L203.789 38.8966L202.681 39.5358L201.443 40.2554C201.49 40.2261 201.527 40.1814 201.546 40.1287C201.566 40.076 201.567 40.0183 201.55 39.9649L200.544 36.5767L200.401 36.1029C200.383 36.0426 200.351 35.9875 200.307 35.942L204.111 33.7607Z" fill="#E0E0E0"/>
<path d="M187.961 48.064L190.514 46.5845C190.272 46.4414 190.027 46.285 189.785 46.1375C189.544 45.99 189.338 45.99 189.267 46.1375L188.024 48.0327C188.005 48.047 187.984 48.0577 187.961 48.064Z" fill="#E0E0E0"/>
<path d="M195.654 47.8856L196.418 51.3587C196.429 51.4033 196.425 51.4502 196.406 51.4922C196.388 51.5342 196.356 51.5689 196.316 51.5911C196.468 51.5062 198.868 50.1205 200.249 49.3159C200.146 49.3069 200.05 49.2627 199.976 49.1908L197.505 46.929C197.438 46.8555 197.348 46.8063 197.25 46.7893C197.152 46.7723 197.051 46.7884 196.964 46.8352C196.644 47.0956 196.285 47.3038 195.9 47.452C195.815 47.484 195.743 47.545 195.698 47.6242C195.653 47.7035 195.638 47.796 195.654 47.8856Z" fill="#E0E0E0"/>
<path d="M198.832 42.7761C198.825 42.8704 198.839 42.965 198.872 43.0533L202.676 40.8586C202.641 40.769 202.626 40.673 202.632 40.577C202.663 40.2337 202.677 39.8891 202.672 39.5444L201.434 40.2641C201.384 40.2944 201.327 40.3114 201.268 40.3132L199.185 40.4295C199.14 40.4276 199.094 40.4351 199.052 40.4514C199.009 40.4677 198.971 40.4925 198.938 40.5243C198.905 40.5561 198.879 40.5942 198.862 40.6363C198.845 40.6784 198.836 40.7236 198.837 40.7692C198.896 41.4369 198.894 42.1087 198.832 42.7761Z" fill="#E0E0E0"/>
<path d="M200.352 49.2889C200.432 49.2442 200.826 49.0207 201.353 48.7123L201.541 48.605L203.146 47.6753L203.593 47.425L204.147 47.1032C204.163 47.0964 204.177 47.0856 204.187 47.0719C204.199 47.058 204.209 47.0431 204.218 47.0272L205.318 44.6C205.339 44.5331 205.339 44.4613 205.318 44.3944V44.314L201.519 46.5087C201.552 46.6042 201.552 46.7082 201.519 46.8037L200.414 49.2353C200.4 49.2593 200.378 49.278 200.352 49.2889Z" fill="#E0E0E0"/>
<path d="M126.13 6.88798V110.843C126.162 111.424 126.33 111.99 126.62 112.495C126.911 112.999 127.315 113.429 127.802 113.749L173.899 140.358C174.82 140.894 175.571 140.456 175.571 139.388V35.4369C175.539 34.8556 175.371 34.29 175.081 33.7854C174.79 33.2809 174.386 32.8514 173.899 32.5315L127.802 5.92249C126.881 5.38611 126.13 5.81969 126.13 6.88798ZM128.539 19.2963C128.539 18.4023 129.183 18.009 129.979 18.4694L171.888 42.6602C172.306 42.934 172.655 43.3024 172.905 43.7357C173.155 44.1689 173.3 44.6549 173.327 45.1543V126.582C173.327 127.502 172.679 127.869 171.888 127.413L129.979 103.218C129.183 102.771 128.539 102.176 128.539 101.264V19.2963Z" fill="#0EA730"/>
<path opacity="0.5" d="M126.13 6.88798V110.843C126.162 111.424 126.33 111.99 126.62 112.495C126.911 112.999 127.315 113.429 127.802 113.749L173.899 140.358C174.82 140.894 175.571 140.456 175.571 139.388V35.4369C175.539 34.8556 175.371 34.29 175.081 33.7854C174.79 33.2809 174.386 32.8514 173.899 32.5315L127.802 5.92249C126.881 5.38611 126.13 5.81969 126.13 6.88798ZM128.539 19.2963C128.539 18.4023 129.183 18.009 129.979 18.4694L171.888 42.6602C172.306 42.934 172.655 43.3024 172.905 43.7357C173.155 44.1689 173.3 44.6549 173.327 45.1543V126.582C173.327 127.502 172.679 127.869 171.888 127.413L129.979 103.218C129.183 102.771 128.539 102.176 128.539 101.264V19.2963Z" fill="black"/>
<path d="M174.105 140.461C174.603 140.671 175.14 140.77 175.681 140.753C176.221 140.735 176.751 140.6 177.234 140.358L179.151 139.249C179.641 138.932 180.049 138.504 180.341 137.999C180.633 137.493 180.801 136.926 180.832 136.344V32.3975C180.823 31.9647 180.724 31.5385 180.541 31.1459C180.483 31.0084 180.418 30.8741 180.345 30.7437L175.07 33.7876C175.182 33.9861 175.279 34.1923 175.361 34.4045C175.486 34.7362 175.554 35.0869 175.562 35.4415V139.392C175.571 140.376 174.932 140.823 174.105 140.461Z" fill="#0EA730"/>
<path opacity="0.7" d="M174.105 140.461C174.603 140.671 175.14 140.77 175.681 140.753C176.221 140.735 176.751 140.6 177.234 140.358L179.151 139.249C179.641 138.932 180.049 138.504 180.341 137.999C180.633 137.493 180.801 136.926 180.832 136.344V32.3975C180.823 31.9647 180.724 31.5385 180.541 31.1459C180.483 31.0084 180.418 30.8741 180.345 30.7437L175.07 33.7876C175.182 33.9861 175.279 34.1923 175.361 34.4045C175.486 34.7362 175.554 35.0869 175.562 35.4415V139.392C175.571 140.376 174.932 140.823 174.105 140.461Z" fill="black"/>
<path d="M150.451 117.905C148.989 117.065 147.804 117.749 147.804 119.434C147.854 120.353 148.119 121.247 148.579 122.043C149.039 122.84 149.68 123.517 150.451 124.02C151.912 124.86 153.097 124.176 153.097 122.491C153.047 121.573 152.782 120.679 152.322 119.882C151.862 119.085 151.221 118.408 150.451 117.905Z" stroke="#E6E6E6" stroke-width="1.45697" stroke-miterlimit="10"/>
<path d="M150.83 21.4685C150.214 21.1109 149.709 21.4014 149.709 22.1166C149.731 22.5064 149.844 22.8857 150.038 23.2241C150.233 23.5625 150.504 23.8506 150.83 24.0654C151.452 24.423 151.957 24.1325 151.957 23.4128C151.935 23.023 151.822 22.6437 151.626 22.3058C151.431 21.9679 151.158 21.681 150.83 21.4685Z" fill="black"/>
<path d="M155.188 28.3028L146.513 23.2921C145.994 22.9971 145.574 23.2072 145.574 23.7659C145.597 24.0814 145.693 24.3871 145.857 24.6582C146.02 24.9292 146.244 25.158 146.513 25.3259L155.188 30.3321C155.707 30.6316 156.127 30.4215 156.127 29.8583C156.104 29.5436 156.007 29.2388 155.843 28.9685C155.68 28.6983 155.456 28.4703 155.188 28.3028Z" fill="black"/>
<path d="M128.539 101.264C128.539 102.158 129.183 102.762 129.979 103.218L171.888 127.413C172.679 127.86 173.327 127.502 173.327 126.581V45.1542C173.3 44.6548 173.155 44.1688 172.905 43.7356C172.655 43.3023 172.307 42.9339 171.888 42.66L129.979 18.4692C129.183 18.0222 128.539 18.3798 128.539 19.2961V101.264Z" fill="#0EA730"/>
<path opacity="0.5" d="M128.539 101.264C128.539 102.158 129.183 102.762 129.979 103.218L171.888 127.413C172.679 127.86 173.327 127.502 173.327 126.581V45.1542C173.3 44.6548 173.155 44.1688 172.905 43.7356C172.655 43.3023 172.307 42.9339 171.888 42.66L129.979 18.4692C129.183 18.0222 128.539 18.3798 128.539 19.2961V101.264Z" fill="white"/>
<path d="M131.342 25.4556V24.6912C131.342 24.5259 131.409 24.4275 131.489 24.4722L131.53 24.499C131.581 24.5476 131.62 24.6068 131.646 24.6725C131.671 24.7382 131.682 24.8087 131.677 24.879V25.6433C131.677 25.8087 131.61 25.907 131.53 25.8579H131.489C131.436 25.8065 131.395 25.7435 131.369 25.6738C131.344 25.6041 131.334 25.5294 131.342 25.4556Z" fill="#455A64"/>
<path d="M132.008 25.8265V24.4855C132.008 24.3202 132.07 24.2218 132.151 24.271H132.191C132.242 24.3206 132.282 24.3806 132.307 24.447C132.333 24.5134 132.343 24.5845 132.339 24.6554V25.974C132.339 26.1394 132.272 26.2333 132.191 26.1886L132.151 26.1662C132.061 26.0755 132.01 25.9539 132.008 25.8265Z" fill="#455A64"/>
<path d="M132.669 26.2202V24.3429C132.669 24.1775 132.736 24.0836 132.817 24.1283L132.857 24.1507C132.908 24.2004 132.947 24.2605 132.973 24.3268C132.998 24.3931 133.009 24.4642 133.005 24.5351V26.4124C133.005 26.5778 132.938 26.6716 132.857 26.6269H132.817C132.763 26.5747 132.722 26.5109 132.696 26.4405C132.671 26.37 132.662 26.2947 132.669 26.2202Z" fill="#455A64"/>
<path d="M133.335 26.5996V23.3635C133.335 23.1981 133.398 23.0998 133.478 23.1489H133.519C133.569 23.1987 133.609 23.2588 133.634 23.3251C133.66 23.3914 133.671 23.4624 133.666 23.5333V26.7695C133.666 26.9349 133.599 27.0332 133.519 26.9841H133.478C133.428 26.9342 133.389 26.874 133.365 26.8076C133.34 26.7412 133.33 26.6703 133.335 26.5996Z" fill="#455A64"/>
<path d="M135.132 27.8602C135.117 27.822 135.109 27.7809 135.11 27.7396V27.2658L134.368 26.8188C134.349 26.8087 134.333 26.7947 134.319 26.7777C134.306 26.7608 134.297 26.7412 134.292 26.7204V26.5506C134.289 26.5224 134.289 26.4938 134.292 26.4656C134.298 26.4443 134.306 26.4234 134.314 26.4031L135.105 25.156C135.105 25.156 135.132 25.1202 135.146 25.1158C135.159 25.1113 135.173 25.1158 135.195 25.1158L135.298 25.1783C135.33 25.1941 135.355 25.2211 135.369 25.2543C135.377 25.2957 135.377 25.3381 135.369 25.3795V27.0423L135.535 27.1361C135.563 27.1529 135.587 27.1777 135.602 27.2076C135.609 27.2505 135.609 27.2944 135.602 27.3373V27.449C135.611 27.4811 135.611 27.5153 135.602 27.5474C135.602 27.5474 135.566 27.5474 135.535 27.5474L135.369 27.4535V27.9273C135.379 27.9594 135.379 27.9935 135.369 28.0256C135.369 28.0256 135.333 28.0256 135.298 28.0256L135.173 27.9541C135.149 27.928 135.135 27.8951 135.132 27.8602ZM135.159 26.8903V25.7058L134.618 26.5997L135.159 26.8903Z" fill="#455A64"/>
<path d="M136.013 28.084C135.859 27.6944 135.785 27.278 135.794 26.8593C135.761 26.5209 135.838 26.1807 136.013 25.8894C136.162 25.7195 136.367 25.7106 136.63 25.8625C136.85 25.9874 137.032 26.1697 137.157 26.39C137.164 26.4118 137.164 26.4352 137.157 26.457C137.159 26.4719 137.159 26.4869 137.157 26.5017L137.09 26.6716C137.09 26.6716 137.09 26.6984 137.063 26.6939C137.05 26.6831 137.039 26.6693 137.032 26.6537C136.937 26.4999 136.807 26.3711 136.652 26.2782C136.473 26.1754 136.33 26.1799 136.232 26.3006C136.106 26.5216 136.053 26.7764 136.08 27.0292C136.071 27.3339 136.121 27.6375 136.227 27.9231C136.302 28.1302 136.444 28.3063 136.63 28.4238C136.687 28.459 136.748 28.4861 136.813 28.5042C136.861 28.5169 136.912 28.5169 136.96 28.5042V27.7488L136.652 27.57C136.622 27.5528 136.598 27.5261 136.585 27.494C136.577 27.4527 136.577 27.4102 136.585 27.3689V27.2616C136.585 27.208 136.585 27.1767 136.585 27.1633C136.585 27.1498 136.621 27.1633 136.652 27.1633L137.144 27.4493C137.179 27.4688 137.206 27.5006 137.22 27.5387C137.235 27.5863 137.243 27.6362 137.242 27.6862V28.7858C137.246 28.8155 137.246 28.8455 137.242 28.8752C137.238 28.8915 137.229 28.9058 137.215 28.9154C137.117 28.95 137.011 28.9591 136.908 28.9419C136.804 28.9248 136.707 28.8818 136.625 28.8171C136.347 28.6457 136.132 28.3884 136.013 28.084Z" fill="#455A64"/>
<path d="M169.935 44.5998C169.888 44.4225 169.784 44.2655 169.64 44.1529L167.405 42.8655C167.212 42.7538 167.065 42.9728 167.065 43.3662V45.0468C167.067 45.2788 167.11 45.5086 167.19 45.7262C167.222 45.8134 167.263 45.8972 167.311 45.9766C167.355 46.051 167.414 46.115 167.485 46.1643L169.72 47.4516C169.912 47.5589 170.064 47.3399 170.064 46.9465V45.2793C170.06 45.0471 170.016 44.8173 169.935 44.5998ZM167.28 45.6056C167.245 45.511 167.229 45.4111 167.23 45.3105V43.6433C167.23 43.3528 167.351 43.174 167.49 43.2589L169.725 44.5462C169.763 44.5691 169.795 44.6014 169.818 44.6401C169.833 44.6656 169.845 44.6926 169.854 44.7205C169.888 44.8166 169.905 44.9181 169.903 45.02V46.6828C169.903 46.9733 169.783 47.1521 169.644 47.0672L167.409 45.7799C167.343 45.7365 167.297 45.6692 167.28 45.5922V45.6056Z" fill="#455A64"/>
<path d="M168.683 44.2335V46.2048L167.485 45.494L167.445 45.4628C167.447 45.4405 167.447 45.418 167.445 45.3957V43.8983C167.445 43.6882 167.539 43.5541 167.642 43.6122L168.683 44.2335Z" fill="#455A64"/>
<path d="M170.171 45.3423C170.256 45.387 170.323 45.7043 170.323 46.044V46.3524C170.323 46.6966 170.256 46.9425 170.171 46.9022L170.02 46.8307V45.2573L170.171 45.3423Z" fill="#455A64"/>
<path d="M164.642 43.8894C164.642 44.2559 164.45 44.4436 164.195 44.3051C164.055 44.197 163.942 44.0582 163.865 43.8992C163.787 43.7403 163.747 43.5656 163.748 43.3887C163.748 43.0222 163.941 42.839 164.195 42.9731C164.336 43.0806 164.449 43.2194 164.527 43.3784C164.605 43.5375 164.644 43.7124 164.642 43.8894Z" fill="#455A64"/>
<path d="M164.209 41.8868C164.124 41.8261 164.026 41.7867 163.924 41.7718C163.821 41.7569 163.716 41.767 163.618 41.8012C163.519 41.8354 163.431 41.8927 163.36 41.9682C163.288 42.0438 163.236 42.1355 163.207 42.2354C163.19 42.2942 163.185 42.3559 163.193 42.4166C163.201 42.4774 163.221 42.5359 163.252 42.5885C163.333 42.7316 163.453 42.7673 163.502 42.6511C163.52 42.5791 163.556 42.5128 163.606 42.458C163.656 42.4032 163.719 42.3618 163.789 42.3374C163.859 42.313 163.934 42.3064 164.008 42.3183C164.081 42.3301 164.15 42.36 164.209 42.4053C164.567 42.6609 164.819 43.0397 164.915 43.4691C164.964 43.639 165.085 43.7462 165.17 43.6926C165.205 43.6514 165.228 43.601 165.236 43.5471C165.244 43.4933 165.237 43.4383 165.214 43.3886C165.07 42.7836 164.713 42.2505 164.209 41.8868Z" fill="#455A64"/>
<path d="M164.209 40.823C164.085 40.7324 163.942 40.6709 163.792 40.6428C163.641 40.6147 163.486 40.6209 163.338 40.6608C163.19 40.7007 163.053 40.7733 162.936 40.8733C162.82 40.9734 162.728 41.0982 162.667 41.2387C162.645 41.2994 162.638 41.364 162.644 41.4281C162.65 41.4921 162.67 41.554 162.702 41.6097C162.778 41.7527 162.895 41.7885 162.948 41.6856C162.998 41.5709 163.073 41.4687 163.167 41.3869C163.262 41.305 163.374 41.2456 163.494 41.2129C163.615 41.1803 163.742 41.1753 163.864 41.1983C163.987 41.2213 164.103 41.2718 164.204 41.3459C164.818 41.7789 165.263 42.4105 165.465 43.1339C165.518 43.2948 165.635 43.3976 165.711 43.344C165.782 43.2993 165.795 43.1562 165.746 43.0132C165.499 42.129 164.956 41.3562 164.209 40.823Z" fill="#455A64"/>
<path d="M126.143 6.6064C126.264 5.71243 126.961 5.41742 127.802 5.90463L173.899 32.5315C174.395 32.8403 174.803 33.2712 175.084 33.7831L180.358 30.7391C180.074 30.2292 179.665 29.8 179.169 29.492L133.081 2.87855C132.561 2.61398 131.986 2.47607 131.402 2.47607C130.819 2.47607 130.244 2.61398 129.724 2.87855L127.802 3.98259C127.354 4.27644 126.975 4.66258 126.689 5.11511C126.403 5.56765 126.217 6.07611 126.143 6.6064Z" fill="#0EA730"/>
<path opacity="0.2" d="M126.143 6.6064C126.264 5.71243 126.961 5.41742 127.802 5.90463L173.899 32.5315C174.395 32.8403 174.803 33.2712 175.084 33.7831L180.358 30.7391C180.074 30.2292 179.665 29.8 179.169 29.492L133.081 2.87855C132.561 2.61398 131.986 2.47607 131.402 2.47607C130.819 2.47607 130.244 2.61398 129.724 2.87855L127.802 3.98259C127.354 4.27644 126.975 4.66258 126.689 5.11511C126.403 5.56765 126.217 6.07611 126.143 6.6064Z" fill="black"/>
<path d="M73.7345 5.92249L27.637 32.5315C27.1506 32.8514 26.746 33.2809 26.4557 33.7854C26.1654 34.29 25.9974 34.8556 25.9653 35.4369V139.388C25.9653 140.456 26.7162 140.894 27.637 140.358L73.7345 113.749C74.2209 113.429 74.6255 112.999 74.9158 112.495C75.2062 111.99 75.3741 111.424 75.4062 110.843V6.88798C75.4062 5.81969 74.6553 5.38611 73.7345 5.92249ZM72.997 101.264C72.997 102.158 72.3533 102.762 71.5577 103.218L29.6484 127.413C28.8573 127.86 28.2091 127.502 28.2091 126.582V45.1543C28.2368 44.6549 28.3815 44.1689 28.6315 43.7357C28.8815 43.3024 29.2298 42.934 29.6484 42.6602L71.5577 18.4694C72.3533 18.0224 72.997 18.38 72.997 19.2963V101.264Z" fill="#0EA730"/>
<path opacity="0.5" d="M73.7345 5.92249L27.637 32.5315C27.1506 32.8514 26.746 33.2809 26.4557 33.7854C26.1654 34.29 25.9974 34.8556 25.9653 35.4369V139.388C25.9653 140.456 26.7162 140.894 27.637 140.358L73.7345 113.749C74.2209 113.429 74.6255 112.999 74.9158 112.495C75.2062 111.99 75.3741 111.424 75.4062 110.843V6.88798C75.4062 5.81969 74.6553 5.38611 73.7345 5.92249ZM72.997 101.264C72.997 102.158 72.3533 102.762 71.5577 103.218L29.6484 127.413C28.8573 127.86 28.2091 127.502 28.2091 126.582V45.1543C28.2368 44.6549 28.3815 44.1689 28.6315 43.7357C28.8815 43.3024 29.2298 42.934 29.6484 42.6602L71.5577 18.4694C72.3533 18.0224 72.997 18.38 72.997 19.2963V101.264Z" fill="black"/>
<path d="M27.4314 140.461C26.9335 140.671 26.3959 140.77 25.8557 140.753C25.3155 140.735 24.7856 140.6 24.3025 140.358L22.3849 139.249C21.8952 138.932 21.4875 138.504 21.1954 137.999C20.9032 137.493 20.7349 136.926 20.7043 136.344V32.3975C20.7135 31.9647 20.8124 31.5385 20.9948 31.1459C21.0532 31.0084 21.1188 30.8741 21.1915 30.7437L26.4659 33.7876C26.3547 33.9861 26.2576 34.1923 26.1754 34.4045C26.05 34.7362 25.982 35.0869 25.9742 35.4415V139.392C25.9653 140.376 26.6045 140.823 27.4314 140.461Z" fill="#0EA730"/>
<path opacity="0.7" d="M27.4314 140.461C26.9335 140.671 26.3959 140.77 25.8557 140.753C25.3155 140.735 24.7856 140.6 24.3025 140.358L22.3849 139.249C21.8952 138.932 21.4875 138.504 21.1954 137.999C20.9032 137.493 20.7349 136.926 20.7043 136.344V32.3975C20.7135 31.9647 20.8124 31.5385 20.9948 31.1459C21.0532 31.0084 21.1188 30.8741 21.1915 30.7437L26.4659 33.7876C26.3547 33.9861 26.2576 34.1923 26.1754 34.4045C26.05 34.7362 25.982 35.0869 25.9742 35.4415V139.392C25.9653 140.376 26.6045 140.823 27.4314 140.461Z" fill="black"/>
<path d="M51.0859 117.905C52.5475 117.065 53.732 117.749 53.732 119.434C53.6825 120.353 53.4171 121.247 52.9574 122.043C52.4976 122.84 51.8564 123.517 51.0859 124.02C49.6242 124.86 48.4397 124.176 48.4397 122.491C48.4892 121.573 48.7546 120.679 49.2143 119.882C49.6741 119.085 50.3153 118.408 51.0859 117.905V117.905Z" stroke="#E6E6E6" stroke-width="1.45697" stroke-miterlimit="10"/>
<path d="M50.706 21.4685C51.3228 21.1109 51.8279 21.4014 51.8279 22.1166C51.8058 22.5064 51.6929 22.8857 51.4981 23.2241C51.3033 23.5625 51.032 23.8506 50.706 24.0654C50.0847 24.423 49.5796 24.1325 49.5796 23.4128C49.601 23.023 49.7143 22.6437 49.91 22.3058C50.1057 21.9679 50.3784 21.681 50.706 21.4685Z" fill="black"/>
<path d="M46.3478 28.3028L55.0238 23.2921C55.5423 22.9971 55.9625 23.2072 55.9625 23.7659C55.9397 24.0814 55.8428 24.3871 55.6798 24.6582C55.5167 24.9292 55.2919 25.158 55.0238 25.3259L46.3478 30.3321C45.8293 30.6316 45.4092 30.4215 45.4092 29.8583C45.4326 29.5436 45.5298 29.2388 45.6929 28.9685C45.856 28.6983 46.0803 28.4703 46.3478 28.3028Z" fill="black"/>
<path d="M72.9971 101.264C72.9971 102.158 72.3534 102.762 71.5578 103.218L29.6485 127.413C28.8574 127.86 28.2092 127.502 28.2092 126.581V45.1542C28.2369 44.6548 28.3816 44.1688 28.6316 43.7356C28.8816 43.3023 29.2299 42.9339 29.6485 42.66L71.5578 18.4692C72.3534 18.0222 72.9971 18.3798 72.9971 19.2961V101.264Z" fill="#0EA730"/>
<path opacity="0.9" d="M72.9971 101.264C72.9971 102.158 72.3534 102.762 71.5578 103.218L29.6485 127.413C28.8574 127.86 28.2092 127.502 28.2092 126.581V45.1542C28.2369 44.6548 28.3816 44.1688 28.6316 43.7356C28.8816 43.3023 29.2299 42.9339 29.6485 42.66L71.5578 18.4692C72.3534 18.0222 72.9971 18.3798 72.9971 19.2961V101.264Z" fill="white"/>
<path d="M62.0906 29.2101C62.0906 29.5811 62.2828 29.7644 62.5376 29.6258C62.6756 29.521 62.7877 29.3859 62.8652 29.2309C62.9427 29.0759 62.9836 28.9052 62.9846 28.7319C62.9846 28.3653 62.7924 28.1776 62.5376 28.3162C62.3996 28.421 62.2875 28.5561 62.21 28.7111C62.1325 28.8661 62.0916 29.0368 62.0906 29.2101Z" fill="#455A64"/>
<path d="M61.5185 28.7186C61.4962 28.7683 61.4886 28.8232 61.4965 28.8771C61.5045 28.9309 61.5276 28.9814 61.5632 29.0225C61.6481 29.0717 61.7688 28.9644 61.8179 28.7946C61.9167 28.3661 62.1677 27.9881 62.5242 27.7307C62.5833 27.6855 62.6527 27.6558 62.7262 27.6442C62.7998 27.6326 62.875 27.6395 62.9452 27.6644C63.0153 27.6893 63.0781 27.7312 63.128 27.7865C63.1778 27.8418 63.213 27.9087 63.2304 27.9811C63.2796 28.0928 63.4003 28.0615 63.4807 27.914C63.5126 27.8608 63.533 27.8015 63.5407 27.7399C63.5484 27.6784 63.5432 27.6159 63.5254 27.5564C63.4964 27.4568 63.4438 27.3657 63.3722 27.2906C63.3006 27.2155 63.212 27.1588 63.1139 27.125C63.0158 27.0913 62.9111 27.0816 62.8084 27.0968C62.7058 27.112 62.6083 27.1516 62.5242 27.2123C62.0187 27.5771 61.6617 28.1119 61.5185 28.7186Z" fill="#455A64"/>
<path d="M60.9866 28.3432C60.9374 28.4862 60.9508 28.6293 61.0223 28.674C61.0983 28.7231 61.2145 28.6248 61.2682 28.4639C61.4721 27.7416 61.9168 27.1107 62.5287 26.6759C62.6297 26.6019 62.7461 26.5517 62.8692 26.529C62.9923 26.5062 63.119 26.5116 63.2398 26.5447C63.3605 26.5778 63.4723 26.6378 63.5666 26.7201C63.661 26.8024 63.7355 26.905 63.7847 27.0201C63.8383 27.1185 63.9545 27.0872 64.0305 26.9441C64.0621 26.8882 64.0812 26.8261 64.0866 26.762C64.092 26.698 64.0836 26.6336 64.0618 26.5731C64.0004 26.4332 63.9083 26.3088 63.7923 26.2092C63.6764 26.1097 63.5395 26.0375 63.3918 25.998C63.2442 25.9585 63.0895 25.9527 62.9393 25.9811C62.7891 26.0095 62.6473 26.0713 62.5242 26.1619C61.7784 26.6929 61.236 27.4623 60.9866 28.3432Z" fill="#455A64"/>
<path d="M30.8598 47.6393V46.9778C30.8582 46.9095 30.8723 46.8417 30.901 46.7798C30.9296 46.7178 30.9721 46.6632 31.0252 46.6202L31.0744 46.5934C31.1638 46.5397 31.2397 46.5934 31.2397 46.7543V47.4158C31.2413 47.4841 31.2272 47.5518 31.1986 47.6138C31.1699 47.6758 31.1274 47.7304 31.0744 47.7734L31.0252 47.8002C30.9313 47.8539 30.8598 47.7823 30.8598 47.6393Z" fill="#455A64"/>
<path d="M31.6241 47.1968V46.0525C31.6226 45.9842 31.6366 45.9165 31.6653 45.8545C31.694 45.7925 31.7365 45.7379 31.7895 45.6949L31.8387 45.6681C31.9326 45.6144 32.0086 45.6681 32.0086 45.829V46.9733C32.0096 47.0419 31.9948 47.1099 31.9654 47.1719C31.9359 47.2339 31.8926 47.2883 31.8387 47.3308L31.7895 47.3577C31.7001 47.4113 31.6241 47.3398 31.6241 47.1968Z" fill="#455A64"/>
<path d="M32.3795 46.7546V45.1276C32.3792 45.0597 32.3943 44.9926 32.4237 44.9314C32.4531 44.8702 32.4961 44.8166 32.5494 44.7745L32.5941 44.7477C32.6879 44.694 32.7639 44.7477 32.7639 44.9086V46.5311C32.765 46.5998 32.7502 46.6677 32.7208 46.7297C32.6913 46.7918 32.6479 46.8462 32.5941 46.8887L32.5494 46.9155C32.4644 46.9692 32.3795 46.8977 32.3795 46.7546Z" fill="#455A64"/>
<path d="M33.1573 46.3121V43.505C33.1564 43.4375 33.1708 43.3707 33.1995 43.3095C33.2281 43.2483 33.2703 43.1945 33.3227 43.1519L33.3719 43.1251C33.4657 43.0715 33.5417 43.1251 33.5417 43.286V46.0886C33.5433 46.1569 33.5292 46.2246 33.5006 46.2866C33.4719 46.3486 33.4294 46.4032 33.3764 46.4462L33.3272 46.473C33.2333 46.5267 33.1573 46.4551 33.1573 46.3121Z" fill="#455A64"/>
<path d="M35.2313 45.3061C35.2313 45.3061 35.2313 45.2658 35.2313 45.2256V44.8144L34.3686 45.3105C34.3239 45.3374 34.3016 45.3105 34.3016 45.2614V45.1139C34.299 45.0871 34.299 45.0602 34.3016 45.0334L34.3329 44.9485L35.2269 42.946C35.2396 42.918 35.2545 42.8911 35.2716 42.8655C35.2891 42.8472 35.3086 42.8307 35.3297 42.8164L35.4503 42.7493C35.4861 42.7255 35.5129 42.7255 35.5308 42.7493C35.5418 42.7781 35.5418 42.8099 35.5308 42.8387V44.2735L35.723 44.1663C35.7588 44.1439 35.7811 44.1394 35.799 44.1663C35.8169 44.1931 35.799 44.2065 35.799 44.2512V44.3495C35.8069 44.3849 35.8069 44.4215 35.799 44.4568C35.7806 44.487 35.7543 44.5118 35.723 44.5283L35.5308 44.6401V45.0468C35.5345 45.0842 35.5267 45.1219 35.5083 45.1547C35.4899 45.1874 35.4619 45.2138 35.428 45.2301L35.285 45.3105C35.2715 45.3105 35.2447 45.315 35.2313 45.3061ZM35.2626 44.4121V43.384L34.6413 44.7697L35.2626 44.4121Z" fill="#455A64"/>
<path d="M36.2504 44.466C36.0805 44.3409 36.0001 44.0727 36.0001 43.6614C35.9943 43.2816 36.0802 42.906 36.2504 42.5663C36.4117 42.2563 36.6583 41.9988 36.9611 41.8243C37.0689 41.7604 37.1846 41.7109 37.3053 41.6768C37.3926 41.6494 37.4862 41.6494 37.5735 41.6768C37.5762 41.6816 37.5777 41.687 37.5777 41.6925C37.5777 41.698 37.5762 41.7034 37.5735 41.7081C37.5767 41.7244 37.5767 41.7411 37.5735 41.7573L37.493 41.9808C37.493 42.0121 37.493 42.03 37.4617 42.0344H37.426C37.2686 42.0192 37.1107 42.0587 36.979 42.1462C36.7717 42.2686 36.6029 42.4467 36.4918 42.6602C36.3691 42.9118 36.3092 43.1894 36.3174 43.4692C36.3174 43.7866 36.3756 43.9922 36.4873 44.0771C36.599 44.1621 36.76 44.1531 36.9566 44.0414C37.0304 43.9978 37.1007 43.9485 37.1667 43.8939C37.2297 43.8457 37.2867 43.7902 37.3366 43.7285V43.0625L36.979 43.2681C36.9432 43.2905 36.9164 43.2949 36.903 43.2681C36.8927 43.2407 36.8927 43.2105 36.903 43.1832V43.0893C36.8944 43.0526 36.8944 43.0143 36.903 42.9776C36.9214 42.9473 36.9477 42.9226 36.979 42.906L37.5511 42.5797C37.5914 42.5529 37.6182 42.5529 37.6361 42.5797C37.6539 42.6066 37.6629 42.6289 37.6629 42.6826V43.6346C37.6659 43.6644 37.6659 43.6943 37.6629 43.724C37.6554 43.7485 37.6433 43.7713 37.6271 43.7911C37.4478 44.0398 37.2158 44.2458 36.9477 44.3945C36.6572 44.5644 36.4024 44.6001 36.2504 44.466Z" fill="#455A64"/>
<path d="M68.992 23.0417C68.9489 22.9964 68.891 22.968 68.8288 22.9614C68.7665 22.9549 68.704 22.9707 68.6523 23.006L66.0777 24.4855C65.9517 24.5856 65.8505 24.7136 65.7823 24.8594C65.714 25.0052 65.6805 25.1649 65.6844 25.3258V26.7651C65.6775 26.8457 65.687 26.9269 65.7124 27.0037C65.7377 27.0805 65.7784 27.1514 65.8319 27.2121C65.8694 27.2508 65.9177 27.2772 65.9704 27.2881C66.0401 27.3004 66.112 27.2861 66.1716 27.2478L68.7462 25.7639C68.8723 25.6637 68.9734 25.5357 69.0416 25.3899C69.1099 25.2441 69.1434 25.0845 69.1396 24.9235V23.4842C69.1458 23.4044 69.136 23.324 69.1106 23.248C69.0853 23.172 69.045 23.1019 68.992 23.0417ZM65.9257 27.0109C65.8833 26.9513 65.8642 26.8781 65.8721 26.8053V25.3795C65.8708 25.2573 65.897 25.1363 65.9489 25.0257C66.0007 24.915 66.0769 24.8175 66.1716 24.7403L68.7462 23.2563C68.7781 23.2359 68.8158 23.2265 68.8535 23.2295H68.8982C68.9406 23.2891 68.9597 23.3623 68.9518 23.4351V24.8744C68.9531 24.9966 68.9269 25.1175 68.875 25.2281C68.8232 25.3388 68.7471 25.4363 68.6523 25.5135L66.0777 26.9975C66.0151 27.0422 65.9615 27.0467 65.9257 27.0109Z" fill="#455A64"/>
<path d="M67.5483 24.1904V25.8979L66.1627 26.698H66.118C66.1204 26.6787 66.1204 26.6592 66.118 26.6399V25.3794C66.1181 25.2889 66.1383 25.1995 66.1769 25.1176C66.2155 25.0357 66.2717 24.9633 66.3414 24.9056L67.5483 24.1904Z" fill="#455A64"/>
<path d="M69.2692 23.4131C69.3631 23.3595 69.4391 23.5561 69.4391 23.8601V24.1283C69.4616 24.3583 69.3996 24.5887 69.2648 24.7764L69.0949 24.8881V23.5472L69.2692 23.4131Z" fill="#455A64"/>
<path d="M75.3929 6.60635C75.2722 5.71238 74.5749 5.41737 73.7346 5.90458L27.637 32.5315C27.1414 32.8402 26.7336 33.2712 26.4525 33.783L21.1781 30.7435C21.4621 30.2336 21.8713 29.8044 22.3671 29.4964L68.4557 2.8785C68.9748 2.61397 69.5492 2.47607 70.1319 2.47607C70.7145 2.47607 71.2889 2.61397 71.8081 2.8785L73.7346 3.98255C74.1821 4.27639 74.5615 4.66253 74.8475 5.11507C75.1336 5.5676 75.3195 6.07606 75.3929 6.60635Z" fill="#0EA730"/>
<path opacity="0.2" d="M75.3929 6.60635C75.2722 5.71238 74.5749 5.41737 73.7346 5.90458L27.637 32.5315C27.1414 32.8402 26.7336 33.2712 26.4525 33.783L21.1781 30.7435C21.4621 30.2336 21.8713 29.8044 22.3671 29.4964L68.4557 2.8785C68.9748 2.61397 69.5492 2.47607 70.1319 2.47607C70.7145 2.47607 71.2889 2.61397 71.8081 2.8785L73.7346 3.98255C74.1821 4.27639 74.5615 4.66253 74.8475 5.11507C75.1336 5.5676 75.3195 6.07606 75.3929 6.60635Z" fill="black"/>
<path d="M160.266 106.543C160.266 106.543 155.488 111.326 149.136 109.498C149.136 109.498 151.05 111.384 155.551 110.119C158.586 109.265 160.266 106.543 160.266 106.543Z" fill="#0EA730"/>
<path d="M169.751 77.2295C169.751 77.2295 172.192 83.532 167.963 88.6008C167.963 88.6008 170.462 87.6174 171.124 82.9867C171.557 79.8488 169.751 77.2295 169.751 77.2295Z" fill="#0EA730"/>
<path d="M159.77 108.55C164.24 103.95 166.184 98.5822 166.229 93.0977C166.229 93.0977 167.53 96.3606 165.501 101.51C163.471 106.659 159.77 108.55 159.77 108.55Z" fill="#0EA730"/>
<path d="M36.4606 101.899C36.4606 101.899 36.4025 108.657 42.1596 111.907C42.1596 111.907 39.4777 111.862 37.2428 107.768C35.7007 105.005 36.4606 101.899 36.4606 101.899Z" fill="#0EA730"/>
<path d="M35.0034 104.608C34.0097 98.89 35.3159 93.0113 38.6374 88.2524C38.6374 88.2524 35.6962 90.17 34.391 95.5517C33.0858 100.933 35.0034 104.608 35.0034 104.608Z" fill="#0EA730"/>
<path d="M135.124 66.9493L137.014 61.2949C132.035 62.1889 130.681 62.8683 129.21 66.985L128.236 70.2659L122.273 88.6191C120.86 88.9901 103.276 93.8354 102.664 93.9114C102.664 93.9114 102.637 93.9561 102.619 93.9784C96.8751 94.345 95.0201 94.5997 95.0201 94.5997C96.6337 98.8193 99.6598 101.197 103.839 102.055V101.957V101.988C111.237 100.728 123.372 97.8672 127.319 96.5575C128.982 96.0256 129.693 94.1528 130.377 92.5883C133.17 86.2009 136.089 77.592 137.081 72.4114C137.725 69.2915 136.782 67.7315 135.124 66.9493Z" fill="#B16668"/>
<path d="M137.014 61.2729C137.014 61.2729 132.066 60.513 129.921 65.0544C128.481 68.1207 124.079 81.2531 124.079 81.2531C124.079 81.2531 127.208 85.2759 134.06 85.5218C134.06 85.5218 140.532 70.6596 140.17 70.1857C139.808 69.7119 137.014 61.2729 137.014 61.2729Z" fill="#37474F"/>
<path d="M136.107 61.1787C134.905 61.295 131.856 65.3715 131.794 72.3087C131.709 81.6015 136.263 92.9772 137.408 95.4312C138.552 97.8851 140.778 102.69 144.559 106.257C145.78 107.401 154.112 110.642 159.48 104.608C164.942 98.4707 164.079 90.4071 162.989 87.8816C161.16 83.6531 157.929 78.7318 158.045 73.1669C157.361 69.1708 156.051 63.9992 153.066 61.8313C151.836 61.5185 147.965 61.0223 147.21 61.1251L136.107 61.1787Z" fill="#FAFAFA"/>
<path d="M151.841 68.5542L150.317 70.4673C150.764 73.5023 153.066 77.8872 155.743 81.3871C157.83 84.1182 162.077 86.9342 163.789 91.7572C163.741 90.4322 163.48 89.1237 163.015 87.8818C161.187 83.6533 157.956 78.732 158.072 73.1671C157.96 72.5055 157.826 71.8261 157.674 71.1065L156.244 69.8102L151.841 68.5542Z" fill="#EBEBEB"/>
<path d="M153.066 61.8315C155.68 62.4752 157.088 63.8564 159.377 66.4712C162.005 69.4213 167.369 75.6255 167.369 75.6255C171.119 82.1246 167.749 88.7355 164.937 87.6494C164.937 87.6494 158.599 81.4586 154.71 76.7653C152.105 73.6364 150.777 71.8485 150.629 68.4022C150.504 65.6935 150.987 62.9267 153.066 61.8315Z" fill="#B16668"/>
<path d="M151.698 61.5853C151.698 61.5853 153.955 61.0847 156.892 63.4492C159.828 65.8138 167.007 73.6271 167.007 73.6271C167.007 73.6271 167.222 81.9008 161.952 85.6331C161.952 85.6331 154.174 77.8287 152.257 75.129C150.923 73.1429 150.164 70.8264 150.066 68.436C149.967 66.0456 150.532 63.6745 151.698 61.5853Z" fill="#37474F"/>
<path d="M150.317 45.9409C150.317 45.9409 149.181 52.8737 148.649 54.0269C148.292 54.742 147.672 55.2913 146.92 55.56L146.808 50.746L150.317 45.9409Z" fill="#263238"/>
<path d="M146.629 35.8792C146.629 35.8792 148.502 34.9361 149.785 36.1295C151.068 37.323 151.152 41.4263 150.187 46.7409L146.96 46.5711L146.629 35.8792Z" fill="#263238"/>
<path d="M136.726 51.2883C141.615 50.321 144.795 45.5733 143.827 40.6839C142.86 35.7945 138.112 32.6149 133.223 33.5821C128.334 34.5494 125.154 39.2971 126.121 44.1866C127.089 49.076 131.836 52.2555 136.726 51.2883Z" fill="#263238"/>
<path d="M146.897 36.5812L149.691 34.0155C149.531 33.824 149.335 33.6669 149.113 33.5537C148.891 33.4404 148.648 33.3734 148.399 33.3567C148.151 33.34 147.901 33.3739 147.666 33.4564C147.431 33.5389 147.215 33.6683 147.031 33.8367C146.66 34.1891 146.439 34.6709 146.414 35.1821C146.389 35.6932 146.562 36.1943 146.897 36.5812Z" fill="#263238"/>
<path d="M130.184 37.1576C129.617 38.1365 126.778 42.2487 127.815 49.9726C128.79 57.2451 131.128 58.9526 132.37 59.337C133.613 59.7214 136.107 59.5023 138.288 58.89L138.682 61.9786C138.682 61.9786 137.408 64.0258 139.129 65.1567C140.849 66.2876 144.635 65.4562 145.512 64.7589C147.572 63.1095 147.259 61.7194 147.259 61.7194L146.812 51.6891C146.812 51.6891 148.363 52.9674 150.361 51.4611C152.248 50.0441 152.332 46.2984 150.741 45.0111C149.15 43.7238 146.598 44.4926 146.249 46.5621C146.249 46.5621 146.182 38.874 141.815 36.8313C136.223 34.2119 130.184 37.1576 130.184 37.1576Z" fill="#B16668"/>
<path d="M145.748 47.5634C145.994 47.4338 146.414 45.3777 147.626 44.6804C148.739 44.0367 146.638 34.8467 146.629 34.802C146.504 34.1271 145.811 33.3359 145.359 32.8442C144.677 32.1202 143.822 31.5819 142.874 31.2798C141.571 30.882 140.193 30.7993 138.851 31.0384C136.768 31.3602 134.77 32.2274 132.665 32.2363C130.667 32.2363 128.758 31.463 126.801 31.0742C126.426 30.9565 126.021 30.9836 125.665 31.1501C125.483 31.276 125.34 31.4512 125.254 31.6552C125.008 32.2469 124.986 32.9078 125.192 33.5147C125.406 34.1155 125.707 34.6817 126.085 35.1954C125.388 34.8691 124.405 34.8422 124.003 35.4948C123.685 36.0089 123.882 36.6793 124.172 37.2068C125.397 39.4059 127.574 40.3714 129.862 40.8944C130.824 41.0574 131.797 41.1471 132.772 41.1626C135.24 41.3012 137.609 40.3133 139.884 39.3478C140.51 39.0796 141.73 38.6237 142.414 39.178C143.263 39.8663 143.223 42.0923 143.478 43.9205C143.867 46.7857 144.819 48.064 145.748 47.5634Z" fill="#263238"/>
<path d="M137.868 53.0928L135.378 54.2058C135.444 54.3739 135.544 54.527 135.67 54.6558C135.797 54.7846 135.948 54.8865 136.115 54.9554C136.282 55.0243 136.461 55.0587 136.642 55.0566C136.823 55.0545 137.001 55.016 137.166 54.9433C137.498 54.7839 137.757 54.5029 137.887 54.1584C138.018 53.8139 138.011 53.4323 137.868 53.0928Z" fill="#9A4A4D"/>
<path d="M128.928 47.1522C128.946 47.3329 129.017 47.5044 129.132 47.6452C129.246 47.786 129.4 47.89 129.573 47.9441C129.746 47.9983 129.932 48.0003 130.106 47.9498C130.281 47.8993 130.436 47.7987 130.554 47.6603C130.672 47.522 130.746 47.3521 130.768 47.1718C130.789 46.9916 130.758 46.8089 130.676 46.6465C130.595 46.4842 130.468 46.3493 130.31 46.2588C130.153 46.1683 129.972 46.1262 129.791 46.1376C129.542 46.1581 129.312 46.2764 129.15 46.4666C128.988 46.6568 128.909 46.9034 128.928 47.1522Z" fill="#263238"/>
<path d="M136.107 46.7098C136.125 46.8905 136.195 47.062 136.31 47.2028C136.425 47.3436 136.578 47.4476 136.752 47.5017C136.925 47.5559 137.11 47.5579 137.285 47.5074C137.459 47.457 137.615 47.3563 137.733 47.218C137.85 47.0796 137.925 46.9097 137.946 46.7294C137.968 46.5492 137.936 46.3665 137.855 46.2041C137.774 46.0418 137.646 45.907 137.489 45.8165C137.331 45.726 137.151 45.6838 136.97 45.6952C136.846 45.7048 136.726 45.7387 136.616 45.7949C136.505 45.8512 136.407 45.9287 136.327 46.023C136.247 46.1173 136.186 46.2266 136.148 46.3444C136.111 46.4623 136.097 46.5865 136.107 46.7098Z" fill="#263238"/>
<path d="M133.675 46.9062L133.51 52.4533L130.591 51.5415L133.675 46.9062Z" fill="#9A4A4D"/>
<path d="M138.288 58.9033C140.121 58.4831 143.706 56.9411 144.385 55.6001C144.385 55.6001 144.452 56.4538 143.366 57.7501C142.28 59.0463 138.471 60.3426 138.471 60.3426L138.288 58.9033Z" fill="#9A4A4D"/>
<path d="M128.2 45.2259L130.269 44.3319C130.141 44.055 129.911 43.8382 129.627 43.7266C129.343 43.615 129.027 43.6173 128.745 43.733C128.61 43.7931 128.487 43.8799 128.386 43.9882C128.285 44.0966 128.206 44.2242 128.155 44.3636C128.104 44.5029 128.082 44.6511 128.09 44.7993C128.097 44.9474 128.135 45.0925 128.2 45.2259Z" fill="#263238"/>
<path d="M136.666 43.8891L138.641 44.9618C138.782 44.6913 138.812 44.3765 138.724 44.0843C138.637 43.7921 138.439 43.5457 138.172 43.3974C138.042 43.3266 137.898 43.2831 137.751 43.2697C137.603 43.2562 137.454 43.273 137.313 43.319C137.172 43.365 137.042 43.4393 136.931 43.5373C136.819 43.6353 136.729 43.755 136.666 43.8891Z" fill="#263238"/>
<path d="M77.172 60.3425H61.7689C58.091 60.3414 54.5635 58.8822 51.9595 56.2849C49.3555 53.6876 47.8873 50.1639 47.8766 46.486V44.0678C47.8695 40.5193 49.272 37.1132 51.7758 34.5985C54.2795 32.0839 57.6795 30.6666 61.228 30.6583H63.7401C65.4973 30.653 67.2383 30.9941 68.8635 31.6622C70.4887 32.3303 71.9663 33.3123 73.2117 34.5519C74.4572 35.7915 75.446 37.2645 76.1217 38.8866C76.7974 40.5087 77.1467 42.248 77.1496 44.0052L77.172 60.3425Z" fill="#263238"/>
<path d="M64.4239 61.2097C69.9486 60.794 73.4306 63.3552 73.5468 68.4911C73.6094 71.0791 71.3656 81.3821 71.3656 81.3821L64.4239 61.2097Z" fill="#FFA8A7"/>
<path d="M64.4239 61.21C67.2355 61.4916 70.3376 66.2922 73.0373 72.465C74.0967 74.8966 76.0321 78.1686 73.5916 82.7189C72.0808 85.5304 68.9698 86.6657 68.9698 86.6657C67.8435 90.1929 66.2178 93.5405 64.1423 96.6067C62.8459 100.735 60.4876 104.449 57.3035 107.379C56.0519 108.488 48.404 115.259 42.2401 110.034C38.5748 106.928 37.2964 101.988 37.6719 97.3263C37.8909 94.5863 38.4988 91.8776 40.4253 89.9153C41.536 88.7851 42.5624 87.575 43.4961 86.2947C44.475 81.6327 43.3531 78.468 43.2369 72.8852C43.9208 68.8892 45.6148 65.501 48.6007 63.3376C50.8121 62.4625 53.1379 61.9101 55.5066 61.6972L64.4239 61.21Z" fill="#0EA730"/>
<path opacity="0.1" d="M64.3301 96.3294L63.9546 93.3212C63.9546 93.3212 50.992 73.0013 50.4423 72.4291C50.1204 72.0849 47.0094 70.0109 44.5778 68.4062C43.9413 69.8326 43.4906 71.3349 43.2369 72.8761C43.3531 78.4411 44.475 81.6057 43.4961 86.2856C43.4961 86.2856 42.8301 87.2288 41.7529 88.4669C43.6749 88.9676 46.8083 86.5494 46.8083 86.5494C46.8083 86.5494 53.0661 95.3952 55.8195 98.5375C58.3896 101.483 59.9273 101.921 61.827 101.792C62.8045 100.159 63.5819 98.4156 64.1423 96.5976C64.2094 96.5126 64.2675 96.4188 64.3301 96.3294Z" fill="black"/>
<path opacity="0.05" d="M73.5916 82.7185C73.7212 82.4727 73.8419 82.2313 73.9492 81.9899C71.4326 83.9209 69.6804 82.5621 67.5707 82.1553C65.3894 81.7351 63.7713 84.8372 59.6903 84.4528C54.3265 83.9343 52.3821 80.5596 52.3821 80.5596C52.3821 80.5596 52.2391 86.4017 58.8858 87.6845C63.3288 88.5427 64.9603 86.1424 66.1895 86.1424C66.7259 86.1424 67.2042 86.5581 68.9697 86.6654C68.9697 86.6654 72.0808 85.53 73.5916 82.7185Z" fill="black"/>
<path d="M72.0853 37.895C72.6395 38.8516 75.3929 42.8431 74.3872 50.3391C73.4396 57.397 71.1689 58.5457 69.9621 58.9212C68.7552 59.2966 66.337 59.0776 64.2183 58.4742L63.7401 62.7206C63.7401 62.7206 65.7962 65.6438 65.3894 67.5659C64.9827 69.4879 60.8749 69.2421 58.3003 67.0295C56.7505 65.6691 55.7573 63.7846 55.5111 61.7372L55.9581 51.9929C55.9581 51.9929 54.4517 53.2355 52.5118 51.7739C50.6836 50.3972 50.5987 46.7632 52.1453 45.5161C53.6918 44.269 56.1681 45.011 56.5034 47.018C56.5034 47.018 61.295 48.1265 65.5369 46.124C70.9499 43.5851 71.7411 39.9065 72.0853 37.895Z" fill="#FFA8A7"/>
<path d="M56.5928 49.6953L56.4631 45.2612C57.0656 45.2596 57.6453 45.4915 58.0804 45.9083C58.5155 46.325 58.7721 46.8942 58.7964 47.4962C58.8012 47.7867 58.7475 48.0752 58.6384 48.3445C58.5294 48.6138 58.3672 48.8584 58.1615 49.0636C57.9558 49.2689 57.7109 49.4306 57.4414 49.5391C57.1719 49.6476 56.8833 49.7008 56.5928 49.6953Z" fill="#263238"/>
<path d="M66.2834 53.7095L68.6971 54.7912C68.6325 54.9533 68.5361 55.1008 68.4135 55.225C68.2909 55.3492 68.1446 55.4476 67.9833 55.5142C67.822 55.5809 67.649 55.6146 67.4745 55.6132C67.3 55.6119 67.1275 55.5755 66.9673 55.5063C66.643 55.3535 66.3905 55.0809 66.263 54.7458C66.1355 54.4107 66.1428 54.0393 66.2834 53.7095Z" fill="#F28F8F"/>
<path d="M73.301 47.6616C73.3012 47.7836 73.2764 47.9044 73.2282 48.0166C73.18 48.1287 73.1093 48.2297 73.0205 48.3135C72.9317 48.3972 72.8267 48.4619 72.712 48.5035C72.5973 48.5452 72.4752 48.5629 72.3534 48.5556C72.1117 48.5351 71.888 48.4196 71.7313 48.2344C71.5746 48.0492 71.4977 47.8095 71.5175 47.5677C71.5329 47.3306 71.6419 47.1094 71.8205 46.9526C71.9089 46.875 72.0117 46.8156 72.1231 46.7777C72.2345 46.7398 72.3522 46.7242 72.4696 46.7319C72.587 46.7395 72.7017 46.7702 72.8073 46.8221C72.9128 46.8741 73.0071 46.9464 73.0847 47.0348C73.1623 47.1232 73.2218 47.226 73.2597 47.3374C73.2975 47.4488 73.3131 47.5665 73.3055 47.6839L73.301 47.6616Z" fill="#263238"/>
<path d="M66.8243 48.1754C66.8056 48.3494 66.7362 48.5141 66.6248 48.6491C66.5134 48.7841 66.3649 48.8834 66.1976 48.9347C66.0303 48.986 65.8516 48.9871 65.6837 48.9378C65.5158 48.8885 65.366 48.7911 65.253 48.6575C65.1399 48.5239 65.0686 48.36 65.0478 48.1863C65.027 48.0125 65.0576 47.8365 65.1359 47.68C65.2142 47.5235 65.3368 47.3934 65.4883 47.3059C65.6398 47.2184 65.8137 47.1772 65.9884 47.1876C66.1092 47.1948 66.2272 47.2264 66.3354 47.2805C66.4436 47.3347 66.5397 47.4102 66.6179 47.5026C66.696 47.5949 66.7546 47.7022 66.7901 47.8178C66.8256 47.9335 66.8372 48.0552 66.8243 48.1754Z" fill="#263238"/>
<path d="M69.4167 47.6035L69.5776 52.9897L72.4115 52.1046L69.4167 47.6035Z" fill="#F28F8F"/>
<path d="M64.2183 58.4563C62.4304 58.0496 58.9618 56.5522 58.3003 55.2515C58.3003 55.2515 58.2377 56.0829 59.2926 57.3389C60.3475 58.5949 64.0619 59.8331 64.0619 59.8331L64.2183 58.4563Z" fill="#F28F8F"/>
<path d="M73.5872 45.2612L71.5802 44.394C71.7052 44.1259 71.9285 43.916 72.2039 43.8078C72.4792 43.6997 72.7856 43.7015 73.0597 43.8129C73.1914 43.8711 73.31 43.9552 73.4084 44.0603C73.5067 44.1655 73.5828 44.2894 73.6321 44.4246C73.6813 44.5599 73.7027 44.7037 73.695 44.8475C73.6873 44.9912 73.6506 45.1319 73.5872 45.2612Z" fill="#263238"/>
<path d="M61.5677 100.218L65.9303 91.8729C67.3785 92.0829 68.8267 92.2841 70.275 92.4852C73.158 92.883 84.051 94.2195 84.6679 94.2285C85.8704 94.2094 87.0572 93.9511 88.1588 93.4686C89.8842 92.8205 91.1626 91.7835 92.5572 91.4974C93.2032 91.37 93.8645 91.3399 94.5194 91.408C95.3464 91.4661 95.1318 91.9086 95.9498 92.0517C96.1844 92.0727 96.408 92.1612 96.5934 92.3064C96.9063 92.6014 96.6784 92.7802 96.513 93.0216C96.3375 93.3269 96.225 93.6643 96.1822 94.0139C96.1196 94.3134 95.8738 95.3325 96.2984 95.4979C98.359 96.298 98.5915 97.478 101.264 99.7711C102.543 100.866 103.231 101.657 104.094 102.216C104.635 103.034 104.675 103.557 102.753 104.683C101.475 105.443 99.177 106.918 95.4179 105.738C91.3235 104.455 89.2271 102.162 88.1723 102.113C80.6897 101.693 65.6397 101.072 61.5677 100.218Z" fill="#FFA8A7"/>
<path d="M65.9302 91.8731L54.9076 73.8015C54.9076 73.8015 53.0973 63.7041 48.6051 63.3555C48.6051 63.3555 44.4929 64.4148 43.5542 66.8822C42.4233 69.868 42.477 72.7913 45.8517 79.3978C48.3995 84.404 55.3054 93.8398 58.0678 97.0358C59.1852 98.3275 60.4055 99.8428 61.5677 100.2" fill="#FFA8A7"/>
<path d="M88.3063 102.127C88.7288 102.233 89.1225 102.432 89.4595 102.708C90.1489 102.584 90.7917 102.275 91.3189 101.814C93.384 100.308 100.482 103.334 98.7344 105.278C97.465 106.691 96.2268 107.066 94.202 106.436C91.2161 105.524 88.0336 104.161 88.3063 102.127Z" fill="#B16668"/>
<path d="M95.1899 91.6582C92.8388 92.0649 90.3982 93.7814 89.1243 94.2999C87.8504 94.8184 86.5363 95.1268 87.7074 96.2487C88.8785 97.3707 91.7302 96.2487 93.7015 95.5514C95.0424 95.0687 96.7365 95.5514 97.4919 95.8643C98.0461 96.0923 97.7511 94.5949 97.7511 94.5949C97.3041 93.9423 102.851 94.5949 102.668 93.9512C99.7357 94.0764 97.0851 91.2246 95.1899 91.6582Z" fill="#B16668"/>
</svg>
