<svg width="237" height="176" viewBox="0 0 237 176" fill="none" xmlns="http://www.w3.org/2000/svg">
<path d="M236.204 154.666H0V154.784H236.204V154.666Z" fill="#EBEBEB"/>
<path d="M212.536 162.267H196.89V162.385H212.536V162.267Z" fill="#EBEBEB"/>
<path d="M156.471 163.552H152.366V163.67H156.471V163.552Z" fill="#EBEBEB"/>
<path d="M196.417 157.883H187.352V158.001H196.417V157.883Z" fill="#EBEBEB"/>
<path d="M45.1858 158.677H24.7825V158.795H45.1858V158.677Z" fill="#EBEBEB"/>
<path d="M52.3852 158.677H49.3949V158.795H52.3852V158.677Z" fill="#EBEBEB"/>
<path d="M106.362 160.67H62.1074V160.789H106.362V160.67Z" fill="#EBEBEB"/>
<path d="M111.96 133.597H20.7434C20.0288 133.595 19.3439 133.311 18.8391 132.805C18.3342 132.299 18.0507 131.614 18.0507 130.899V2.67382C18.0569 1.96334 18.3432 1.28399 18.8473 0.783354C19.3515 0.282716 20.0329 0.0012171 20.7434 0H111.96C112.676 0 113.362 0.284194 113.868 0.790063C114.374 1.29593 114.658 1.98204 114.658 2.69744V130.899C114.658 131.615 114.374 132.301 113.868 132.807C113.362 133.313 112.676 133.597 111.96 133.597ZM20.7434 0.0944818C20.0601 0.0957332 19.4053 0.368036 18.9226 0.851621C18.4399 1.33521 18.1688 1.99056 18.1688 2.67382V130.899C18.1688 131.583 18.4399 132.238 18.9226 132.721C19.4053 133.205 20.0601 133.477 20.7434 133.479H111.96C112.644 133.477 113.3 133.205 113.783 132.722C114.266 132.238 114.539 131.583 114.54 130.899V2.67382C114.539 1.99012 114.266 1.33478 113.783 0.851333C113.3 0.367882 112.644 0.0957306 111.96 0.0944818H20.7434Z" fill="#EBEBEB"/>
<path d="M214.147 133.597H122.925C122.21 133.595 121.525 133.311 121.019 132.805C120.513 132.3 120.229 131.614 120.228 130.899V2.67382C120.235 1.96291 120.522 1.28357 121.027 0.783059C121.532 0.282551 122.214 0.00120383 122.925 0H214.147C214.857 0.00245864 215.537 0.284507 216.04 0.785012C216.543 1.28552 216.829 1.96415 216.835 2.67382V130.899C216.835 131.613 216.552 132.298 216.048 132.803C215.544 133.309 214.861 133.594 214.147 133.597ZM122.925 0.0944818C122.241 0.0957306 121.586 0.367882 121.103 0.851333C120.619 1.33478 120.347 1.99012 120.346 2.67382V130.899C120.347 131.583 120.619 132.238 121.103 132.722C121.586 133.205 122.241 133.477 122.925 133.479H214.147C214.831 133.477 215.486 133.205 215.969 132.722C216.453 132.238 216.725 131.583 216.726 130.899V2.67382C216.725 1.99012 216.453 1.33478 215.969 0.851333C215.486 0.367882 214.831 0.0957306 214.147 0.0944818H122.925Z" fill="#EBEBEB"/>
<path d="M106.334 27.8769L111.214 27.1636L106.334 26.4502L107.539 24.5417L105.63 25.7463L104.917 20.8711L104.204 25.7463L102.295 24.5417L103.504 26.4502L98.6244 27.1636L103.504 27.8769L102.295 29.7854L104.204 28.5761L104.917 33.456L105.63 28.5761L107.539 29.7854L106.334 27.8769Z" fill="#F5F5F5"/>
<path d="M155.389 40.9011L160.264 40.1878L155.389 39.4745L156.594 37.566L154.685 38.7706L153.972 33.8906L153.258 38.7706L151.35 37.566L152.559 39.4745L147.679 40.1878L152.559 40.9011L151.35 42.8097L153.258 41.6003L153.972 46.4803L154.685 41.6003L156.594 42.8097L155.389 40.9011Z" fill="#F5F5F5"/>
<path d="M86.7812 62.0647L91.6611 61.3514L86.7812 60.6333L87.9905 58.7295L86.082 59.9342L85.3687 55.0542L84.6553 59.9342L82.7468 58.7295L83.9562 60.6333L79.0762 61.3514L83.9562 62.0647L82.7468 63.9732L84.6553 62.7639L85.3687 67.6439L86.082 62.7639L87.9905 63.9732L86.7812 62.0647Z" fill="#F5F5F5"/>
<path d="M45.5353 62.0647L50.4106 61.3514L45.5353 60.6333L46.74 58.7295L44.8314 59.9342L44.1181 55.0542L43.4048 59.9342L41.4962 58.7295L42.7056 60.6333L37.8256 61.3514L42.7056 62.0647L41.4962 63.9732L43.4048 62.7639L44.1181 67.6439L44.8314 62.7639L46.74 63.9732L45.5353 62.0647Z" fill="#F5F5F5"/>
<path d="M68.9006 91.1131L73.7805 90.3997L68.9006 89.6817L70.1099 87.7779L68.2014 88.9825L67.4881 84.1025L66.77 88.9825L64.8662 87.7779L66.0709 89.6817L61.1909 90.3997L66.0709 91.1131L64.8662 93.0216L66.77 91.8122L67.4881 96.6922L68.2014 91.8122L70.1099 93.0216L68.9006 91.1131Z" fill="#F5F5F5"/>
<path d="M164.757 75.4716L169.637 74.7583L164.757 74.045L165.966 72.1364L164.058 73.3458L163.344 68.4658L162.631 73.3458L160.722 72.1364L161.927 74.045L157.052 74.7583L161.927 75.4716L160.722 77.3801L162.631 76.1755L163.344 81.0555L164.058 76.1755L165.966 77.3801L164.757 75.4716Z" fill="#F5F5F5"/>
<path d="M199.176 118.711L204.052 117.993L199.176 117.28L200.381 115.376L198.472 116.581L197.759 111.701L197.046 116.581L195.137 115.376L196.347 117.28L191.467 117.993L196.347 118.711L195.137 120.615L197.046 119.41L197.759 124.29L198.472 119.41L200.381 120.615L199.176 118.711Z" fill="#F5F5F5"/>
<path d="M158.464 117.209L163.344 116.495L158.464 115.777L159.674 113.874L157.765 115.078L157.052 110.198L156.334 115.078L154.43 113.874L155.635 115.777L150.755 116.495L155.635 117.209L154.43 119.117L156.334 117.908L157.052 122.788L157.765 117.908L159.674 119.117L158.464 117.209Z" fill="#F5F5F5"/>
<path d="M68.9006 127.375L73.7805 126.657L68.9006 125.944L70.1099 124.035L68.2014 125.245L67.4881 120.365L66.77 125.245L64.8662 124.035L66.0709 125.944L61.1909 126.657L66.0709 127.375L64.8662 129.279L66.77 128.074L67.4881 132.954L68.2014 128.074L70.1099 129.279L68.9006 127.375Z" fill="#F5F5F5"/>
<path d="M121.924 105.196L126.804 104.482L121.924 103.769L123.133 101.861L121.224 103.065L120.511 98.1899L119.798 103.065L117.889 101.861L119.094 103.769L114.214 104.482L119.094 105.196L117.889 107.104L119.798 105.895L120.511 110.775L121.224 105.895L123.133 107.104L121.924 105.196Z" fill="#F5F5F5"/>
<path d="M94.2405 157.741L99.1205 157.028L94.2405 156.314L95.4451 154.406L93.5366 155.611L92.8233 150.735L92.1099 155.611L90.2014 154.406L91.4108 156.314L86.5308 157.028L91.4108 157.741L90.2014 159.65L92.1099 158.44L92.8233 163.32L93.5366 158.44L95.4451 159.65L94.2405 157.741Z" fill="#F5F5F5"/>
<path d="M148.525 154.558L153.405 153.844L148.525 153.131L149.729 151.222L147.826 152.432L147.108 147.552L146.394 152.432L144.486 151.222L145.695 153.131L140.815 153.844L145.695 154.558L144.486 156.466L146.394 155.257L147.108 160.137L147.826 155.257L149.729 156.466L148.525 154.558Z" fill="#F5F5F5"/>
<path d="M149.139 66.4723C146.238 62.1781 144.996 55.4416 142.336 52.7725C144.395 51.1918 146.58 49.7825 148.87 48.5586C150.499 53.2496 151.468 60.5294 155.672 62.2584C153.613 63.839 151.428 65.2484 149.139 66.4723Z" fill="#EBEBEB"/>
<path d="M154.052 63.0615C153.646 62.7922 153.75 62.2631 154.246 61.9324C151.336 59.594 150.292 54.1519 148.974 50.0797C148.866 50.1284 148.75 50.1534 148.632 50.1531C148.514 50.1528 148.397 50.1271 148.29 50.0778C148.183 50.0285 148.088 49.9568 148.011 49.8675C147.934 49.7781 147.877 49.6733 147.845 49.5601C146.463 50.3254 145.123 51.1627 143.829 52.0685C143.93 52.3068 143.937 52.5741 143.849 52.8174C143.762 53.0607 143.586 53.2622 143.357 53.3818C145.327 56.1643 146.527 61.2994 148.681 65.1353C148.923 65.0454 149.187 65.0368 149.435 65.111C149.682 65.1852 149.898 65.338 150.051 65.5463C151.427 64.7886 152.763 63.9592 154.052 63.0615ZM146.966 58.2949C146.536 57.1469 146.933 55.8998 147.811 55.4935C148.69 55.0872 149.701 55.7628 150.103 56.9391C150.504 58.1153 150.192 59.3342 149.318 59.7215C148.444 60.1089 147.391 59.4523 146.98 58.2949H146.966Z" fill="#E0E0E0"/>
<path d="M83.1673 52.3806C79.0148 54.6198 72.7176 54.8985 70.091 57.1283C68.7733 54.8942 67.6237 52.5651 66.6519 50.1603C71.0878 49.2155 77.8669 49.2816 79.7282 45.4126C81.0497 47.6446 82.1994 49.974 83.1673 52.3806Z" fill="#EBEBEB"/>
<path d="M80.3612 47.1037C80.0872 47.4674 79.6006 47.2926 79.3313 46.7588C76.9693 49.2767 71.8909 49.546 68.0408 50.2688C68.0825 50.3722 68.101 50.4835 68.095 50.5949C68.0889 50.7062 68.0584 50.8149 68.0057 50.9132C67.9529 51.0114 67.8792 51.0969 67.7898 51.1635C67.7003 51.2301 67.5973 51.2763 67.4881 51.2986C68.0502 52.6403 68.7163 54.0528 69.5289 55.5503C69.8926 55.366 70.4265 55.6542 70.7099 56.1928C73.4073 54.6574 78.2212 54.1945 81.9107 52.6214C81.8381 52.3857 81.8451 52.1327 81.9304 51.9014C82.0158 51.6701 82.1748 51.4732 82.3831 51.3411C81.8256 50.0042 81.169 48.5965 80.3659 47.0895L80.3612 47.1037ZM75.4859 53.3819C74.9885 53.5162 74.4594 53.467 73.9953 53.2432C73.5312 53.0194 73.1632 52.636 72.9586 52.1631C72.642 51.2183 73.3365 50.3633 74.4466 50.1271C75.5568 49.8909 76.6622 50.368 76.9598 51.275C77.2575 52.182 76.5772 53.1079 75.4859 53.3819Z" fill="#E0E0E0"/>
<path d="M124.38 46.0975C120.851 42.956 118.432 37.1218 115.437 35.4353C117.084 33.4308 118.88 31.5532 120.809 29.8184C123.213 33.6638 125.476 40.0554 129.747 40.4759C128.101 42.4816 126.307 44.3608 124.38 46.0975Z" fill="#EBEBEB"/>
<path d="M128.372 41.6474C127.942 41.5151 127.937 41.0002 128.348 40.5656C125.188 39.2098 123.18 34.5282 121.182 31.1789C121.099 31.2542 121.001 31.3103 120.894 31.343C120.787 31.3757 120.674 31.3843 120.563 31.368C120.452 31.3517 120.346 31.3111 120.253 31.2489C120.16 31.1868 120.082 31.1048 120.024 31.0088C118.957 32.0008 117.856 33.1063 116.718 34.3912C117.015 34.6699 116.925 35.2699 116.514 35.7187C118.877 37.7311 120.965 42.0962 123.709 45.0204C123.906 44.8721 124.146 44.7919 124.392 44.7919C124.638 44.7919 124.878 44.8721 125.075 45.0204C126.137 44.0378 127.233 42.9371 128.381 41.6663L128.372 41.6474ZM120.813 39.2098C120.516 38.7883 120.382 38.2738 120.434 37.7609C120.486 37.2479 120.721 36.771 121.097 36.4178C121.853 35.8084 122.911 36.158 123.52 37.1217C124.13 38.0854 124.049 39.2854 123.298 39.8759C122.547 40.4664 121.442 40.1546 120.828 39.2098H120.813Z" fill="#E0E0E0"/>
<path d="M135.453 95.3647C133.842 90.9288 134.485 84.6599 132.666 81.7357C135.068 80.7625 137.539 79.9698 140.059 79.3643C140.347 83.8899 139.289 90.5887 142.846 92.9979C140.445 93.9713 137.974 94.7625 135.453 95.3647Z" fill="#EBEBEB"/>
<path d="M141.08 93.3574C140.763 93.0314 141.009 92.5826 141.552 92.4125C139.407 89.7104 139.884 84.6415 139.733 80.7299C139.624 80.7573 139.511 80.7602 139.4 80.7383C139.29 80.7165 139.186 80.6705 139.096 80.6036C139.005 80.5368 138.931 80.4507 138.878 80.3517C138.825 80.2526 138.794 80.143 138.789 80.0308C137.371 80.3945 135.883 80.8433 134.268 81.4244C134.395 81.8117 134.031 82.2983 133.455 82.4967C134.579 85.3926 134.334 90.2253 135.345 94.099C135.588 94.0649 135.836 94.1098 136.052 94.2272C136.268 94.3445 136.441 94.5281 136.545 94.751C137.962 94.3919 139.44 93.9479 141.051 93.3715L141.08 93.3574ZM135.609 87.6223C135.547 87.1108 135.671 86.594 135.961 86.1675C136.25 85.741 136.684 85.4338 137.182 85.3028C138.127 85.1233 138.902 85.9358 138.977 87.0696C139.053 88.2034 138.415 89.2238 137.475 89.3891C136.535 89.5545 135.694 88.7419 135.609 87.6223Z" fill="#E0E0E0"/>
<path d="M198.203 77.2904C194.674 74.1489 192.256 68.3146 189.26 66.6282C190.909 64.6248 192.704 62.7473 194.632 61.0112C197.041 64.8566 199.304 71.2483 203.574 71.6687C201.927 73.6746 200.132 75.5538 198.203 77.2904Z" fill="#EBEBEB"/>
<path d="M202.19 72.845C201.756 72.708 201.756 72.1931 202.167 71.7585C198.997 70.3885 196.994 65.7211 195.005 62.3576C194.922 62.433 194.824 62.489 194.717 62.5217C194.61 62.5545 194.497 62.563 194.386 62.5467C194.275 62.5304 194.169 62.4898 194.076 62.4276C193.983 62.3655 193.905 62.2835 193.848 62.1875C192.78 63.1796 191.679 64.285 190.541 65.5699C190.838 65.8487 190.749 66.4486 190.338 66.8974C192.7 68.9099 194.788 73.2749 197.532 76.1991C197.729 76.0515 197.969 75.9718 198.215 75.9718C198.461 75.9718 198.701 76.0515 198.898 76.1991C199.961 75.2165 201.057 74.1158 202.204 72.845H202.19ZM194.632 70.3885C194.334 69.9681 194.199 69.4542 194.251 68.9417C194.303 68.4293 194.539 67.9531 194.915 67.6013C195.666 66.9872 196.729 67.3367 197.334 68.3004C197.939 69.2642 197.868 70.4641 197.117 71.0546C196.366 71.6451 195.265 71.3333 194.632 70.3885Z" fill="#E0E0E0"/>
<path d="M195.406 70.0908L195.203 70.2467L195.085 70.0625L195.284 69.9066C195.16 69.702 195.088 69.4699 195.076 69.2311L195.321 69.1885C195.328 69.3871 195.382 69.5813 195.477 69.7554L195.832 69.4814C195.723 69.1885 195.614 68.8626 195.865 68.6689C196.044 68.5272 196.313 68.5791 196.564 68.9193L196.767 68.7634L196.885 68.9523L196.687 69.1035C196.784 69.274 196.849 69.4616 196.876 69.6562L196.635 69.6987C196.611 69.5442 196.563 69.3943 196.493 69.2547L196.134 69.5334C196.247 69.8263 196.365 70.1522 196.134 70.3412C195.902 70.5302 195.662 70.431 195.406 70.0908ZM196.049 69.3114L196.37 69.0704C196.247 68.9193 196.139 68.9004 196.058 68.9618C195.978 69.0232 195.997 69.1555 196.049 69.3114ZM195.907 70.0578C195.997 69.9916 195.973 69.8594 195.907 69.6987L195.591 69.9444C195.728 70.0956 195.832 70.1192 195.907 70.0578Z" fill="#E0E0E0"/>
<path d="M114.521 67.9746C111.351 72.0609 108.455 76.4354 107.175 81.1075C105.04 80.2241 102.848 79.3359 100.708 78.3014C102.385 73.4403 105.281 69.1745 108.054 65.1685C110.189 66.0519 112.381 66.94 114.521 67.9746Z" fill="#EBEBEB"/>
<path d="M109.046 65.9813C108.887 66.1951 108.663 66.3516 108.407 66.4274C108.152 66.5032 107.878 66.4942 107.629 66.4017C105.342 69.7416 103.056 73.2658 101.516 77.1726C101.748 77.2974 101.929 77.501 102.025 77.7468C102.121 77.9927 102.126 78.2648 102.04 78.5142C103.377 79.1284 104.728 79.7 106.065 80.2574C106.098 80.1411 106.156 80.0334 106.235 79.9414C106.314 79.8494 106.411 79.7754 106.521 79.7244C106.631 79.6733 106.75 79.6464 106.871 79.6455C106.992 79.6445 107.112 79.6696 107.222 79.7189C108.521 75.916 110.803 72.3257 113.335 68.9291C113.225 68.8803 113.128 68.8063 113.051 68.7131C112.975 68.6199 112.922 68.51 112.895 68.3924C112.869 68.2747 112.871 68.1526 112.901 68.0358C112.93 67.9189 112.987 67.8107 113.066 67.7197C111.724 67.1056 110.378 66.534 109.041 65.9766L109.046 65.9813ZM108.654 73.6957C108.402 74.1607 107.988 74.5169 107.49 74.6963C106.993 74.8758 106.447 74.866 105.956 74.6689C105.728 74.5592 105.525 74.4026 105.361 74.2091C105.197 74.0157 105.076 73.7898 105.006 73.5463C104.935 73.3028 104.917 73.0471 104.952 72.7961C104.987 72.545 105.075 72.3043 105.21 72.0895C105.48 71.6248 105.909 71.2733 106.417 71.0997C106.926 70.9261 107.48 70.9421 107.978 71.1447C108.206 71.2513 108.408 71.4066 108.569 71.5997C108.731 71.7928 108.848 72.019 108.912 72.2623C108.977 72.5056 108.987 72.76 108.942 73.0077C108.898 73.2554 108.799 73.4902 108.654 73.6957Z" fill="#E0E0E0"/>
<path d="M107.931 73.1476L108.186 73.2657L108.077 73.4547L107.822 73.3366C107.699 73.538 107.522 73.7014 107.312 73.809L107.137 73.5964C107.314 73.5086 107.465 73.3768 107.577 73.2138L107.104 73.0012C106.896 73.228 106.655 73.4736 106.339 73.3224C106.107 73.2138 105.999 72.9445 106.174 72.5666L105.918 72.4485L106.027 72.2595L106.282 72.3776C106.387 72.2131 106.53 72.0755 106.698 71.9761L106.873 72.1745C106.739 72.2573 106.622 72.3647 106.528 72.491L107 72.7036C107.213 72.4768 107.473 72.2312 107.78 72.3823C108.011 72.5004 108.11 72.7508 107.931 73.1476ZM106.844 72.8831L106.438 72.6941C106.367 72.8689 106.41 72.9776 106.509 73.0248C106.608 73.0721 106.726 73.0012 106.844 72.8831ZM107.624 72.6989C107.51 72.6469 107.397 72.7225 107.279 72.8453L107.685 73.0295C107.756 72.85 107.709 72.7508 107.624 72.6989Z" fill="#E0E0E0"/>
<path d="M195.071 92.1997C191.896 96.286 189.005 100.66 187.725 105.333C185.59 104.449 183.398 103.561 181.258 102.526C182.935 97.6654 185.831 93.3996 188.599 89.3936C190.739 90.277 192.931 91.1745 195.071 92.1997Z" fill="#EBEBEB"/>
<path d="M189.596 90.2012C189.438 90.4164 189.214 90.5744 188.958 90.6511C188.703 90.7278 188.429 90.7191 188.179 90.6263C185.892 93.9615 183.606 97.4904 182.066 101.397C182.3 101.52 182.482 101.722 182.579 101.967C182.676 102.213 182.682 102.485 182.595 102.734C183.932 103.353 185.283 103.92 186.62 104.482C186.652 104.365 186.71 104.257 186.789 104.165C186.867 104.072 186.965 103.998 187.075 103.947C187.185 103.896 187.304 103.869 187.426 103.868C187.547 103.868 187.667 103.893 187.777 103.943C189.076 100.164 191.358 96.5503 193.89 93.1537C193.78 93.1049 193.683 93.0309 193.606 92.9377C193.53 92.8445 193.476 92.7346 193.45 92.617C193.424 92.4993 193.426 92.3772 193.455 92.2604C193.485 92.1435 193.542 92.0353 193.621 91.9444C192.284 91.335 190.938 90.7633 189.601 90.2059L189.596 90.2012ZM189.18 97.9297C188.928 98.3948 188.514 98.7509 188.017 98.9304C187.519 99.1098 186.973 99.1001 186.483 98.9029C186.254 98.7939 186.05 98.6375 185.886 98.4441C185.722 98.2507 185.6 98.0247 185.53 97.781C185.459 97.5373 185.441 97.2814 185.477 97.0301C185.512 96.7789 185.601 96.5381 185.736 96.3236C186.013 95.8698 186.442 95.5299 186.947 95.3652C187.452 95.2006 188 95.2222 188.49 95.426C188.713 95.5322 188.909 95.6849 189.067 95.8738C189.225 96.0626 189.341 96.2832 189.406 96.5206C189.472 96.758 189.485 97.0066 189.446 97.2497C189.407 97.4929 189.317 97.7247 189.18 97.9297Z" fill="#E0E0E0"/>
<path d="M188.49 97.3726L188.746 97.4907C188.708 97.5521 188.67 97.6135 188.637 97.6796L188.382 97.5615C188.254 97.7612 188.077 97.924 187.867 98.0339L187.697 97.8214C187.873 97.732 188.024 97.6006 188.136 97.4387L187.664 97.2261C187.456 97.4529 187.215 97.6985 186.898 97.5474C186.667 97.4387 186.558 97.1695 186.733 96.7915L186.478 96.6734C186.511 96.6073 186.549 96.5459 186.587 96.4845L186.842 96.6026C186.947 96.4366 187.089 96.2975 187.258 96.1963L187.428 96.3994C187.296 96.4835 187.181 96.5908 187.087 96.7159L187.56 96.9285C187.772 96.7018 188.032 96.4561 188.339 96.6073C188.561 96.7254 188.656 96.9899 188.49 97.3726ZM187.404 97.108L186.998 96.9191C186.927 97.0939 186.969 97.2025 187.069 97.2497C187.168 97.297 187.276 97.2261 187.394 97.108H187.404ZM188.183 96.9238C188.07 96.8718 187.957 96.9474 187.839 97.0655L188.24 97.2545C188.306 97.075 188.273 96.9663 188.174 96.9238H188.183Z" fill="#E0E0E0"/>
<path d="M174.706 37.1597C174.455 32.0057 169.845 28.458 169.594 23.304L176.208 20.8711C176.463 26.0251 181.069 29.5728 181.324 34.7221L174.706 37.1597Z" fill="#EBEBEB"/>
<path d="M180.03 34.7929C180.002 34.5236 180.061 34.2527 180.198 34.0191C180.335 33.7856 180.542 33.6016 180.79 33.4937C179.992 29.483 176.798 26.3604 176.009 22.3497C175.9 22.3979 175.78 22.4189 175.66 22.4108C175.541 22.4027 175.425 22.3657 175.323 22.303C175.221 22.2403 175.135 22.1538 175.074 22.0508C175.012 21.9479 174.977 21.8316 174.97 21.7119L170.86 23.2283C170.888 23.497 170.83 23.7676 170.694 24.0011C170.558 24.2345 170.352 24.4188 170.104 24.5275C170.893 28.5382 174.087 31.6655 174.885 35.6763C174.994 35.6279 175.113 35.6068 175.232 35.6146C175.351 35.6225 175.467 35.6591 175.568 35.7213C175.67 35.7836 175.755 35.8696 175.817 35.972C175.878 36.0745 175.913 36.1902 175.92 36.3093L180.025 34.7929H180.03ZM173.676 29.5964C173.548 29.3848 173.469 29.147 173.445 28.9007C173.422 28.6544 173.454 28.406 173.54 28.174C173.626 27.9419 173.763 27.7322 173.941 27.5606C174.119 27.3889 174.334 27.2596 174.569 27.1824C175.083 27.014 175.639 27.0271 176.145 27.2198C176.65 27.4124 177.075 27.7727 177.346 28.2406C177.476 28.4516 177.555 28.6892 177.58 28.9355C177.604 29.1818 177.572 29.4304 177.487 29.6626C177.401 29.8949 177.264 30.1048 177.086 30.2766C176.908 30.4484 176.693 30.5776 176.458 30.6546C175.941 30.8226 175.382 30.8072 174.875 30.611C174.369 30.4148 173.945 30.0498 173.676 29.5775V29.5964Z" fill="#E0E0E0"/>
<path d="M174.639 29.4449L174.365 29.5441L174.262 29.3599L174.531 29.256C174.423 29.0635 174.383 28.8407 174.417 28.6229H174.72C174.689 28.8024 174.714 28.987 174.791 29.152L175.263 28.9725C175.187 28.6938 175.126 28.3867 175.461 28.2639C175.613 28.2209 175.774 28.2312 175.919 28.2932C176.063 28.3551 176.182 28.4649 176.255 28.604L176.529 28.5048L176.638 28.6938L176.364 28.793C176.447 28.9531 176.486 29.1325 176.477 29.3127H176.208C176.215 29.1686 176.189 29.0247 176.132 28.8922L175.66 29.0764C175.735 29.3552 175.806 29.6622 175.466 29.7851C175.311 29.8378 175.141 29.8324 174.989 29.7698C174.837 29.7073 174.713 29.5919 174.639 29.4449ZM175.584 28.8733L176.014 28.7127C175.896 28.5615 175.773 28.5237 175.665 28.5615C175.556 28.5993 175.542 28.7269 175.575 28.8733H175.584ZM175.258 29.5063C175.376 29.4638 175.376 29.341 175.343 29.1898L174.913 29.3457C175.022 29.5063 175.145 29.5441 175.263 29.5063H175.258Z" fill="#E0E0E0"/>
<path d="M40.8302 98.2041C40.5751 93.0643 35.9691 89.5024 35.714 84.3484L42.3277 81.9155C42.5828 87.0695 47.1888 90.6125 47.4439 95.7665L40.8302 98.2041Z" fill="#EBEBEB"/>
<path d="M46.1542 95.8373C46.1264 95.5686 46.1846 95.2981 46.3204 95.0646C46.4563 94.8311 46.6627 94.6468 46.91 94.5382C46.1164 90.5274 42.9229 87.4048 42.1293 83.3894C42.02 83.4387 41.9004 83.4607 41.7807 83.4533C41.661 83.446 41.545 83.4095 41.4426 83.3471C41.3402 83.2848 41.2545 83.1984 41.1931 83.0954C41.1317 82.9925 41.0963 82.8761 41.09 82.7563L36.98 84.2728C37.0078 84.5415 36.9496 84.812 36.8138 85.0455C36.6779 85.279 36.4715 85.4633 36.2242 85.5719C37.0178 89.5826 40.2113 92.71 41.0049 96.7207C41.1142 96.6713 41.2339 96.6494 41.3535 96.6568C41.4732 96.6641 41.5893 96.7006 41.6917 96.7629C41.794 96.8253 41.8797 96.9117 41.9411 97.0147C42.0026 97.1176 42.038 97.234 42.0442 97.3537L46.1542 95.8373ZM39.7956 90.6408C39.6673 90.4292 39.5885 90.1915 39.565 89.9452C39.5414 89.6989 39.5738 89.4505 39.6596 89.2184C39.7454 88.9864 39.8825 88.7767 40.0606 88.605C40.2388 88.4333 40.4534 88.304 40.6884 88.2268C41.202 88.0596 41.7573 88.0734 42.2619 88.266C42.7665 88.4585 43.1899 88.8182 43.4615 89.285C43.5907 89.4961 43.6705 89.7336 43.6948 89.9799C43.7191 90.2262 43.6874 90.4748 43.6019 90.7071C43.5165 90.9393 43.3795 91.1492 43.2014 91.321C43.0233 91.4928 42.8085 91.622 42.5733 91.699C42.0571 91.8658 41.4991 91.8498 40.9932 91.6536C40.4874 91.4575 40.0645 91.0932 39.7956 90.6219V90.6408Z" fill="#E0E0E0"/>
<path d="M40.7593 90.4898L40.4853 90.589L40.3814 90.4L40.6507 90.3008C40.5469 90.1071 40.5088 89.885 40.542 89.6678H40.8443C40.8109 89.8472 40.8357 90.0326 40.9152 90.1969L41.3876 90.0173C41.3073 89.7386 41.2459 89.4316 41.586 89.3087C41.7372 89.2648 41.899 89.2747 42.0437 89.3367C42.1885 89.3988 42.3072 89.5091 42.3797 89.6489L42.6537 89.5497L42.7576 89.7386L42.4883 89.8378C42.5735 89.9971 42.6112 90.1774 42.597 90.3575H42.2994C42.3066 90.2134 42.2807 90.0696 42.2238 89.937L41.7514 90.1213C41.8317 90.3953 41.8978 90.7071 41.5624 90.8299C41.4099 90.8753 41.2463 90.8662 41.0997 90.8041C40.9532 90.7421 40.8328 90.6309 40.7593 90.4898ZM41.7041 89.9181L42.1387 89.7575C42.1045 89.6969 42.0513 89.6492 41.9872 89.6218C41.9232 89.5945 41.8519 89.5891 41.7844 89.6063C41.6616 89.6489 41.6616 89.7575 41.6947 89.9181H41.7041ZM41.3782 90.5512C41.501 90.5086 41.501 90.3858 41.4632 90.2299L41.0333 90.3905C41.1467 90.5512 41.2648 90.589 41.3687 90.5512H41.3782Z" fill="#E0E0E0"/>
<path d="M57.7045 37.0556C55.9046 42.0254 49.6736 41.9262 47.6233 46.14C45.7054 44.4535 43.8441 42.8332 41.9875 41.3876C43.7827 36.4179 50.0185 36.5171 52.0687 32.3032C53.9819 34.0133 55.8716 35.5959 57.7045 37.0556Z" fill="#EBEBEB"/>
<path d="M52.9852 33.5645C52.7443 34.0085 52.149 34.0038 51.7144 33.6164C49.4752 36.5359 44.9307 37.0177 42.871 40.4285C43.072 40.6067 43.2104 40.8448 43.2657 41.1077C43.3209 41.3705 43.2902 41.6442 43.178 41.8883C44.3339 42.8331 45.5086 43.8314 46.7022 44.8833C46.9431 44.444 47.5383 44.444 47.9682 44.8314C50.2074 41.9119 54.752 41.43 56.8164 38.0192C56.6152 37.8423 56.4765 37.605 56.4212 37.3428C56.3658 37.0805 56.3968 36.8074 56.5094 36.5642C55.3472 35.6194 54.1709 34.6211 52.9805 33.5692L52.9852 33.5645ZM51.3082 40.6506C50.4011 41.123 48.9461 40.8584 48.0722 40.0506C47.1982 39.2428 47.1274 38.161 48.0722 37.6886C49.017 37.2162 50.4342 37.4807 51.3129 38.2932C52.1916 39.1058 52.2105 40.1829 51.3082 40.66V40.6506Z" fill="#E0E0E0"/>
<path d="M50.7176 39.871C50.8027 39.9466 50.883 40.0175 50.9586 40.093L50.7838 40.1875L50.5428 39.9702C50.3217 40.0674 50.0794 40.1064 49.839 40.0836L49.7161 39.8332C49.9181 39.8565 50.1228 39.8289 50.3114 39.7529L49.8815 39.3608C49.7264 39.4246 49.5572 39.4459 49.3911 39.4227C49.2251 39.3994 49.0682 39.3324 48.9367 39.2285C48.8788 39.1911 48.8321 39.1388 48.8015 39.077C48.7709 39.0152 48.7576 38.9464 48.7629 38.8777C48.7682 38.809 48.792 38.743 48.8318 38.6866C48.8715 38.6303 48.9257 38.5858 48.9886 38.5577L48.743 38.3357L48.9178 38.2412L49.1587 38.4585C49.3386 38.3796 49.534 38.3424 49.7303 38.3499L49.8579 38.5955C49.6972 38.5927 49.5372 38.6183 49.3854 38.6711L49.8248 39.0727C49.9787 39.0047 50.1484 38.9806 50.3152 39.0031C50.4819 39.0256 50.6392 39.0938 50.7696 39.2002C50.8261 39.2385 50.8715 39.2912 50.9012 39.3527C50.9308 39.4143 50.9436 39.4826 50.9384 39.5507C50.9331 39.6188 50.9099 39.6843 50.8711 39.7406C50.8324 39.7968 50.7794 39.8418 50.7176 39.871ZM49.6028 39.1246L49.2154 38.7703C49.19 38.786 49.169 38.8078 49.1545 38.8339C49.1399 38.8599 49.1323 38.8893 49.1323 38.9191C49.1323 38.9489 49.1399 38.9783 49.1545 39.0043C49.169 39.0304 49.19 39.0523 49.2154 39.0679C49.2721 39.1045 49.3361 39.1285 49.4029 39.1383C49.4697 39.1481 49.5379 39.1434 49.6028 39.1246ZM50.5003 39.3655C50.4401 39.3247 50.3712 39.2983 50.2991 39.2885C50.227 39.2787 50.1536 39.2856 50.0846 39.3089L50.4673 39.6584C50.6184 39.5545 50.6137 39.4506 50.5192 39.3655H50.5003Z" fill="#E0E0E0"/>
<path d="M62.5467 107.34C60.7515 112.31 54.5158 112.211 52.4655 116.425C50.5759 114.738 48.6863 113.118 46.8297 111.672C48.6296 106.703 54.8606 106.802 56.9109 102.588C58.8288 104.274 60.7137 105.881 62.5467 107.34Z" fill="#EBEBEB"/>
<path d="M57.8274 103.849C57.5864 104.288 56.9959 104.288 56.5613 103.901C54.3221 106.821 49.7776 107.302 47.7131 110.713C47.9156 110.89 48.0553 111.128 48.1115 111.391C48.1677 111.654 48.1373 111.929 48.0249 112.173C49.1823 113.118 50.3586 114.129 51.5491 115.168C51.7853 114.729 52.3805 114.729 52.8151 115.116C55.0496 112.197 59.5989 111.71 61.6586 108.304C61.4573 108.127 61.3187 107.89 61.2633 107.627C61.208 107.365 61.2389 107.092 61.3515 106.849C60.1957 105.904 59.021 104.906 57.8274 103.854V103.849ZM56.1503 110.935C55.248 111.408 53.7883 111.143 52.9191 110.335C52.0498 109.527 51.9742 108.446 52.9191 107.973C53.8639 107.501 55.2811 107.765 56.1551 108.578C57.029 109.39 57.0526 110.468 56.1503 110.945V110.935Z" fill="#E0E0E0"/>
<path d="M55.5645 110.156L55.8055 110.378C55.744 110.406 55.6874 110.439 55.6307 110.472L55.3897 110.25C55.1676 110.35 54.9236 110.39 54.6811 110.368C54.6433 110.283 54.6008 110.203 54.563 110.118C54.765 110.141 54.9696 110.113 55.1583 110.038L54.7236 109.645C54.5682 109.709 54.3987 109.729 54.2327 109.705C54.0666 109.681 53.91 109.613 53.7788 109.508C53.7221 109.471 53.6766 109.419 53.6468 109.357C53.617 109.296 53.6041 109.228 53.6094 109.16C53.6147 109.092 53.638 109.027 53.6769 108.971C53.7158 108.915 53.7689 108.871 53.8308 108.842L53.5899 108.62L53.7647 108.526L54.0056 108.743C54.1842 108.665 54.3775 108.626 54.5725 108.63C54.615 108.715 54.6622 108.795 54.7047 108.875C54.5437 108.874 54.3837 108.901 54.2323 108.956L54.667 109.353C54.822 109.289 54.9912 109.267 55.1573 109.291C55.3233 109.314 55.4802 109.381 55.6118 109.485C55.6685 109.523 55.7142 109.575 55.7442 109.636C55.7742 109.698 55.7875 109.766 55.7827 109.834C55.7779 109.902 55.7552 109.968 55.7169 110.024C55.6786 110.081 55.626 110.126 55.5645 110.156ZM54.4638 109.405L54.0812 109.055C53.9489 109.159 53.9631 109.263 54.0812 109.353C54.1377 109.388 54.201 109.411 54.2669 109.419C54.3329 109.428 54.4 109.423 54.4638 109.405ZM55.3614 109.65C55.3021 109.607 55.2332 109.58 55.1607 109.57C55.0881 109.56 55.0143 109.568 54.9457 109.594L55.3283 109.943C55.4606 109.839 55.4559 109.735 55.3614 109.65Z" fill="#E0E0E0"/>
<path d="M147.797 58.2003L147.561 58.2995C147.537 58.2239 147.509 58.1483 147.481 58.068L147.712 57.9688C147.629 57.7243 147.605 57.4638 147.641 57.2082L147.897 57.2413C147.865 57.4513 147.879 57.6657 147.939 57.8696L148.35 57.6901C148.298 57.3547 148.256 56.9862 148.548 56.8633C148.761 56.7689 149.021 56.9011 149.2 57.3358L149.432 57.2318L149.517 57.4633L149.285 57.5625C149.351 57.7652 149.376 57.9785 149.361 58.1908L149.111 58.1625C149.12 57.9938 149.103 57.8247 149.059 57.6617L148.643 57.8412C148.695 58.1766 148.747 58.5498 148.459 58.6727C148.246 58.7577 147.986 58.6254 147.797 58.2003ZM148.605 57.5861L148.974 57.4255C148.879 57.2366 148.775 57.1799 148.685 57.2224C148.596 57.2649 148.582 57.4066 148.605 57.5861ZM148.308 58.3136C148.411 58.2711 148.416 58.1247 148.388 57.9404L148.024 58.1011C148.119 58.2947 148.222 58.3514 148.308 58.3136Z" fill="#E0E0E0"/>
<path d="M75.4481 52.546C75.4765 52.6215 75.5001 52.7066 75.5284 52.7869L75.3111 52.8341C75.2828 52.7538 75.2592 52.6735 75.2356 52.5932C75 52.6409 74.7561 52.6279 74.5269 52.5554C74.5269 52.4751 74.56 52.3948 74.5742 52.3097C74.7625 52.3737 74.9634 52.3915 75.16 52.3617C75.1127 52.22 75.0655 52.0735 75.023 51.9318C74.7065 51.9318 74.3663 51.9318 74.2671 51.6248C74.201 51.4027 74.338 51.1524 74.7395 51.0532C74.7159 50.9728 74.6876 50.8925 74.6639 50.8075L74.8812 50.7603C74.8812 50.8406 74.9332 50.9209 74.9568 51.0012C75.1487 50.9631 75.3461 50.9631 75.5379 51.0012C75.5379 51.0815 75.5379 51.1618 75.5001 51.2421C75.3437 51.2157 75.1841 51.2157 75.0277 51.2421C75.0702 51.3886 75.1175 51.5303 75.1647 51.6767C75.4765 51.6767 75.8261 51.6767 75.9158 51.9696C75.9961 52.1822 75.8544 52.4373 75.4481 52.546ZM74.9379 51.672C74.9001 51.5445 74.8576 51.4122 74.8198 51.2894C74.6356 51.3508 74.5789 51.4452 74.612 51.5397C74.645 51.6342 74.7726 51.6673 74.9379 51.672ZM75.5946 52.0594C75.5615 51.9507 75.4245 51.9318 75.2545 51.9271C75.297 52.0547 75.3348 52.1822 75.3773 52.3097C75.5851 52.2436 75.6229 52.1491 75.5851 52.0594H75.5946Z" fill="#E0E0E0"/>
<path d="M121.583 38.8981L121.38 39.054L121.262 38.8698L121.461 38.7139C121.337 38.5093 121.265 38.2772 121.253 38.0383L121.498 37.9958C121.505 38.1944 121.559 38.3886 121.654 38.5627L122.013 38.2887C121.9 37.9958 121.791 37.6698 122.042 37.4762C122.292 37.2825 122.514 37.3864 122.741 37.7265L122.944 37.5706L123.062 37.7596L122.864 37.9108C122.961 38.0813 123.025 38.2689 123.053 38.4635L122.812 38.506C122.788 38.3514 122.74 38.2016 122.67 38.062L122.311 38.3407C122.424 38.6336 122.542 38.9595 122.311 39.1485C122.079 39.3374 121.839 39.2382 121.583 38.8981ZM122.226 38.1186L122.547 37.8777C122.424 37.7265 122.316 37.7076 122.235 37.7643C122.155 37.821 122.174 37.9627 122.226 38.1186ZM122.089 38.865C122.174 38.7989 122.15 38.6666 122.089 38.506L121.772 38.7469C121.905 38.9028 122.009 38.9265 122.089 38.865Z" fill="#E0E0E0"/>
<path d="M136.417 87.7072L136.167 87.7497C136.167 87.6741 136.167 87.5985 136.167 87.5277L136.417 87.4851C136.407 87.2455 136.455 87.007 136.559 86.7907L136.795 86.8757C136.705 87.0511 136.658 87.2455 136.658 87.4426L137.107 87.3718C137.145 87.06 137.206 86.7246 137.518 86.6726C137.745 86.6348 137.952 86.8049 138.014 87.2253L138.264 87.1875V87.4096L138.018 87.4473C138.025 87.6438 137.993 87.8397 137.924 88.0237L137.688 87.9481C137.745 87.7971 137.775 87.6372 137.778 87.4757L137.329 87.5513C137.286 87.8631 137.239 88.2032 136.927 88.2552C136.696 88.2977 136.483 88.1276 136.417 87.7072ZM137.362 87.3292L137.759 87.2631C137.721 87.0741 137.636 87.008 137.537 87.0222C137.437 87.0364 137.385 87.1639 137.357 87.3292H137.362ZM136.889 87.9198C136.998 87.9198 137.041 87.7733 137.069 87.6032L136.672 87.6647C136.7 87.8678 136.781 87.9339 136.875 87.9198H136.889Z" fill="#E0E0E0"/>
<path d="M118.102 176C168.688 176 209.697 173.606 209.697 170.652C209.697 167.699 168.688 165.305 118.102 165.305C67.5153 165.305 26.5068 167.699 26.5068 170.652C26.5068 173.606 67.5153 176 118.102 176Z" fill="#F5F5F5"/>
<path d="M81.2162 32.7897C76.6953 30.2576 72.557 24.7966 68.9951 23.6203C70.1211 21.2829 71.4405 19.0438 72.9397 16.9263C76.5016 20.3796 80.6399 26.45 85.1608 26.091C84.0319 28.4283 82.7126 30.6687 81.2162 32.7897Z" fill="#0EA730"/>
<path opacity="0.5" d="M81.2162 32.7897C76.6953 30.2576 72.557 24.7966 68.9951 23.6203C70.1211 21.2829 71.4405 19.0438 72.9397 16.9263C76.5016 20.3796 80.6399 26.45 85.1608 26.091C84.0319 28.4283 82.7126 30.6687 81.2162 32.7897Z" fill="white"/>
<path opacity="0.2" d="M84.0885 27.5364C83.616 27.4797 83.4602 26.9601 83.753 26.4404C80.1061 25.6562 76.7236 21.2439 73.7191 18.2158C73.6455 18.3083 73.5527 18.3837 73.4472 18.4368C73.3416 18.4899 73.2258 18.5195 73.1077 18.5236C72.9896 18.5276 72.872 18.506 72.7631 18.4602C72.6542 18.4144 72.5564 18.3455 72.4767 18.2583C71.5875 19.5648 70.766 20.9161 70.0154 22.3069C70.2122 22.4742 70.3389 22.7094 70.3704 22.9658C70.4019 23.2222 70.3359 23.481 70.1855 23.691C73.1948 25.2972 76.5725 29.3599 80.2242 31.8022C80.3998 31.6102 80.634 31.4815 80.8902 31.4363C81.1465 31.391 81.4106 31.4316 81.6414 31.5519C82.5281 30.2545 83.348 28.9127 84.0979 27.5317L84.0885 27.5364ZM75.6135 26.4546C74.7159 25.6184 74.508 24.3288 75.1127 23.5729C75.7174 22.8171 76.9126 22.9682 77.8102 23.8327C78.7077 24.6972 78.9628 25.9302 78.3582 26.6672C77.7535 27.4041 76.5299 27.3002 75.6135 26.4546Z" fill="black"/>
<g opacity="0.2">
<path opacity="0.2" d="M76.2985 25.9825L76.1378 26.1762L75.9583 26.0108C76.015 25.9447 76.067 25.8786 76.1237 25.8171C75.9388 25.6349 75.7996 25.4115 75.7174 25.1652L75.9631 25.0802C76.0259 25.2844 76.1341 25.4717 76.2796 25.6282L76.5677 25.2786C76.3693 25.0046 76.1662 24.6928 76.3693 24.4519C76.5725 24.211 76.8087 24.2771 77.163 24.5747C77.2197 24.5133 77.2716 24.4472 77.3283 24.381L77.5031 24.5511L77.3425 24.7448C77.4911 24.8941 77.6098 25.0705 77.6921 25.2644L77.4559 25.3589C77.3898 25.2021 77.2989 25.0569 77.1866 24.929L76.8937 25.2786C77.0921 25.5526 77.3047 25.8644 77.1016 26.1053C76.8984 26.3462 76.6622 26.2943 76.2985 25.9825ZM76.7709 25.0707L77.026 24.7637C76.8606 24.6361 76.7425 24.6361 76.6811 24.7117C76.6197 24.7873 76.6481 24.9385 76.7473 25.0896L76.7709 25.0707ZM76.837 25.8549C76.9079 25.7699 76.837 25.6423 76.7378 25.4865L76.4827 25.7935C76.6339 25.9447 76.7473 25.9494 76.8134 25.8738L76.837 25.8549Z" fill="black"/>
</g>
<path d="M119.991 52.7818C115.834 55.021 109.542 55.3045 106.915 57.5295C105.597 55.2922 104.451 52.9581 103.486 50.5473C107.921 49.6025 114.7 49.6639 116.562 45.7949C117.879 48.0343 119.025 50.3699 119.991 52.7818Z" fill="#0EA730"/>
<path opacity="0.5" d="M119.991 52.7818C115.834 55.021 109.542 55.3045 106.915 57.5295C105.597 55.2922 104.451 52.9581 103.486 50.5473C107.921 49.6025 114.7 49.6639 116.562 45.7949C117.879 48.0343 119.025 50.3699 119.991 52.7818Z" fill="white"/>
<path opacity="0.2" d="M117.19 47.5099C116.916 47.8689 116.434 47.6941 116.165 47.165C113.803 49.6782 108.72 49.9522 104.874 50.6703C104.916 50.7744 104.934 50.8863 104.928 50.9982C104.922 51.1102 104.891 51.2193 104.838 51.318C104.785 51.4167 104.71 51.5025 104.62 51.5694C104.53 51.6362 104.427 51.6825 104.317 51.7049C104.884 53.0465 105.545 54.4543 106.358 55.9565C106.726 55.7723 107.26 56.0605 107.539 56.6037C110.241 55.0684 115.055 54.6055 118.74 53.0323C118.67 52.7958 118.678 52.5432 118.763 52.3117C118.848 52.0803 119.006 51.8824 119.212 51.7474C118.65 50.4105 117.993 49.0074 117.19 47.4957V47.5099ZM112.315 53.7598C111.818 53.897 111.288 53.849 110.824 53.6248C110.36 53.4006 109.993 53.0155 109.792 52.541C109.476 51.6246 110.165 50.7459 111.28 50.505C112.395 50.264 113.491 50.7506 113.789 51.6576C114.086 52.5647 113.411 53.5095 112.315 53.7598Z" fill="black"/>
<g opacity="0.2">
<path opacity="0.2" d="M112.282 52.9475C112.31 53.0278 112.334 53.1081 112.357 53.1884L112.14 53.2404C112.14 53.1601 112.088 53.0798 112.064 52.9994C111.829 53.0442 111.586 53.0312 111.356 52.9617C111.356 52.8766 111.389 52.7963 111.408 52.716C111.594 52.7805 111.794 52.7967 111.989 52.7632C111.946 52.6215 111.899 52.4798 111.852 52.3334C111.54 52.3334 111.195 52.3334 111.101 52.0263C111.03 51.809 111.167 51.5775 111.573 51.4547C111.545 51.3744 111.521 51.2941 111.493 51.2137L111.715 51.1665C111.715 51.2468 111.762 51.3271 111.79 51.4074C111.982 51.3673 112.18 51.3673 112.372 51.4074L112.329 51.6484C112.173 51.6219 112.013 51.6219 111.857 51.6484C111.904 51.7901 111.951 51.9365 111.994 52.083C112.31 52.083 112.655 52.083 112.749 52.3759C112.83 52.5837 112.688 52.8199 112.282 52.9475ZM111.772 52.0735C111.729 51.946 111.691 51.8184 111.649 51.6909C111.469 51.757 111.413 51.8515 111.441 51.946C111.469 52.0405 111.606 52.0688 111.772 52.0735ZM112.423 52.4609C112.39 52.357 112.258 52.3334 112.088 52.3334C112.126 52.4609 112.168 52.5885 112.206 52.7113C112.395 52.6451 112.433 52.5554 112.433 52.4609H112.423Z" fill="black"/>
</g>
<path d="M153.972 23.0156C149.068 24.669 144.245 26.7146 140.593 29.9033C139.299 27.9853 137.966 26.0343 136.752 23.9888C140.839 20.8662 145.605 18.8962 150.131 17.1011C151.425 19.019 152.758 20.9701 153.972 23.0156Z" fill="#0EA730"/>
<path opacity="0.5" d="M153.972 23.0156C149.068 24.669 144.245 26.7146 140.593 29.9033C139.299 27.9853 137.966 26.0343 136.752 23.9888C140.839 20.8662 145.605 18.8962 150.131 17.1011C151.425 19.019 152.758 20.9701 153.972 23.0156Z" fill="white"/>
<path opacity="0.2" d="M150.509 18.3244C150.258 18.4167 149.984 18.4247 149.728 18.3471C149.472 18.2695 149.249 18.1106 149.092 17.8945C145.341 19.411 141.486 21.088 138.047 23.4926C138.175 23.7253 138.215 23.9963 138.161 24.2564C138.106 24.5164 137.96 24.7483 137.749 24.9098C138.524 26.1617 139.332 27.3805 140.14 28.5851C140.232 28.5062 140.34 28.4481 140.456 28.4148C140.573 28.3815 140.695 28.3738 140.815 28.3922C140.935 28.4106 141.049 28.4546 141.15 28.5214C141.251 28.5881 141.337 28.6759 141.401 28.7788C144.585 26.3223 148.487 24.5933 152.455 23.1619C152.39 23.06 152.35 22.9442 152.338 22.8239C152.326 22.7036 152.343 22.5822 152.387 22.4695C152.43 22.3569 152.5 22.256 152.59 22.1752C152.68 22.0944 152.787 22.0359 152.904 22.0045C152.129 20.7573 151.317 19.5385 150.514 18.3339L150.509 18.3244ZM145.898 24.5366C145.431 24.7853 144.889 24.8534 144.375 24.728C143.861 24.6025 143.411 24.2922 143.111 23.8563C142.981 23.6389 142.898 23.3963 142.868 23.1446C142.838 22.8929 142.862 22.6377 142.938 22.3958C143.014 22.1539 143.14 21.9308 143.308 21.7412C143.476 21.5516 143.683 21.3999 143.914 21.2959C144.398 21.0571 144.953 21.0027 145.474 21.1426C145.996 21.2825 146.449 21.6073 146.749 22.0564C146.875 22.271 146.954 22.5105 146.979 22.7584C147.004 23.0063 146.976 23.2567 146.895 23.4925C146.814 23.7282 146.683 23.9436 146.511 24.1238C146.339 24.3041 146.13 24.4449 145.898 24.5366Z" fill="black"/>
<g opacity="0.2">
<path opacity="0.2" d="M145.624 23.6864L145.771 23.9273L145.572 24.0218L145.426 23.7856C145.209 23.8866 144.969 23.9274 144.731 23.9037C144.731 23.814 144.731 23.7195 144.708 23.6297C144.903 23.6548 145.102 23.6288 145.284 23.5541C145.199 23.4077 145.109 23.266 145.02 23.1242C144.717 23.1998 144.387 23.266 144.207 22.9684C144.07 22.751 144.131 22.4676 144.486 22.2503L144.335 22.0046L144.533 21.9102L144.679 22.1464C144.858 22.0696 145.052 22.034 145.246 22.0424C145.246 22.1275 145.27 22.2172 145.284 22.307C145.124 22.301 144.963 22.325 144.812 22.3778L145.076 22.8125C145.379 22.7416 145.719 22.6755 145.903 22.9731C146.045 23.1904 145.974 23.4644 145.624 23.6864ZM144.864 22.8644L144.627 22.4818C144.472 22.5904 144.448 22.7038 144.505 22.7983C144.561 22.8928 144.698 22.8975 144.864 22.8644ZM145.615 23.1384C145.549 23.0345 145.412 23.0392 145.246 23.0723L145.478 23.4502C145.638 23.3416 145.671 23.2329 145.615 23.1479V23.1384Z" fill="black"/>
</g>
<path d="M67.6393 73.379C64.0679 69.6564 58.262 70.006 54.6906 66.2928C55.8149 64.2394 56.9408 62.1845 58.0683 60.1279C61.6397 63.8505 67.4456 63.5056 71.017 67.214C69.8926 69.2706 68.7667 71.3256 67.6393 73.379Z" fill="#0EA730"/>
<path opacity="0.5" d="M67.6393 73.379C64.0679 69.6564 58.262 70.006 54.6906 66.2928C55.8149 64.2394 56.9408 62.1845 58.0683 60.1279C61.6397 63.8505 67.4456 63.5056 71.017 67.214C69.8926 69.2706 68.7667 71.3256 67.6393 73.379Z" fill="white"/>
<path opacity="0.2" d="M70.1052 68.1023C69.9066 67.9182 69.7719 67.6754 69.7209 67.4094C69.67 67.1435 69.7053 66.8681 69.8218 66.6236C66.5905 64.1199 62.131 63.86 58.8997 61.3516C58.8491 61.4601 58.7727 61.5547 58.6773 61.6271C58.5819 61.6995 58.4703 61.7476 58.3521 61.7671C58.2339 61.7867 58.1127 61.7771 57.9991 61.7393C57.8854 61.7014 57.7827 61.6365 57.6998 61.55L55.5976 65.3954C55.7944 65.5797 55.9275 65.8218 55.9776 66.0868C56.0277 66.3518 55.9922 66.6258 55.8763 66.8693C59.1076 69.3778 63.5671 69.6376 66.7984 72.1461C66.8485 72.0372 66.9245 71.9421 67.0197 71.8693C67.1149 71.7964 67.2265 71.7478 67.3447 71.7278C67.4629 71.7078 67.5843 71.7169 67.6981 71.7544C67.812 71.7919 67.9151 71.8566 67.9983 71.9429L70.1005 68.1023H70.1052ZM61.8853 68.3385C61.6499 68.2624 61.4346 68.1344 61.2554 67.9638C61.0761 67.7932 60.9376 67.5845 60.85 67.3531C60.7625 67.1217 60.7281 66.8735 60.7495 66.6271C60.7709 66.3806 60.8475 66.1421 60.9736 65.9292C61.2521 65.463 61.6827 65.107 62.1929 64.9212C62.7032 64.7353 63.2619 64.7309 63.775 64.9088C64.0105 64.9831 64.2263 65.1097 64.406 65.2792C64.5858 65.4486 64.725 65.6565 64.8131 65.8873C64.9012 66.118 64.936 66.3657 64.915 66.6119C64.8939 66.858 64.8175 67.0962 64.6914 67.3086C64.4142 67.7775 63.9834 68.1362 63.472 68.3239C62.9606 68.5116 62.4001 68.5167 61.8853 68.3385Z" fill="black"/>
<g opacity="0.2">
<path opacity="0.2" d="M62.5231 67.606C62.4806 67.691 62.4333 67.7761 62.3861 67.8611L62.1829 67.7855L62.3199 67.5352C62.1135 67.4574 61.9378 67.3149 61.8192 67.1289L62.0554 66.9399C62.1508 67.0944 62.2908 67.2163 62.4569 67.2895C62.5372 67.1383 62.6223 66.9872 62.7073 66.8171C62.4664 66.6565 62.2349 66.4675 62.3908 66.151C62.4761 66.0187 62.6049 65.9204 62.755 65.8729C62.905 65.8255 63.067 65.8319 63.2128 65.8912L63.3545 65.6313L63.5576 65.7069L63.4159 65.9573C63.5849 66.0225 63.7322 66.1338 63.8411 66.2786L63.6143 66.4675C63.5245 66.3564 63.4117 66.2662 63.2837 66.203L63.0333 66.6754C63.2742 66.836 63.5057 67.025 63.3545 67.3415C63.2677 67.4746 63.1374 67.5737 62.9859 67.6219C62.8344 67.6701 62.6709 67.6645 62.5231 67.606ZM62.8538 66.562L63.0758 66.1557C62.8868 66.1179 62.7687 66.1557 62.7168 66.2738C62.6648 66.3919 62.7357 66.4675 62.8538 66.562ZM63.0285 67.2517C63.09 67.1383 63.0285 67.0486 62.8821 66.9541L62.6601 67.3556C62.8538 67.3982 62.9719 67.3462 63.0285 67.2517Z" fill="black"/>
</g>
<path d="M184.489 54.44C181.116 58.5121 175.306 56.3296 171.933 59.5845C170.7 57.35 169.467 55.2006 168.234 53.207C171.607 49.1349 177.417 51.3174 180.79 48.0625C182.023 50.297 183.256 52.437 184.489 54.44Z" fill="#0EA730"/>
<path opacity="0.5" d="M184.489 54.44C181.116 58.5121 175.306 56.3296 171.933 59.5845C170.7 57.35 169.467 55.2006 168.234 53.207C171.607 49.1349 177.417 51.3174 180.79 48.0625C182.023 50.297 183.256 52.437 184.489 54.44Z" fill="white"/>
<path opacity="0.2" d="M181.225 49.5604C180.852 49.8958 180.28 49.6927 180.015 49.1777C176.921 51.1713 172.481 50.0895 169.391 52.6027C169.52 52.8385 169.569 53.1093 169.533 53.3754C169.496 53.6415 169.375 53.8889 169.188 54.0813C169.953 55.371 170.723 56.7126 171.493 58.0921C171.866 57.7566 172.438 57.9598 172.703 58.47C175.792 56.4764 180.233 57.5582 183.327 55.0498C183.197 54.8151 183.147 54.5447 183.184 54.279C183.22 54.0134 183.342 53.7667 183.53 53.5758C182.76 52.2909 181.99 50.9445 181.225 49.5651V49.5604ZM177.252 55.6733C176.241 55.8103 174.98 55.0781 174.417 54.0152C173.855 52.9523 174.191 51.9177 175.197 51.776C176.203 51.6343 177.474 52.3759 178.031 53.4388C178.589 54.5018 178.263 55.5316 177.252 55.6733Z" fill="black"/>
<g opacity="0.2">
<path opacity="0.2" d="M176.964 54.7328L177.115 55.0209L176.921 55.0493L176.765 54.7611C176.524 54.7812 176.281 54.7372 176.061 54.6336L176.033 54.3548C176.215 54.4455 176.416 54.4893 176.619 54.4824L176.35 53.9675C176.184 53.9727 176.02 53.9345 175.875 53.8565C175.729 53.7786 175.606 53.6637 175.518 53.5234C175.478 53.4688 175.452 53.4042 175.445 53.3365C175.438 53.2688 175.448 53.2004 175.476 53.1383C175.504 53.0762 175.548 53.0227 175.604 52.9832C175.659 52.9438 175.724 52.9199 175.792 52.914L175.636 52.6211L175.835 52.5928L175.986 52.8809C176.182 52.867 176.379 52.8961 176.562 52.966C176.562 53.0605 176.586 53.1502 176.6 53.24C176.449 53.1834 176.289 53.1561 176.128 53.1597L176.406 53.6793C176.571 53.6736 176.735 53.7111 176.881 53.7882C177.026 53.8653 177.15 53.9792 177.238 54.1186C177.278 54.1737 177.303 54.2385 177.31 54.3064C177.317 54.3743 177.307 54.4428 177.279 54.5052C177.251 54.5675 177.207 54.6214 177.152 54.6614C177.097 54.7013 177.032 54.726 176.964 54.7328ZM176.208 53.6557L175.962 53.1833C175.806 53.24 175.783 53.3439 175.844 53.4573C175.884 53.5177 175.938 53.5674 176.001 53.6021C176.065 53.6367 176.136 53.6551 176.208 53.6557ZM176.973 54.1848C176.93 54.1259 176.874 54.0777 176.809 54.0441C176.745 54.0105 176.673 53.9924 176.6 53.9911L176.841 54.4635C176.978 54.3974 177.006 54.2982 176.95 54.1848H176.973Z" fill="black"/>
</g>
<path d="M163.925 86.2236C150.44 112.232 132.551 135.708 111.053 155.611L78.0275 130.441C99.5402 110.542 117.442 87.0657 130.937 61.0537L163.925 86.2236Z" fill="#0EA730"/>
<path opacity="0.2" d="M163.925 86.2236C162.817 88.3683 161.673 90.4941 160.496 92.6011C147.458 116.091 130.769 137.36 111.053 155.611L78.0275 130.441C99.5402 110.542 117.442 87.0657 130.937 61.0537L163.925 86.2236Z" fill="white"/>
<path opacity="0.2" d="M136.101 67.7759C135.786 68.4121 135.332 68.9692 134.773 69.4058C134.213 69.8425 133.562 70.1475 132.869 70.2982C132.175 70.4489 131.457 70.4414 130.767 70.2762C130.076 70.1111 129.432 69.7926 128.882 69.3443C117.173 90.2957 102.549 109.479 85.449 126.321C86.0305 126.73 86.5118 127.265 86.8565 127.886C87.2012 128.508 87.4004 129.199 87.4391 129.909C87.4777 130.618 87.3548 131.327 87.0797 131.982C86.8045 132.638 86.3843 133.222 85.8505 133.691L106.433 149.38C107.59 148.325 109.073 147.699 110.636 147.604C112.198 147.51 113.746 147.953 115.022 148.86C132.123 132.019 146.747 112.835 158.455 91.8828C155.975 89.9932 155.214 86.2423 156.683 83.4645L156.707 83.422L136.119 67.7334L136.101 67.7759ZM132.321 117.629C128.433 122.717 120.946 123.534 115.877 119.67C110.808 115.806 110.052 108.71 113.945 103.608C117.837 98.506 124.89 97.3722 129.969 101.246C135.047 105.12 136.238 112.541 132.34 117.629H132.321Z" fill="black"/>
<g opacity="0.2">
<path opacity="0.2" d="M128.788 113.378L130.153 114.417L129.388 115.418L128.022 114.374C127.035 115.518 125.745 116.368 124.715 116.576L123.912 115.097C124.995 114.804 125.971 114.206 126.723 113.373L124.286 111.516C122.925 112.622 121.352 113.727 119.661 112.433C118.418 111.488 118.045 109.773 119.321 107.732L117.946 106.684C118.201 106.353 118.456 106.017 118.706 105.682L120.058 106.712C120.758 105.865 121.655 105.202 122.67 104.78L123.525 106.225C122.713 106.567 121.981 107.074 121.376 107.713L123.832 109.603C125.193 108.493 126.723 107.321 128.414 108.611C129.652 109.542 130.049 111.29 128.788 113.378ZM122.826 110.397L120.658 108.743C120.128 109.712 120.28 110.411 120.818 110.817C121.357 111.223 122.065 110.945 122.826 110.397ZM127.361 110.26C126.766 109.787 126.081 110.132 125.315 110.732L127.47 112.376C128.022 111.356 127.876 110.661 127.352 110.26H127.361Z" fill="black"/>
</g>
<path opacity="0.2" d="M160.51 92.5913C147.468 116.086 130.775 137.358 111.053 155.61C111.053 155.61 97.0608 134.262 91.2549 130.294C91.2549 130.294 136.332 113.566 160.51 92.5913Z" fill="black"/>
<path d="M195.463 120.969C173.494 140.355 148.333 155.789 121.097 166.589L99.3661 131.197C126.602 120.398 151.761 104.963 173.728 85.5762C180.978 97.3769 188.223 109.174 195.463 120.969Z" fill="#0EA730"/>
<path opacity="0.3" d="M195.463 120.969C173.494 140.355 148.333 155.79 121.097 166.589L111.71 151.293C107.616 144.6 103.508 137.903 99.385 131.201C126.621 120.403 151.78 104.968 173.747 85.5811C180.984 97.3786 188.223 109.175 195.463 120.969Z" fill="white"/>
<path opacity="0.2" d="M176.156 93.7156C175.637 94.2005 175.014 94.5613 174.335 94.7706C173.656 94.98 172.938 95.0325 172.236 94.9243C171.534 94.816 170.865 94.5498 170.281 94.1457C169.696 93.7416 169.211 93.2101 168.862 92.5913C150.378 107.904 129.816 120.517 107.789 130.053C108.184 130.644 108.44 131.316 108.538 132.02C108.635 132.724 108.571 133.441 108.351 134.117C108.131 134.792 107.76 135.409 107.267 135.92C106.773 136.432 106.17 136.824 105.503 137.068L119.047 159.111C120.506 158.546 122.115 158.497 123.606 158.973C125.098 159.45 126.381 160.422 127.243 161.728C149.271 152.195 169.834 139.582 188.316 124.266C186.681 121.611 187.328 117.837 189.7 115.763L189.738 115.73L176.208 93.6826L176.156 93.7156ZM154.661 138.849C149.196 142.194 141.906 140.267 138.6 134.82C135.293 129.373 137.126 122.495 142.591 119.155C148.057 115.815 155.049 117.265 158.389 122.731C161.729 128.197 160.146 135.514 154.661 138.849Z" fill="black"/>
<g opacity="0.2">
<path opacity="0.2" d="M152.885 133.592L153.783 135.056L152.706 135.713C152.413 135.24 152.115 134.768 151.817 134.267C150.485 134.971 148.983 135.302 147.93 135.122C147.859 134.565 147.788 134.007 147.712 133.45C148.827 133.567 149.952 133.36 150.953 132.855C150.421 131.985 149.888 131.116 149.356 130.247C147.684 130.785 145.823 131.244 144.708 129.43C143.89 128.097 144.16 126.364 146.087 124.923L145.185 123.449L146.257 122.788L147.145 124.238C148.104 123.701 149.179 123.406 150.277 123.378C150.372 123.931 150.462 124.484 150.556 125.032C149.675 125.062 148.808 125.271 148.01 125.646L149.625 128.282C151.298 127.738 153.145 127.2 154.255 129.009C155.072 130.341 154.808 132.113 152.885 133.592ZM148.388 128.669C147.912 127.894 147.44 127.12 146.971 126.345C146.125 127.058 146.026 127.762 146.371 128.338C146.715 128.915 147.49 128.91 148.388 128.669ZM152.663 130.181C152.271 129.538 151.515 129.6 150.594 129.86L152.011 132.17C152.88 131.437 153.008 130.738 152.663 130.181Z" fill="black"/>
</g>
<path opacity="0.2" d="M195.463 120.969C173.494 140.355 148.333 155.79 121.097 166.59L111.71 151.293L110.071 127.592C110.071 127.592 162.177 131.353 195.463 120.969Z" fill="black"/>
<path d="M201.765 166.84C173.247 173.559 143.781 175.29 114.672 171.956C113.866 158.14 113.056 144.322 112.244 130.502C141.359 133.843 170.832 132.112 199.356 125.386C200.153 139.206 200.956 153.024 201.765 166.84Z" fill="#0EA730"/>
<path opacity="0.4" d="M201.765 166.84C173.247 173.559 143.781 175.29 114.672 171.956C113.866 158.14 113.056 144.322 112.244 130.502C141.359 133.843 170.832 132.112 199.356 125.386C200.153 139.206 200.956 153.024 201.765 166.84Z" fill="white"/>
<path opacity="0.2" d="M197.617 133.691C196.93 133.867 196.212 133.885 195.516 133.745C194.821 133.605 194.165 133.31 193.6 132.882C193.034 132.454 192.571 131.904 192.247 131.273C191.923 130.642 191.745 129.946 191.726 129.236C168.204 134.008 144.123 135.415 120.204 133.417C120.273 134.124 120.181 134.838 119.934 135.505C119.687 136.171 119.293 136.773 118.78 137.264C118.266 137.756 117.649 138.125 116.972 138.343C116.296 138.561 115.579 138.623 114.875 138.524C115.382 147.137 115.886 155.751 116.387 164.365C117.941 164.554 119.383 165.27 120.473 166.393C121.563 167.517 122.235 168.98 122.377 170.539C146.296 172.537 170.377 171.129 193.9 166.358C193.715 163.245 196.068 160.217 199.134 159.527H199.181L197.665 133.691H197.617ZM157.359 163.335C150.962 163.698 145.464 158.554 145.076 152.191C144.689 145.827 149.597 140.631 155.994 140.267C162.39 139.903 167.856 144.519 168.229 150.882C168.602 157.245 163.75 162.98 157.359 163.335Z" fill="black"/>
<g opacity="0.2">
<path opacity="0.2" d="M158.256 157.86L158.356 159.57L157.099 159.645L157 157.949C155.641 157.987 154.303 157.61 153.164 156.867C153.367 156.343 153.565 155.819 153.764 155.294C154.692 155.921 155.781 156.27 156.901 156.301C156.844 155.28 156.784 154.261 156.721 153.244C154.997 152.928 153.136 152.455 153.013 150.329C152.923 148.77 153.981 147.372 156.357 147.023L156.258 145.298L157.515 145.223L157.614 146.919C158.713 146.893 159.8 147.141 160.779 147.641L160.241 149.229C159.451 148.837 158.589 148.612 157.708 148.567L157.893 151.657C159.617 151.964 161.502 152.361 161.629 154.491C161.738 156.027 160.67 157.467 158.256 157.86ZM156.617 151.392C156.56 150.488 156.507 149.583 156.457 148.676C155.375 148.903 154.95 149.474 154.987 150.15C155.025 150.825 155.729 151.17 156.636 151.392H156.617ZM159.674 154.746C159.631 154 158.937 153.693 158.001 153.49L158.157 156.197C159.286 155.956 159.73 155.422 159.674 154.746Z" fill="black"/>
</g>
<path d="M133.899 166.883C134.022 168.297 134.168 169.734 134.338 171.196H34.9912C38.0996 144.935 34.9912 133.55 34.9912 133.55C68.192 131.051 134.338 133.55 134.338 133.55C134.338 133.55 132.34 146.201 133.686 164.318C133.749 165.158 133.82 166.013 133.899 166.883Z" fill="#0EA730"/>
<path opacity="0.2" d="M134.338 133.55C129.988 135.581 108.706 135.869 96.4608 135.109C84.216 134.348 68.192 136.668 68.192 136.668C58.9139 133.465 34.9912 133.55 34.9912 133.55C68.192 131.051 134.338 133.55 134.338 133.55Z" fill="white"/>
<path opacity="0.2" d="M34.9912 171.196C38.0996 144.935 34.9912 133.55 34.9912 133.55C34.9912 133.55 54.6859 133.12 68.192 136.667C68.192 136.667 68.6644 140.673 68.192 142.733C68.192 142.733 84.4381 140.097 98.8984 140.447C98.8984 140.447 76.5158 143.021 68.192 144.935C68.192 144.935 54.804 142.847 46.3337 142.733C46.3337 142.733 63.945 145.024 68.192 146.394C68.192 146.394 73.2278 145.478 75.8639 145.478C75.8639 145.478 69.5572 146.626 68.192 147.651V154.907C68.192 154.907 54.1331 155.186 47.0801 154.18C50.4295 154.704 64.0868 156.806 68.192 156.806C68.192 156.806 83.7058 156.235 92.7146 156.806C92.7146 156.806 72.1885 157.987 68.192 158.941H50.5712L68.192 160.42V161.889H75.7505L68.192 163.193C68.192 163.193 46.3337 161.804 40.046 163.193C40.046 163.193 65.8441 164.365 68.1636 165.276L68.192 167.449C68.192 167.449 97.1222 163.628 122.708 166.916C122.708 166.916 85.3451 165.432 68.192 169.589C68.192 169.589 121.862 168.423 134.329 171.196H34.9912Z" fill="black"/>
<path d="M35.5723 136.667L32.9504 137.584C32.9504 137.584 48.743 138.127 58.9328 139.686C58.9234 139.686 43.2253 136.894 35.5723 136.667Z" fill="#0EA730"/>
<path opacity="0.2" d="M70.4926 139.686L74.4891 140.447C74.4891 140.447 93.0973 138.425 115.093 138.179C115.093 138.179 83.3232 136.639 70.4926 139.686Z" fill="white"/>
<path opacity="0.2" d="M83.1011 143.961C83.1011 143.961 94.2594 140.919 104.043 141.07C113.827 141.221 132.449 139.686 132.449 139.686L133.181 141.07C133.181 141.07 118.579 141.925 106.528 141.826C98.671 141.841 90.8312 142.556 83.1011 143.961Z" fill="white"/>
<path opacity="0.2" d="M72.0279 148.51C72.0279 148.51 85.3309 145.676 98.3741 145.936C111.417 146.196 127.843 147.216 127.843 147.216C127.843 147.216 92.195 147.216 83.1012 149.106L72.0279 148.51Z" fill="white"/>
<path d="M95.0389 144.391C95.0389 144.391 106.495 143.446 116.382 143.961C126.27 144.476 136.653 144.939 136.653 144.939L133.181 145.922C133.181 145.922 109.376 143.536 95.0389 144.391Z" fill="#0EA730"/>
<path opacity="0.2" d="M95.0389 144.391C95.0389 144.391 106.495 143.446 116.382 143.961C126.27 144.476 136.653 144.939 136.653 144.939L133.181 145.922C133.181 145.922 109.376 143.536 95.0389 144.391Z" fill="black"/>
<path opacity="0.2" d="M72.4578 150.915C72.4578 150.915 92.2989 150.669 101.856 150.192C111.412 149.715 124.229 152.365 124.229 152.365C124.229 152.365 108.417 152.03 103.523 152.805L72.4578 150.915Z" fill="black"/>
<path opacity="0.2" d="M70.4926 153.92L83.1011 152.805L109.962 153.92L82.7563 155.034L70.4926 153.92Z" fill="white"/>
<path opacity="0.2" d="M79.9218 159.839C79.9218 159.839 98.256 158.129 105.399 158.039C112.542 157.949 131.764 156.665 131.764 156.665L129.629 159.499C129.629 159.499 93.4846 158.729 79.9218 159.839Z" fill="white"/>
<path d="M126.411 150.192L133.181 150.83L135.023 150.192C132.159 149.924 129.276 149.924 126.411 150.192Z" fill="#0EA730"/>
<path d="M134.036 135.902L136.653 136.323L133.842 137.792L117.308 137.442C117.308 137.442 129.704 137.277 134.036 135.902Z" fill="#0EA730"/>
<path opacity="0.2" d="M126.411 150.192L133.181 150.83L135.023 150.192C132.159 149.924 129.276 149.924 126.411 150.192Z" fill="white"/>
<path opacity="0.2" d="M134.036 135.902L136.653 136.323L133.842 137.792L117.308 137.442C117.308 137.442 129.704 137.277 134.036 135.902Z" fill="black"/>
<path opacity="0.2" d="M133.899 166.882C129.458 166.594 98.341 162.683 98.341 162.683C100.415 162.442 127.578 164.048 133.687 164.317C133.749 165.158 133.82 166.013 133.899 166.882Z" fill="black"/>
<path d="M87.0458 162.149C87.0458 162.149 116.141 162.073 124.465 162.673C132.789 163.273 133.535 162.149 133.535 162.149L137.683 164.147C137.683 164.147 137.896 166.131 126.978 164.747C116.061 163.363 87.0458 162.149 87.0458 162.149Z" fill="#0EA730"/>
<path d="M63.2742 147.519C63.2742 147.519 46.2345 144.817 36.2998 145.506C37.7929 145.846 39.1839 146.535 40.3578 147.519H63.2742Z" fill="#0EA730"/>
<path d="M36.2809 154.907C36.6683 154.865 49.0359 156.494 53.76 156.664L34.533 157.439L36.2809 154.907Z" fill="#0EA730"/>
<path d="M35.5817 165.593L54.2607 166.254L32.9504 167.832L35.5817 165.593Z" fill="#0EA730"/>
<path d="M69.6139 132.274C69.6139 132.274 96.1443 136.809 111.531 118.654L140.518 126.095C140.518 126.095 135.184 137.158 95.1239 135.689C55.0638 134.22 69.6139 132.274 69.6139 132.274Z" fill="#0EA730"/>
<path opacity="0.5" d="M69.6139 132.274C69.6139 132.274 96.1443 136.809 111.531 118.654L140.518 126.095C140.518 126.095 135.184 137.158 95.1239 135.689C55.0638 134.22 69.6139 132.274 69.6139 132.274Z" fill="white"/>
<path opacity="0.2" d="M84.764 133.252C84.764 133.252 100.982 132.397 110.151 122.023C110.993 122.283 111.893 122.285 112.736 122.027C113.578 121.769 114.324 121.264 114.875 120.577L136.034 126.185C136.034 126.185 133.757 126.983 134.556 129.619C134.537 129.619 106.764 140.872 84.764 133.252Z" fill="black"/>
<path d="M108.97 80.6351L109.466 78.0038C109.466 78.0038 108.441 77.0307 108.559 76.1142C108.677 75.1977 113.241 73.7522 114.049 73.6718C114.856 73.5915 114.549 76.8984 114.304 77.4983C114.058 78.0983 111.318 78.8211 111.318 78.8211L110.973 81.5941L108.97 80.6351Z" fill="#EBB376"/>
<path d="M56.3582 93.5699L54.5489 91.5953C54.5489 91.5953 54.9032 90.23 54.3268 89.5308C53.7505 88.8317 49.0973 89.9796 48.3792 90.3528C47.6612 90.726 49.6547 93.3573 50.1838 93.7353C50.7129 94.1132 53.4151 93.2629 53.4151 93.2629L55.1724 95.4407L56.3582 93.5699Z" fill="#EBB376"/>
<path d="M92.3414 89.3276C97.4293 89.0441 102.04 90.107 104.407 89.3276C106.773 88.5481 109.069 78.7031 109.069 78.7031L111.559 79.544C111.559 79.544 110.614 89.7905 106.523 92.5352C102.432 95.2799 92.9509 95.2563 92.9509 95.2563L92.3414 89.3276Z" fill="#0EA730"/>
<path opacity="0.7" d="M111.559 79.544C111.559 79.544 110.614 89.7905 106.523 92.5352C104.161 94.0941 100.113 94.7602 97.0372 95.0484C94.7082 95.261 92.9509 95.2563 92.9509 95.2563L92.6674 92.488L92.3414 89.3276C97.4293 89.0441 102.04 90.107 104.407 89.3276C106.773 88.5481 109.069 78.7031 109.069 78.7031L111.559 79.544Z" fill="white"/>
<path opacity="0.2" d="M97.0372 95.0482C94.7082 95.2608 92.9508 95.2561 92.9508 95.2561L92.6674 92.4878C94.251 93.1032 95.7262 93.9676 97.0372 95.0482Z" fill="black"/>
<path d="M124.867 168.909L128.159 168.007L127.569 159.966L124.281 160.873L124.867 168.909Z" fill="#B97964"/>
<path d="M128.362 167.567L124.536 167.832C124.472 167.835 124.411 167.862 124.367 167.909C124.323 167.956 124.298 168.018 124.3 168.082L124.323 171.12C124.334 171.279 124.407 171.427 124.527 171.532C124.646 171.637 124.802 171.691 124.961 171.682C126.293 171.569 126.926 171.446 128.608 171.318C130.109 171.267 131.604 171.109 133.082 170.846C134.499 170.52 134.121 169.15 133.498 169.164C131.887 169.077 130.326 168.574 128.967 167.705C128.786 167.594 128.574 167.546 128.362 167.567Z" fill="#263238"/>
<path d="M129.61 168.063C129.303 168.078 128.996 168.059 128.693 168.007C128.678 168.005 128.663 167.998 128.652 167.988C128.64 167.978 128.631 167.965 128.627 167.95C128.625 167.935 128.626 167.92 128.63 167.905C128.634 167.89 128.641 167.877 128.651 167.865C128.755 167.78 129.676 167.057 130.106 167.189C130.154 167.205 130.198 167.233 130.233 167.27C130.267 167.307 130.292 167.353 130.304 167.402C130.337 167.475 130.348 167.557 130.337 167.636C130.325 167.716 130.291 167.79 130.238 167.851C130.061 167.995 129.838 168.071 129.61 168.063ZM130.058 167.355C129.832 167.284 129.284 167.61 128.906 167.889C129.525 167.964 129.969 167.917 130.12 167.747C130.15 167.706 130.17 167.658 130.176 167.608C130.183 167.557 130.176 167.506 130.158 167.459C130.15 167.435 130.137 167.413 130.12 167.395C130.103 167.377 130.082 167.364 130.058 167.355Z" fill="#263238"/>
<path d="M128.707 168.007C128.702 168.009 128.697 168.011 128.691 168.011C128.685 168.011 128.679 168.009 128.674 168.007C128.663 168.001 128.653 167.993 128.645 167.983C128.637 167.973 128.631 167.962 128.627 167.95C128.627 167.917 128.481 166.934 128.797 166.575C128.839 166.53 128.891 166.495 128.948 166.472C129.005 166.45 129.066 166.44 129.128 166.443C129.196 166.441 129.262 166.461 129.318 166.5C129.373 166.539 129.414 166.596 129.435 166.66C129.534 167.029 129.076 167.775 128.755 167.997C128.748 168.002 128.74 168.006 128.732 168.007C128.724 168.009 128.715 168.009 128.707 168.007ZM129.085 166.618C129.053 166.619 129.022 166.628 128.993 166.642C128.965 166.657 128.94 166.678 128.92 166.703C128.754 167.041 128.702 167.424 128.773 167.794C129.068 167.511 129.248 167.129 129.279 166.722C129.279 166.675 129.236 166.623 129.123 166.618H129.085Z" fill="#263238"/>
<path opacity="0.2" d="M124.281 160.873L127.574 159.971L127.909 164.568L124.597 165.305L124.281 160.873Z" fill="black"/>
<path d="M120.558 168.791L117.445 170.213L116.656 166.868L115.593 162.371L118.692 160.949L119.76 165.442L120.558 168.791Z" fill="#B97964"/>
<path opacity="0.2" d="M119.76 165.442L116.656 166.868L115.593 162.371L118.692 160.949L119.76 165.442Z" fill="black"/>
<path d="M120.686 168.328L116.954 169.202C116.891 169.213 116.836 169.249 116.8 169.301C116.763 169.354 116.749 169.418 116.76 169.481L117.27 172.48C117.286 172.559 117.316 172.633 117.36 172.699C117.405 172.765 117.462 172.822 117.528 172.866C117.594 172.91 117.669 172.94 117.747 172.955C117.825 172.97 117.906 172.969 117.984 172.953C119.283 172.627 119.873 172.405 121.527 172.008C123.001 171.728 124.454 171.343 125.873 170.855C127.2 170.312 126.629 169.018 126.019 169.131C124.574 169.391 122.41 168.918 121.295 168.403C121.106 168.311 120.892 168.285 120.686 168.328Z" fill="#263238"/>
<path d="M121.999 168.621C121.698 168.683 121.39 168.711 121.083 168.706C121.067 168.708 121.051 168.706 121.038 168.698C121.024 168.69 121.013 168.678 121.007 168.664C121 168.651 120.996 168.636 120.996 168.621C120.996 168.606 121 168.592 121.007 168.579C121.097 168.479 121.886 167.634 122.335 167.676C122.384 167.685 122.431 167.706 122.471 167.737C122.51 167.769 122.542 167.809 122.561 167.856C122.608 167.926 122.633 168.008 122.633 168.092C122.633 168.176 122.608 168.258 122.561 168.328C122.413 168.488 122.215 168.591 121.999 168.621ZM122.33 167.851C122.089 167.813 121.602 168.224 121.272 168.56C121.895 168.536 122.33 168.418 122.448 168.229C122.475 168.185 122.489 168.134 122.489 168.083C122.489 168.031 122.475 167.98 122.448 167.936C122.439 167.913 122.425 167.893 122.406 167.878C122.386 167.863 122.363 167.854 122.339 167.851H122.33Z" fill="#263238"/>
<path d="M121.097 168.706C121.092 168.708 121.088 168.709 121.083 168.709C121.078 168.709 121.073 168.708 121.068 168.706C121.056 168.702 121.044 168.695 121.034 168.686C121.024 168.677 121.017 168.666 121.012 168.654C121.012 168.626 120.7 167.671 120.96 167.27C120.994 167.219 121.038 167.176 121.09 167.144C121.143 167.112 121.201 167.092 121.262 167.085C121.33 167.071 121.4 167.081 121.462 167.112C121.523 167.142 121.573 167.193 121.602 167.256C121.758 167.6 121.428 168.413 121.13 168.673C121.128 168.681 121.124 168.688 121.118 168.694C121.112 168.7 121.105 168.704 121.097 168.706ZM121.248 167.289C121.186 167.304 121.132 167.343 121.097 167.397C120.989 167.759 120.999 168.147 121.125 168.503C121.372 168.177 121.491 167.772 121.461 167.364C121.461 167.317 121.399 167.27 121.286 167.284L121.248 167.289Z" fill="#263238"/>
<path d="M97.4907 123.133L96.4844 112.022L77.933 112.457C77.933 112.457 75.7363 127.937 77.333 130.781C80.1675 135.86 98.8843 132.978 103.259 133.408C105.044 134.353 114.597 166.037 114.597 166.037L119.949 163.878C119.949 163.878 114.195 137.145 112.863 132.109C111.063 125.108 103.637 125.23 97.4907 123.133Z" fill="#263238"/>
<path d="M128.235 163.33L123.511 163.764C123.511 163.764 117.724 134.291 117.275 134.163C116.472 133.932 114.124 133.667 112.863 133.337C104.104 131.06 82.5342 126.869 82.5342 126.869L90.4896 119.207C90.4896 119.207 126.553 123.534 127.337 132C127.739 136.053 128.235 163.33 128.235 163.33Z" fill="#263238"/>
<path opacity="0.2" d="M116.004 134.187C115.196 133.956 114.115 133.673 112.863 133.342C113.212 133.526 112.201 128.939 111.19 127.753C109.183 125.391 101.123 124.106 98.2371 123.643C95.8183 123.256 87.7118 122.543 87.7118 122.543C87.7118 122.543 102.026 121.305 112.811 124.267C118.144 125.731 117.195 130.937 116.004 134.187Z" fill="black"/>
<path d="M75.4576 92.0247C75.4576 92.0247 82.3028 88.3919 92.3414 89.3273C92.3414 89.3273 95.8231 98.1802 96.4844 112.003L77.8196 113.297C77.8196 113.297 78.155 101.449 75.4576 92.0247Z" fill="#0EA730"/>
<path opacity="0.7" d="M77.8196 113.316C77.8674 110.09 77.7476 106.864 77.4606 103.651C77.2953 101.761 77.059 99.7722 76.7189 97.7456C76.4064 95.8164 75.9853 93.9064 75.4576 92.0247C75.4576 92.0247 82.3028 88.3919 92.3414 89.3273C92.3414 89.3273 95.8231 98.1802 96.4844 112.003L77.8196 113.316Z" fill="white"/>
<path opacity="0.2" d="M77.4748 103.651C77.3095 101.761 77.0732 99.7726 76.7331 97.746C77.0646 97.4091 77.4639 97.1466 77.9047 96.9759L77.9283 96.7681C77.9141 96.9948 78.892 100.486 77.4748 103.651Z" fill="black"/>
<path d="M80.6305 90.7401C82.3406 92.2943 86.5261 91.718 86.5261 91.718C86.5261 91.718 89.1385 91.0046 88.5905 90.1874C87.0505 89.9323 86.3088 89.2142 85.997 88.2977C85.8316 87.726 85.7786 87.1276 85.8411 86.5357C85.8411 86.2144 85.9167 85.8837 85.9734 85.5578L80.7816 81.7266C81.4761 84.2539 82.3075 88.9072 80.6305 90.7401Z" fill="#EBB376"/>
<path opacity="0.2" d="M81.991 84.1592C82.1988 87.2629 84.7498 88.1227 85.997 88.2975C85.8316 87.7257 85.7786 87.1273 85.8411 86.5354L81.991 84.1592Z" fill="black"/>
<path d="M85.2742 71.0786C87.1969 71.5983 88.7984 76.0342 87.3575 78.9678C85.9167 81.9015 81.5753 73.6957 81.5753 73.6957C81.5753 73.6957 84.0318 70.7479 85.2742 71.0786Z" fill="#263238"/>
<path d="M89.2849 81.254C89.2944 81.4334 89.2944 81.6132 89.2849 81.7926C89.2519 83.0728 88.7354 84.2931 87.8394 85.2081C87.0386 86.0422 85.9555 86.5475 84.8018 86.6253C83.9811 86.666 83.1647 86.4831 82.4398 86.0962C80.1439 84.9294 79.525 82.9075 78.1881 79.5723C77.8551 78.7962 77.7283 77.9473 77.8197 77.1078C77.9112 76.2683 78.218 75.4666 78.7102 74.7804C79.2025 74.0943 79.8637 73.5469 80.6296 73.1913C81.3956 72.8357 82.2404 72.6839 83.0822 72.7507C86.8615 73.0294 88.9921 77.9472 89.2849 81.254Z" fill="#EBB376"/>
<path d="M83.6728 78.7929C83.7436 79.0717 83.9798 79.2654 84.1452 79.185C84.3105 79.1047 84.4003 78.8496 84.3105 78.5756C84.2208 78.3016 83.994 78.1032 83.8381 78.1835C83.6822 78.2639 83.583 78.5095 83.6728 78.7929Z" fill="#263238"/>
<path d="M86.8048 77.7632C86.8757 78.0419 87.1166 78.212 87.2772 78.1553C87.4379 78.0986 87.5323 77.8199 87.4426 77.5412C87.3528 77.2624 87.1308 77.0924 86.9702 77.1491C86.8096 77.2057 86.7198 77.4986 86.8048 77.7632Z" fill="#263238"/>
<path d="M85.8553 78.2261C86.4645 78.9645 87.1717 79.6162 87.9575 80.1629C87.8118 80.3619 87.6241 80.5264 87.4078 80.6448C87.1915 80.7632 86.9517 80.8325 86.7056 80.8479L85.8553 78.2261Z" fill="#D58745"/>
<path d="M87.5276 76.0577C87.5047 76.0797 87.4769 76.0959 87.4465 76.1049C87.4161 76.114 87.384 76.1156 87.3528 76.1096C87.1461 76.0531 86.9289 76.0459 86.7189 76.0886C86.5089 76.1312 86.3118 76.2226 86.1435 76.3553C86.1109 76.3866 86.0672 76.4037 86.022 76.4028C85.9768 76.4019 85.9338 76.3831 85.9025 76.3506C85.8712 76.318 85.8541 76.2743 85.855 76.2291C85.8559 76.1839 85.8747 76.141 85.9072 76.1096C86.1171 75.9373 86.3649 75.8175 86.6302 75.76C86.8956 75.7025 87.1708 75.709 87.4331 75.7789C87.4552 75.7834 87.4762 75.7923 87.4949 75.805C87.5135 75.8176 87.5295 75.8339 87.5418 75.8528C87.5541 75.8717 87.5625 75.8929 87.5666 75.9151C87.5706 75.9373 87.5702 75.96 87.5654 75.9821C87.5557 76.0086 87.543 76.034 87.5276 76.0577Z" fill="#263238"/>
<path d="M82.6382 77.7438C82.6062 77.7558 82.571 77.7558 82.539 77.7438C82.5003 77.7211 82.4721 77.6841 82.4606 77.6407C82.4491 77.5974 82.4552 77.5512 82.4775 77.5123C82.6153 77.2771 82.8072 77.0782 83.0372 76.9319C83.2673 76.7857 83.5288 76.6964 83.8003 76.6715C83.8226 76.6708 83.8449 76.6746 83.8657 76.6826C83.8866 76.6905 83.9057 76.7025 83.9219 76.7179C83.9382 76.7333 83.9512 76.7517 83.9603 76.7721C83.9695 76.7925 83.9745 76.8145 83.9751 76.8368C83.9751 76.8816 83.958 76.9246 83.9273 76.9572C83.8965 76.9897 83.8544 77.0092 83.8097 77.0116C83.5959 77.0374 83.391 77.1127 83.2114 77.2317C83.0318 77.3506 82.8824 77.5098 82.7752 77.6966C82.7569 77.7135 82.7352 77.7265 82.7116 77.7346C82.6881 77.7428 82.663 77.7459 82.6382 77.7438Z" fill="#263238"/>
<path d="M79.2936 74.4702L80.0352 75.8874C79.8344 76.1048 79.7228 76.3899 79.7228 76.6858C79.7228 76.9818 79.8344 77.2668 80.0352 77.4842C80.9801 78.5424 81.0178 80.7343 80.3565 81.8681C80.3565 81.8681 80.125 81.3437 79.7187 81.6414C79.3125 81.939 80.5124 84.6931 81.906 85.6899C81.906 85.6899 80.1061 84.9954 78.2259 82.3452C76.4875 79.8982 75.5332 77.6637 75.6891 76.3976L79.2936 74.4702Z" fill="#263238"/>
<path d="M77.626 82.8175C78.2547 83.4641 79.1145 83.8346 80.0163 83.8474C81.2163 83.8474 81.4997 82.7089 80.9045 81.7404C80.3706 80.8854 79.0999 79.8225 78.0275 80.2901C76.9551 80.7578 76.8607 82.0144 77.626 82.8175Z" fill="#EBB376"/>
<path d="M87.0741 82.0335C86.8565 82.5094 86.6733 83.0004 86.5261 83.5027L86.2521 83.4696C85.0144 83.3043 84.49 82.8177 84.2916 82.3264C84.1994 82.0858 84.1654 81.8268 84.1924 81.5705C84.202 81.4233 84.2338 81.2783 84.2869 81.1406C85.0052 81.5845 85.8109 81.8681 86.6489 81.9721C86.9229 82.0193 87.0741 82.0335 87.0741 82.0335Z" fill="#263238"/>
<path d="M86.6537 81.9721L86.4789 82.402C85.312 82.2413 84.5089 81.9721 84.1924 81.5705C84.202 81.4233 84.2339 81.2783 84.2869 81.1406C85.0066 81.5852 85.814 81.8688 86.6537 81.9721Z" fill="white"/>
<path d="M86.2521 83.4699C85.0144 83.3045 84.49 82.818 84.2916 82.3267C84.7628 82.4051 85.2168 82.5649 85.6332 82.7991C85.9039 82.9533 86.1201 83.1877 86.2521 83.4699Z" fill="#DE5753"/>
<path d="M82.4539 74.716C82.4539 74.716 82.1233 72.4579 83.5499 72.8972C84.9766 73.3366 85.0758 72.4768 84.6506 70.7336C84.2255 68.9904 80.1344 68.3716 77.8196 71.2296C75.5048 74.0877 74.697 76.4828 75.8166 77.7489C76.9362 79.0149 81.2021 75.2782 81.2021 75.2782C81.3184 74.6399 81.5892 74.0397 81.991 73.5303C82.0172 73.9643 82.1791 74.3791 82.4539 74.716Z" fill="#263238"/>
<path d="M84.6601 91.5384L86.9229 93.5367C86.9229 93.5367 88.1654 101.946 91.2171 105.621H93.1067L93.4799 104.317C90.6411 101.148 88.6033 97.3441 87.5371 93.2249V90.5464L84.6601 91.5384Z" fill="#263238"/>
<path d="M81.2068 88.9214L85.8553 90.6646L86.2521 88.2979L88.6661 89.1718L89.285 92.1621L85.997 91.3496L84.3672 93.5321L79.629 90.4662L81.2068 88.9214Z" fill="#0EA730"/>
<path opacity="0.5" d="M81.2068 88.9214L85.8553 90.6646L86.2521 88.2979L88.6661 89.1718L89.285 92.1621L85.997 91.3496L84.3672 93.5321L79.629 90.4662L81.2068 88.9214Z" fill="white"/>
<path d="M77.5551 113.004L96.7017 111.186L96.7443 113.51L77.5645 115.078L77.5551 113.004Z" fill="black"/>
<path d="M92.6485 111.663C92.5621 111.585 92.4602 111.526 92.3494 111.49C92.2387 111.455 92.1217 111.442 92.006 111.455L90.3101 111.63C90.1005 111.651 89.9065 111.75 89.7665 111.908C89.6265 112.065 89.5508 112.269 89.5542 112.48V113.567C89.5592 113.79 89.6524 114.003 89.8135 114.157C89.9746 114.312 90.1905 114.397 90.414 114.393H90.4849L92.1808 114.214C92.39 114.193 92.5835 114.093 92.7227 113.936C92.8619 113.778 92.9366 113.574 92.9319 113.364V112.282C92.9313 112.164 92.9057 112.048 92.8569 111.942C92.808 111.835 92.737 111.74 92.6485 111.663ZM92.1525 113.779L90.4613 113.959C90.4033 113.967 90.3443 113.962 90.2881 113.946C90.2319 113.93 90.1798 113.902 90.1352 113.864C90.0906 113.826 90.0545 113.779 90.0293 113.726C90.0041 113.673 89.9903 113.616 89.9888 113.557V112.475C89.9871 112.373 90.024 112.273 90.0922 112.196C90.1604 112.119 90.255 112.07 90.3573 112.06L92.0485 111.885H92.0863C92.1937 111.885 92.2968 111.927 92.3737 112.002C92.4505 112.077 92.4949 112.179 92.4973 112.286V112.433H92.4312L91.9588 112.475C91.9209 112.479 91.8841 112.49 91.8505 112.507C91.8168 112.525 91.787 112.549 91.7626 112.578C91.7383 112.607 91.7199 112.641 91.7086 112.677C91.6973 112.714 91.6932 112.752 91.6966 112.79C91.7 112.827 91.7108 112.864 91.7285 112.898C91.7461 112.932 91.7702 112.961 91.7994 112.986C91.8285 113.01 91.8622 113.028 91.8985 113.04C91.9348 113.051 91.9729 113.055 92.0107 113.052L92.4832 113.004H92.5068V113.378C92.5064 113.476 92.4703 113.571 92.4051 113.645C92.34 113.719 92.2502 113.767 92.1525 113.779Z" fill="white"/>
<path d="M75.4576 92.0249C72.2641 93.9145 67.6534 100.136 66.0331 100.009C64.4127 99.881 55.6732 92.1194 55.6732 92.1194L53.6796 94.2783C53.6796 94.2783 61.7531 103.92 65.5134 104.648C69.2738 105.375 77.5551 98.4024 77.5551 98.4024C78.0234 97.2008 78.0234 95.8672 77.5551 94.6657C77.1304 93.5985 76.4009 92.6801 75.4576 92.0249Z" fill="#0EA730"/>
<path opacity="0.7" d="M75.4576 92.0249C72.2641 93.9145 67.6534 100.136 66.0331 100.009C64.4127 99.881 55.6732 92.1194 55.6732 92.1194L53.6796 94.2783C53.6796 94.2783 61.7531 103.92 65.5134 104.648C69.2738 105.375 77.5551 98.4024 77.5551 98.4024C78.0234 97.2008 78.0234 95.8672 77.5551 94.6657C77.1304 93.5985 76.4009 92.6801 75.4576 92.0249Z" fill="white"/>
<path d="M104.69 135.94C104.69 135.94 41.2884 136.379 37.3532 127.474L65.589 125.424C71.1926 127.775 76.9278 129.798 82.7657 131.485C89.2849 133.389 97.0135 135.193 104.69 135.94Z" fill="#0EA730"/>
<path opacity="0.2" d="M104.69 135.94C104.69 135.94 102.701 135.94 99.3945 135.94C85.8317 134.995 69.9966 128.259 69.9966 128.259C64.2804 129.515 60.35 127.262 60.35 127.262L44.9401 128.145C45.0231 128.525 45.0195 128.918 44.9295 129.296C44.8395 129.674 44.6655 130.027 44.4204 130.328C52.4089 132.572 61.0208 133.937 68.0408 134.764C53.2119 133.654 39.1389 131.537 37.3343 127.489L65.5701 125.438C65.5701 125.438 85.2931 134.05 104.69 135.94Z" fill="white"/>
<path opacity="0.2" d="M104.69 135.94C104.69 135.94 41.2884 136.379 37.3532 127.474C37.3532 127.474 58.7769 136.729 82.7657 131.485C89.2849 133.389 97.0135 135.193 104.69 135.94Z" fill="black"/>
</svg>
